SplineFontDB: 1.0
FontName: DBThaiText-Oblique
FullName: DBThaiText Oblique
FamilyName: DBThaiText
Weight: Medium
Copyright: Typeface (c) The Monotype Corporation plc. Data (c) The Monotype Corporation plc/Type Solutions Inc. 1990-1992. All Rights Reserved\n\nModified by TLWG
Version: 2.0 : Dec 10, 2003
ItalicAngle: -12
UnderlinePosition: -50
UnderlineWidth: 40
Ascent: 800
Descent: 200
NeedsXUIDChange: 1
FSType: 0
PfmFamily: 33
TTFWeight: 500
TTFWidth: 5
Panose: 2 0 6 3 0 0 0 0 0 0
LineGap: 266
VLineGap: 0
OS2WinAscent: 0
OS2WinAOffset: 1
OS2WinDescent: 0
OS2WinDOffset: 1
HheadAscent: 0
HheadAOffset: 1
HheadDescent: 0
HheadDOffset: 1
ScriptLang: 4
 1 DFLT 1 dflt 
 1 thai 4 KUY  PAL  THA  dflt 
 1 latn 1 dflt 
 1 thai 1 PAL  
ContextSub: glyph 0 3 ' RQD' 0 0 0 1
 String: 15 uni0E0D uni0E10
 BString: 0 
 FString: 0 
 1
  SeqLookup: 0 'nds0'
EndFPST
ChainSub: coverage 0 1 'ccmp' 0 0 0 1
 2 0 0
  Coverage: 19 uni0E4B uni0E4B.low
  Coverage: 7 uni0E4D
 2
  SeqLookup: 0 'amni'
  SeqLookup: 1 'G006'
EndFPST
ChainSub: coverage 0 1 'ccmp' 0 0 0 1
 2 0 0
  Coverage: 19 uni0E4A uni0E4A.low
  Coverage: 7 uni0E4D
 2
  SeqLookup: 0 'amni'
  SeqLookup: 1 'G005'
EndFPST
ChainSub: coverage 0 1 'ccmp' 0 0 0 1
 2 0 0
  Coverage: 19 uni0E49 uni0E49.low
  Coverage: 7 uni0E4D
 2
  SeqLookup: 0 'amni'
  SeqLookup: 1 'G004'
EndFPST
ChainSub: coverage 0 1 'ccmp' 0 0 0 1
 2 0 0
  Coverage: 19 uni0E48 uni0E48.low
  Coverage: 7 uni0E4D
 2
  SeqLookup: 0 'amni'
  SeqLookup: 1 'G003'
EndFPST
ChainSub: coverage 0 1 'ccmp' 0 0 0 1
 1 0 1
  Coverage: 15 uni0E0D uni0E10
  FCoverage: 23 uni0E38 uni0E39 uni0E3A
 1
  SeqLookup: 0 'ndsc'
EndFPST
ChainSub: coverage 0 1 'ccmp' 0 0 0 1
 1 2 0
  Coverage: 39 uni0E48 uni0E49 uni0E4A uni0E4B uni0E4C
  BCoverage: 23 uni0E38 uni0E39 uni0E3A

StartChar: .notdef
Encoding: 0 -1 0
OldEncoding: 0
Width: 771
VWidth: 2048
Flags: W
HStem: -38 102<171 661> 1237 101<339 829>
DStem: 339 1338 420 1237 46 -38 171 64 829 1237 954 1338 580 64 661 -38
Fore
46 -38 m 1
 339 1338 l 1
 954 1338 l 1
 661 -38 l 1
 46 -38 l 1
171 64 m 1
 580 64 l 1
 829 1237 l 1
 420 1237 l 1
 171 64 l 1
EndSplineSet
EndChar
StartChar: exclam
Encoding: 3 33 3
OldEncoding: 33
Width: 272
Flags: W
HStem: 0 21G<122 204>
DStem: 144 102 226 102 122 0 204 0 274 716 357 716 199 364 281 364
Fore
219 164 m 1
 177 164 l 1
 199 364 l 1
 274 716 l 1
 357 716 l 1
 281 364 l 1
 219 164 l 1
144 102 m 1
 226 102 l 1
 204 0 l 1
 122 0 l 1
 144 102 l 1
EndSplineSet
EndChar
StartChar: quotedbl
Encoding: 4 34 4
OldEncoding: 34
Width: 327
VWidth: 2048
Flags: W
DStem: 196 716 278 716 173 605 255 605 349 716 432 716 326 605 409 605
Fore
165 476 m 1
 173 605 l 1
 196 716 l 1
 278 716 l 1
 255 605 l 1
 206 476 l 1
 165 476 l 1
319 476 m 1
 326 605 l 1
 349 716 l 1
 432 716 l 5
 409 605 l 1
 360 476 l 1
 319 476 l 1
EndSplineSet
EndChar
StartChar: numbersign
Encoding: 5 35 5
OldEncoding: 35
Width: 546
Flags: W
HStem: 187 78<69 151 260 349 458 539> 416 78<154 242 347 439 547 621>
DStem: 151 187 228 187 71 -20 145 -20 242 416 318 416 183 265 260 265 349 686 425 686 271 494 347 494 349 187 425 187 270 -20 344 -20 439 416 516 416 381 265 458 265 547 686 624 686 470 494 547 494
Fore
349 686 m 1
 425 686 l 1
 347 494 l 1
 470 494 l 1
 547 686 l 1
 624 686 l 1
 547 494 l 1
 637 494 l 1
 621 416 l 1
 516 416 l 1
 458 265 l 1
 557 265 l 1
 539 187 l 1
 425 187 l 1
 344 -20 l 1
 270 -20 l 1
 349 187 l 1
 228 187 l 1
 145 -20 l 1
 71 -20 l 1
 151 187 l 1
 52 187 l 1
 70 265 l 1
 183 265 l 1
 242 416 l 1
 139 416 l 1
 155 494 l 1
 271 494 l 1
 349 686 l 1
318 416 m 1
 260 265 l 1
 381 265 l 1
 439 416 l 1
 318 416 l 1
EndSplineSet
EndChar
StartChar: dollar
Encoding: 6 36 6
OldEncoding: 36
Width: 546
Flags: W
HStem: 632 125<400 450.882>
DStem: 235 -23 294 -22 213 -123 273 -123 306 313 362 303 249 46 309 48 374 634 434 632 325 400 381 392
Fore
597 512 m 1
 518 512 l 1
 523 547 522 576 508 594 c 1
 496 619 471 632 434 632 c 1
 381 392 l 1
 429 377 465 364 489 352 c 0
 510 342 528 325 544 297 c 0
 557 268 558 232 548 186 c 0
 538 135 512 90 473 54 c 0
 429 16 389 -4 349 -12 c 2
 294 -22 l 1
 273 -123 l 1
 213 -123 l 1
 235 -23 l 1
 197 -14 165 -7 142 1 c 0
 119 12 99 33 81 64 c 0
 65 96 64 142 77 204 c 1
 152 204 l 1
 149 175 148 151 151 133 c 0
 151 115 158 97 173 80 c 0
 188 65 213 54 249 46 c 1
 306 313 l 1
 291 318 274 325 254 331 c 0
 235 338 218 345 203 355 c 0
 187 364 177 376 168 387 c 1
 149 418 146 464 160 528 c 1
 178 584 209 628 249 655 c 0
 289 683 338 700 389 705 c 1
 400 757 l 1
 460 757 l 1
 448 705 l 1
 502 700 544 682 571 652 c 0
 589 634 599 613 602 587 c 0
 603 558 602 534 597 512 c 1
325 400 m 1
 374 634 l 1
 345 632 316 622 289 603 c 0
 261 581 242 557 236 529 c 0
 226 494 232 467 248 444 c 0
 265 420 290 406 325 400 c 1
362 303 m 1
 309 48 l 1
 325 49 344 54 364 62 c 0
 383 68 405 81 425 103 c 0
 444 123 458 149 465 184 c 0
 474 222 468 249 448 264 c 0
 426 280 399 291 362 303 c 1
EndSplineSet
EndChar
StartChar: percent
Encoding: 7 37 7
OldEncoding: 37
Width: 872
Flags: W
HStem: -20 69<672 691> 248 68<727 744> 338 68<268 286> 605 68<321 341>
DStem: 745 696 813 696 206 -20 273 -20
Fore
745 696 m 1
 813 696 l 1
 273 -20 l 1
 206 -20 l 1
 745 696 l 1
135 505 m 0
 145 552 171 592 210 625 c 0
 251 657 294 673 341 673 c 0
 387 673 422 657 450 625 c 0
 476 592 483 552 473 505 c 0
 463 458 438 419 397 387 c 0
 357 354 315 338 270 338 c 0
 225 338 188 354 161 387 c 0
 133 419 125 458 135 505 c 0
539 149 m 0
 548 194 574 235 613 267 c 0
 654 300 696 316 744 316 c 0
 774 316 800 307 822 293 c 0
 845 278 861 260 870 232 c 0
 880 209 882 180 876 149 c 0
 866 102 841 62 800 29 c 0
 761 -3 718 -20 673 -20 c 0
 626 -20 592 -3 563 29 c 0
 538 62 529 102 539 149 c 0
204 505 m 0
 199 477 203 454 219 436 c 0
 235 416 255 406 284 406 c 0
 312 406 338 416 361 436 c 0
 384 454 399 477 405 505 c 0
 409 522 406 541 400 555 c 0
 397 570 386 583 374 592 c 0
 360 600 344 605 326 605 c 0
 297 605 273 596 249 577 c 0
 222 555 210 532 204 505 c 0
609 149 m 0
 603 122 608 97 622 78 c 0
 639 59 658 49 687 49 c 0
 715 49 741 59 763 78 c 0
 786 97 800 122 806 149 c 0
 812 177 808 200 792 218 c 0
 777 238 755 248 729 248 c 0
 700 248 677 238 652 218 c 0
 629 200 615 177 609 149 c 0
EndSplineSet
EndChar
StartChar: ampersand
Encoding: 8 38 8
OldEncoding: 38
Width: 655
Flags: W
HStem: -23 78<244 274> 629 68<426 448>
DStem: 323 329 405 373 441 133 499 213
Fore
626 0 m 1
 518 0 l 1
 473 72 l 1
 467 68 458 62 445 52 c 0
 432 41 419 33 406 25 c 0
 390 14 376 7 358 -1 c 1
 316 -16 277 -23 244 -23 c 0
 204 -23 171 -14 144 3 c 0
 94 38 71 88 84 160 c 0
 93 204 110 242 135 273 c 0
 160 302 191 329 231 352 c 2
 289 387 l 1
 267 434 l 2
 249 470 238 505 246 544 c 0
 257 594 290 639 344 670 c 0
 377 690 412 697 448 697 c 0
 492 697 526 683 551 655 c 0
 577 622 587 587 579 545 c 0
 573 518 558 492 536 467 c 0
 515 441 490 419 463 405 c 2
 405 373 l 1
 499 213 l 1
 529 255 547 293 554 328 c 1
 634 328 l 1
 628 302 615 273 596 238 c 0
 577 203 558 174 536 149 c 1
 626 0 l 1
494 589 m 0
 493 602 484 610 474 618 c 0
 463 626 447 629 428 629 c 0
 409 629 390 625 373 613 c 0
 355 602 344 587 335 566 c 1
 328 534 326 512 332 499 c 0
 338 484 351 464 370 432 c 1
 394 441 420 454 447 474 c 0
 473 493 490 518 496 545 c 0
 499 560 499 574 494 589 c 0
441 133 m 1
 323 329 l 1
 313 325 299 316 283 306 c 0
 267 297 251 286 236 274 c 0
 222 261 207 244 196 225 c 0
 183 204 174 184 170 161 c 1
 167 139 175 116 191 91 c 0
 207 67 236 55 274 55 c 0
 299 55 323 61 345 71 c 0
 368 78 400 100 441 133 c 1
EndSplineSet
EndChar
StartChar: quotesingle
Encoding: 9 39 9
OldEncoding: 39
Width: 175
VWidth: 2048
Flags: W
DStem: 196 716 278 716 173 605 255 605
Fore
165 476 m 1
 173 605 l 1
 196 716 l 1
 278 716 l 5
 255 605 l 1
 206 476 l 1
 165 476 l 1
EndSplineSet
EndChar
StartChar: parenleft
Encoding: 10 40 10
OldEncoding: 40
Width: 327
Flags: W
Fore
383 716 m 1
 439 716 l 1
 374 635 323 557 287 477 c 0
 248 396 222 320 207 254 c 0
 193 187 188 113 193 33 c 0
 194 -48 212 -129 242 -210 c 1
 186 -210 l 1
 173 -180 158 -146 145 -109 c 0
 133 -72 123 -33 117 10 c 0
 113 52 112 96 113 136 c 0
 113 178 119 218 126 254 c 0
 138 307 157 362 181 418 c 0
 210 476 239 529 274 580 c 0
 310 632 345 679 383 716 c 1
EndSplineSet
EndChar
StartChar: parenright
Encoding: 11 41 11
OldEncoding: 41
Width: 327
Flags: W
VStem: 241 78<416 465>
Fore
190 716 m 1
 244 716 l 1
 267 676 283 631 297 580 c 0
 312 529 318 474 319 416 c 0
 323 358 318 304 306 254 c 0
 296 202 278 148 249 91 c 0
 223 35 194 -20 160 -71 c 0
 123 -122 87 -168 46 -210 c 1
 -7 -210 l 1
 38 -155 75 -100 107 -42 c 0
 139 12 164 64 184 115 c 0
 202 165 216 212 225 254 c 0
 232 289 236 320 239 355 c 0
 242 390 242 426 241 465 c 0
 241 503 235 545 228 592 c 0
 218 638 204 679 190 716 c 1
EndSplineSet
EndChar
StartChar: asterisk
Encoding: 12 42 12
OldEncoding: 42
Width: 381
Flags: W
DStem: 264 567 303 536 178 480 219 445 303 536 351 567 344 444 399 478 312 728 373 728 293 618 347 618
Fore
167 597 m 1
 197 655 l 1
 293 618 l 1
 312 728 l 1
 373 728 l 1
 347 618 l 1
 455 654 l 1
 464 593 l 1
 351 567 l 1
 399 478 l 1
 344 444 l 1
 303 536 l 1
 219 445 l 1
 178 480 l 1
 264 567 l 1
 167 597 l 1
EndSplineSet
EndChar
StartChar: plus
Encoding: 13 43 13
OldEncoding: 43
Width: 572
Flags: W
HStem: 318 69<131 320 403 593>
DStem: 320 318 389 318 277 115 345 115 378 590 447 590 335 387 403 387
Fore
378 590 m 5
 447 590 l 5
 403 387 l 5
 608 387 l 5
 593 318 l 5
 389 318 l 5
 345 115 l 5
 277 115 l 5
 320 318 l 5
 117 318 l 5
 132 387 l 5
 335 387 l 5
 378 590 l 5
EndSplineSet
EndChar
StartChar: comma
Encoding: 14 44 14
OldEncoding: 44
Width: 272
Flags: W
Fore
219 49 m 0
 210 4 188 -30 157 -55 c 0
 123 -80 93 -93 61 -99 c 0
 46 -99 39 -96 41 -90 c 0
 41 -88 42 -86 46 -81 c 1
 62 -77 81 -67 104 -54 c 0
 129 -41 144 -25 152 -3 c 1
 148 -4 142 -4 138 -7 c 0
 133 -9 126 -10 120 -10 c 0
 75 -4 59 17 68 59 c 0
 71 78 83 96 97 109 c 0
 112 122 129 128 151 128 c 0
 204 128 228 102 219 49 c 0
EndSplineSet
EndChar
StartChar: hyphen
Encoding: 15 45 15
OldEncoding: 45
Width: 327
Flags: W
HStem: 236 71<111 329>
Fore
344 307 m 1
 329 236 l 1
 97 236 l 1
 112 307 l 1
 344 307 l 1
EndSplineSet
EndChar
StartChar: period
Encoding: 16 46 16
OldEncoding: 46
Width: 272
Flags: W
Fore
68 75 m 0
 72 93 83 110 100 125 c 0
 117 139 135 146 154 146 c 0
 165 146 177 142 186 136 c 0
 196 129 203 122 207 110 c 0
 210 99 212 87 209 75 c 0
 206 58 196 41 178 26 c 0
 162 12 144 4 125 4 c 0
 106 4 91 12 80 26 c 0
 68 41 65 58 68 75 c 0
EndSplineSet
EndChar
StartChar: slash
Encoding: 17 47 17
OldEncoding: 47
Width: 272
Flags: W
DStem: 373 696 426 696 -13 -22 42 -22
Fore
-13 -22 m 1
 373 696 l 1
 426 696 l 1
 42 -22 l 1
 -13 -22 l 1
EndSplineSet
EndChar
StartChar: zero
Encoding: 18 48 18
OldEncoding: 48
Width: 561
Flags: W
HStem: -25 84<271 292> 629 87<408 429>
Fore
271 -25 m 0
 236 -25 206 -16 177 1 c 0
 146 19 128 48 112 83 c 0
 102 116 97 157 100 207 c 0
 103 257 107 302 117 348 c 0
 126 392 141 438 160 487 c 0
 178 536 200 579 225 612 c 1
 255 645 284 671 323 690 c 0
 360 708 394 716 429 716 c 0
 468 716 500 708 529 690 c 0
 557 671 579 645 590 612 c 0
 610 554 610 467 586 348 c 0
 560 228 523 141 477 83 c 0
 451 48 419 19 381 1 c 0
 345 -16 309 -25 271 -25 c 0
290 59 m 0
 339 59 384 83 422 133 c 0
 429 142 439 158 450 181 c 0
 458 202 465 228 476 258 c 0
 486 287 494 318 500 345 c 0
 505 370 510 400 512 432 c 0
 516 461 518 487 519 509 c 0
 519 532 515 548 512 558 c 0
 496 608 460 629 410 629 c 0
 390 629 367 625 345 612 c 0
 322 600 300 583 283 558 c 0
 268 541 257 512 239 468 c 0
 223 425 209 383 202 345 c 0
 193 307 190 265 187 223 c 0
 183 181 184 151 193 133 c 0
 200 109 212 91 231 78 c 0
 249 65 270 59 290 59 c 0
EndSplineSet
EndChar
StartChar: one
Encoding: 19 49 19
OldEncoding: 49
Width: 561
Flags: W
HStem: 0 21G<265 351>
DStem: 373 505 503 716 265 0 351 0
Fore
351 0 m 1
 265 0 l 1
 373 505 l 1
 210 505 l 1
 225 576 l 1
 276 581 313 590 336 596 c 0
 361 605 376 616 392 632 c 0
 403 650 420 676 444 716 c 1
 503 716 l 5
 351 0 l 1
EndSplineSet
EndChar
StartChar: two
Encoding: 20 50 20
OldEncoding: 50
Width: 561
Flags: W
HStem: 0 83<145 512> 638 78<420 454>
Fore
438 293 m 2
 306 232 l 2
 280 219 249 200 213 170 c 0
 174 141 151 112 145 83 c 1
 529 83 l 1
 512 0 l 1
 33 0 l 1
 54 58 68 99 81 126 c 0
 93 152 116 181 148 210 c 0
 177 241 225 273 283 302 c 2
 406 362 l 2
 476 396 519 442 531 494 c 0
 539 525 535 552 528 576 c 0
 518 596 503 612 483 624 c 0
 464 632 442 638 420 638 c 0
 367 637 326 621 299 592 c 0
 270 561 249 521 236 468 c 1
 149 468 l 1
 160 515 177 552 194 586 c 0
 210 619 236 645 276 668 c 1
 303 687 331 700 357 705 c 0
 383 712 416 716 454 716 c 0
 512 713 555 699 586 667 c 0
 613 635 628 594 628 548 c 0
 629 529 626 515 625 502 c 0
 615 458 592 418 555 381 c 0
 516 342 476 310 438 293 c 2
EndSplineSet
EndChar
StartChar: three
Encoding: 21 51 21
OldEncoding: 51
Width: 561
Flags: W
HStem: -25 83<248 268> 329 77<312 337> 637 79<392 418>
Fore
77 209 m 1
 162 209 l 1
 161 200 160 187 160 170 c 0
 158 154 157 139 162 120 c 0
 165 103 175 90 190 78 c 1
 207 65 229 58 258 58 c 0
 374 57 447 107 465 209 c 0
 474 254 467 284 442 302 c 0
 420 319 386 329 335 329 c 0
 318 329 303 329 294 326 c 1
 312 406 l 1
 374 407 422 415 451 428 c 0
 478 442 502 474 510 523 c 0
 519 568 510 600 487 615 c 0
 465 628 434 637 392 637 c 1
 360 629 334 624 313 610 c 0
 294 599 278 584 271 570 c 0
 258 554 251 538 245 521 c 0
 241 503 238 492 236 484 c 1
 152 486 l 1
 168 560 197 615 245 657 c 0
 290 696 349 716 418 716 c 0
 460 716 496 708 526 695 c 0
 557 680 580 657 593 626 c 0
 605 594 609 558 599 512 c 0
 592 476 579 448 560 429 c 0
 539 410 512 392 484 370 c 1
 521 352 544 329 551 303 c 0
 561 277 563 242 554 199 c 0
 547 152 522 112 492 77 c 0
 461 41 420 12 370 -3 c 0
 332 -16 299 -22 268 -25 c 0
 238 -25 219 -19 204 -17 c 0
 148 -3 110 19 91 59 c 0
 75 99 68 149 77 209 c 1
EndSplineSet
EndChar
StartChar: four
Encoding: 22 52 22
OldEncoding: 52
Width: 561
Flags: W
HStem: 0 21G<336 420> 168 84<161 373 474 561>
DStem: 373 168 457 168 336 0 420 0 458 574 573 716 390 252 474 252 506 716 458 574 84 264 161 252
Fore
373 168 m 1
 64 168 l 1
 84 264 l 1
 506 716 l 1
 573 716 l 1
 474 252 l 1
 579 252 l 1
 561 168 l 1
 457 168 l 1
 420 0 l 1
 336 0 l 1
 373 168 l 1
390 252 m 1
 458 574 l 1
 161 252 l 1
 390 252 l 1
EndSplineSet
EndChar
StartChar: five
Encoding: 23 53 23
OldEncoding: 53
Width: 561
Flags: W
HStem: -25 86<279 299> 387 84<357 381> 628 88<264 618>
DStem: 264 716 318 628 128 325 245 429
Fore
209 325 m 1
 128 325 l 1
 264 716 l 1
 637 716 l 1
 618 628 l 1
 318 628 l 1
 245 429 l 1
 284 458 331 471 381 471 c 0
 418 471 448 467 474 457 c 0
 561 420 593 342 567 225 c 0
 554 173 529 128 497 91 c 0
 470 57 434 28 394 9 c 0
 364 -6 329 -16 284 -25 c 1
 248 -25 215 -19 187 -12 c 0
 157 -1 130 14 115 33 c 0
 96 51 87 67 83 86 c 0
 77 103 74 120 72 139 c 0
 74 157 72 168 72 174 c 1
 164 174 l 1
 167 144 177 119 194 94 c 0
 213 74 245 61 299 61 c 1
 383 72 436 116 463 197 c 1
 476 261 474 310 451 342 c 0
 431 373 399 387 357 387 c 0
 306 387 255 367 209 325 c 1
EndSplineSet
EndChar
StartChar: six
Encoding: 24 54 24
OldEncoding: 54
Width: 561
Flags: W
HStem: -25 80<276 297> 367 78<362 393>
Fore
616 529 m 1
 529 529 l 1
 534 554 532 579 518 596 c 0
 503 615 483 628 454 635 c 1
 378 635 320 603 278 541 c 0
 239 486 218 434 207 387 c 0
 204 378 204 370 204 362 c 1
 223 377 239 387 251 399 c 0
 264 409 274 416 290 423 c 0
 306 429 320 436 336 441 c 0
 351 444 368 445 393 445 c 0
 431 445 465 438 492 423 c 0
 519 407 539 384 552 360 c 0
 564 334 573 306 570 276 c 1
 573 260 570 241 566 218 c 0
 561 197 555 177 547 164 c 1
 531 125 512 93 484 67 c 0
 451 35 420 12 393 -1 c 0
 362 -16 320 -25 276 -25 c 0
 239 -25 209 -16 181 0 c 0
 152 14 132 35 122 61 c 1
 100 102 91 142 94 187 c 0
 97 232 106 291 122 365 c 0
 133 423 152 477 178 528 c 0
 216 593 257 641 307 670 c 0
 357 700 405 716 454 716 c 0
 506 716 548 699 580 666 c 0
 596 645 608 626 613 608 c 0
 619 590 619 563 616 529 c 1
431 117 m 0
 454 141 465 170 473 207 c 0
 481 244 480 281 467 319 c 0
 452 351 419 367 364 367 c 0
 342 367 320 362 300 352 c 0
 274 342 257 332 242 318 c 0
 212 291 191 260 183 218 c 0
 175 181 180 144 193 112 c 0
 215 75 246 55 297 55 c 0
 347 51 393 75 431 117 c 0
EndSplineSet
EndChar
StartChar: seven
Encoding: 25 55 25
OldEncoding: 55
Width: 561
Flags: W
HStem: 0 21G<139 233> 632 84<199 567>
Fore
183 632 m 1
 200 716 l 1
 677 716 l 1
 661 641 l 1
 557 528 l 2
 519 486 477 432 431 367 c 0
 354 260 286 136 233 0 c 1
 139 0 l 1
 180 91 215 158 241 202 c 0
 262 244 297 294 347 360 c 0
 378 400 422 454 473 519 c 0
 523 583 557 621 567 632 c 1
 183 632 l 1
EndSplineSet
EndChar
StartChar: eight
Encoding: 26 56 26
OldEncoding: 56
Width: 561
Flags: W
HStem: 336 76<342 352> 638 78<409 435>
Fore
283 674 m 0
 326 702 371 716 422 716 c 0
 478 716 531 703 570 674 c 0
 589 660 597 637 605 609 c 0
 610 581 610 552 605 525 c 0
 596 486 581 457 560 436 c 1
 541 416 513 396 481 377 c 1
 505 373 526 352 545 318 c 0
 564 281 568 235 558 181 c 1
 536 117 497 65 435 25 c 1
 381 -9 323 -26 262 -25 c 0
 233 -25 206 -16 177 -6 c 0
 149 3 129 19 112 41 c 0
 77 75 68 123 80 181 c 0
 87 239 110 281 139 307 c 1
 151 325 181 349 232 377 c 1
 218 392 207 399 204 406 c 0
 197 410 191 416 187 425 c 0
 183 432 180 441 174 451 c 0
 170 471 170 499 175 525 c 0
 188 586 225 637 283 674 c 0
493 612 m 0
 476 629 452 638 415 638 c 0
 377 638 344 628 316 609 c 0
 291 590 271 561 264 525 c 0
 261 515 258 499 262 478 c 0
 270 438 299 412 352 412 c 0
 407 410 450 426 478 457 c 0
 497 477 513 502 518 525 c 0
 525 561 518 592 493 612 c 0
457 286 m 0
 435 319 397 339 344 336 c 0
 290 336 249 318 215 284 c 0
 191 260 175 228 168 190 c 0
 165 149 170 120 187 103 c 1
 200 83 231 70 278 59 c 1
 315 61 349 70 383 83 c 1
 431 110 458 149 467 194 c 0
 473 216 474 233 470 248 c 0
 468 264 465 276 457 286 c 0
EndSplineSet
EndChar
StartChar: nine
Encoding: 27 57 27
OldEncoding: 57
Width: 561
Flags: W
HStem: -25 86<254 264> 244 75<315 347> 635 81<403 428>
Fore
84 158 m 1
 174 158 l 1
 170 135 174 112 190 94 c 0
 206 77 229 65 255 61 c 1
 329 61 386 90 426 148 c 0
 442 170 454 197 468 226 c 0
 480 254 492 278 496 302 c 0
 497 307 497 318 497 326 c 1
 471 300 441 277 406 261 c 0
 390 254 370 248 347 244 c 1
 316 244 291 245 270 248 c 0
 223 254 191 274 168 306 c 0
 145 335 133 370 130 412 c 0
 132 426 135 445 141 471 c 0
 144 486 149 505 157 532 c 1
 171 568 193 599 220 625 c 0
 257 658 286 683 315 696 c 0
 344 708 380 716 428 716 c 0
 506 718 558 686 584 628 c 0
 606 583 610 515 602 420 c 0
 602 407 596 384 590 354 c 0
 584 325 579 303 574 290 c 0
 563 249 547 209 525 164 c 0
 492 97 447 45 389 16 c 0
 349 -6 306 -17 264 -25 c 1
 226 -25 197 -19 175 -14 c 0
 152 -6 135 6 117 25 c 0
 88 61 80 107 84 158 c 1
274 576 m 0
 252 551 236 519 229 483 c 0
 220 444 223 407 236 370 c 0
 252 336 286 318 341 319 c 0
 362 319 387 326 407 336 c 0
 431 348 450 360 463 373 c 1
 493 399 512 429 521 470 c 0
 529 509 525 545 509 579 c 0
 503 594 490 609 471 619 c 0
 452 628 434 635 409 635 c 0
 354 635 312 615 274 576 c 0
EndSplineSet
EndChar
StartChar: colon
Encoding: 28 58 28
OldEncoding: 58
Width: 272
Flags: W
HStem: 12 140<145 174> 425 141<232 262>
Fore
90 81 m 0
 94 100 103 116 120 130 c 0
 139 146 157 152 174 152 c 0
 187 152 199 149 207 142 c 0
 218 138 225 128 228 116 c 0
 232 104 233 93 231 81 c 0
 226 64 216 48 199 33 c 0
 181 17 164 12 145 12 c 0
 128 12 113 17 100 33 c 0
 88 48 86 64 90 81 c 0
177 494 m 0
 181 513 191 531 209 545 c 0
 228 558 245 566 262 566 c 0
 283 566 297 558 309 545 c 1
 319 531 322 513 318 494 c 0
 315 477 304 461 286 445 c 0
 268 431 251 425 232 425 c 0
 215 425 200 431 187 445 c 0
 177 461 174 477 177 494 c 0
EndSplineSet
EndChar
StartChar: semicolon
Encoding: 29 59 29
OldEncoding: 59
Width: 272
Flags: W
HStem: -10 138<126 157> 418 140<204 235>
Fore
225 49 m 0
 216 4 196 -30 162 -55 c 0
 130 -80 99 -93 68 -99 c 0
 54 -99 45 -96 46 -90 c 0
 46 -88 48 -86 54 -81 c 1
 70 -77 87 -67 112 -54 c 0
 135 -41 151 -25 160 -3 c 1
 154 -4 149 -4 145 -7 c 0
 138 -9 132 -10 126 -10 c 0
 83 -4 67 17 75 59 c 0
 78 78 88 96 103 109 c 0
 117 122 136 128 157 128 c 0
 212 128 235 102 225 49 c 0
151 489 m 0
 154 506 164 522 181 538 c 0
 199 552 218 558 235 558 c 0
 246 558 257 555 268 550 c 0
 277 542 286 534 289 522 c 0
 293 513 294 502 291 489 c 0
 287 470 277 454 258 439 c 0
 241 425 223 418 204 418 c 0
 187 418 171 425 160 439 c 0
 149 454 146 470 151 489 c 0
EndSplineSet
EndChar
StartChar: less
Encoding: 30 60 30
OldEncoding: 60
Width: 572
Flags: W
DStem: 113 319 212 354 550 116 566 194 651 592 634 513 128 389 212 354
Fore
651 592 m 5
 634 513 l 5
 212 354 l 5
 566 194 l 5
 550 116 l 5
 113 319 l 5
 128 389 l 5
 651 592 l 5
EndSplineSet
EndChar
StartChar: equal
Encoding: 31 61 31
OldEncoding: 61
Width: 572
Flags: W
HStem: 235 68<112 574> 402 68<148 610>
Fore
149 470 m 5
 625 470 l 5
 610 402 l 5
 135 402 l 5
 149 470 l 5
113 303 m 5
 589 303 l 5
 574 235 l 5
 99 235 l 5
 113 303 l 5
EndSplineSet
EndChar
StartChar: greater
Encoding: 32 62 32
OldEncoding: 62
Width: 572
Flags: W
DStem: 158 513 175 592 509 354 612 389 509 354 597 319 90 194 74 116
Fore
612 389 m 5
 597 319 l 5
 74 116 l 5
 90 194 l 5
 509 354 l 5
 158 513 l 5
 175 592 l 5
 612 389 l 5
EndSplineSet
EndChar
StartChar: question
Encoding: 33 63 33
OldEncoding: 63
Width: 546
Flags: W
HStem: 0 21G<236 326> 494 21G<180 265> 651 75<427 451>
DStem: 258 102 348 102 236 0 326 0
Fore
367 191 m 1
 277 191 l 1
 290 251 l 2
 296 278 309 304 332 328 c 0
 355 352 380 374 407 394 c 0
 420 405 431 413 441 420 c 0
 470 445 l 0
 480 455 487 465 494 474 c 0
 510 500 523 522 526 542 c 0
 532 564 529 581 523 597 c 0
 516 615 506 628 490 638 c 0
 474 645 452 651 429 651 c 0
 399 651 371 644 351 632 c 0
 329 621 313 605 300 587 c 0
 287 568 281 551 277 532 c 0
 271 515 270 503 265 494 c 1
 180 494 l 1
 190 538 204 577 226 610 c 0
 248 645 276 671 315 693 c 0
 352 715 396 726 451 726 c 0
 465 726 477 726 484 724 c 0
 526 719 558 706 577 684 c 0
 599 666 612 642 615 616 c 0
 621 590 621 564 615 538 c 0
 609 515 600 493 590 471 c 0
 576 441 529 396 454 339 c 0
 435 325 419 312 406 297 c 0
 390 281 381 262 377 238 c 2
 367 191 l 1
236 0 m 1
 258 102 l 1
 348 102 l 1
 326 0 l 1
 236 0 l 1
EndSplineSet
EndChar
StartChar: at
Encoding: 34 64 34
OldEncoding: 64
Width: 997
Flags: W
HStem: -144 73<444 481> 52 70<680 721> 441 72<600 621>
DStem: 758 490 840 490 722 425 682 194
Fore
840 490 m 1
 682 194 l 2
 673 180 670 171 668 165 c 0
 667 157 670 148 671 139 c 0
 679 128 695 122 721 122 c 1
 750 128 776 139 802 157 c 0
 828 175 847 193 863 213 c 0
 899 260 924 315 938 380 c 1
 940 406 935 434 927 465 c 0
 918 496 906 521 893 539 c 0
 879 558 853 580 816 602 c 0
 779 622 742 638 702 645 c 0
 682 648 663 651 642 651 c 0
 599 651 554 642 510 626 c 0
 465 609 426 589 390 564 c 0
 348 534 310 500 278 463 c 0
 245 425 222 392 207 364 c 0
 194 332 181 302 175 273 c 0
 164 218 164 165 177 116 c 0
 186 86 204 55 233 28 c 0
 262 -1 296 -28 339 -48 c 0
 377 -64 418 -71 465 -71 c 0
 525 -71 590 -59 666 -36 c 1
 680 -102 l 1
 597 -129 521 -144 448 -144 c 0
 396 -144 345 -136 299 -119 c 0
 262 -106 222 -81 177 -46 c 0
 133 -10 103 30 90 77 c 0
 74 130 74 191 88 260 c 0
 97 297 107 329 122 357 c 0
 146 405 178 454 218 502 c 0
 257 550 304 592 361 628 c 0
 390 645 422 664 458 679 c 0
 497 693 535 705 576 713 c 0
 615 721 654 726 695 724 c 0
 744 722 795 708 850 683 c 0
 905 658 942 625 970 583 c 0
 989 557 1005 528 1012 492 c 0
 1021 454 1022 419 1016 386 c 0
 1008 339 995 303 982 277 c 0
 969 252 951 225 929 197 c 0
 911 173 887 146 858 119 c 0
 831 96 796 74 755 62 c 0
 729 54 705 52 680 52 c 0
 658 52 642 54 634 58 c 0
 616 62 605 72 596 87 c 0
 587 100 583 113 583 126 c 1
 561 106 l 0
 551 99 541 91 531 86 c 0
 516 77 499 71 481 65 c 0
 465 61 447 58 428 58 c 0
 407 58 390 61 376 67 c 0
 348 78 334 93 325 110 c 0
 316 125 309 144 303 167 c 0
 302 188 302 212 307 236 c 0
 312 257 318 276 326 293 c 0
 358 364 407 425 476 467 c 0
 526 500 576 513 621 513 c 0
 634 513 645 512 654 508 c 0
 676 502 692 490 705 474 c 0
 715 455 721 439 722 425 c 1
 758 490 l 1
 840 490 l 1
674 370 m 0
 677 389 676 403 670 413 c 0
 664 423 650 431 631 436 c 0
 622 439 613 441 602 441 c 0
 579 441 555 434 531 420 c 0
 508 407 489 393 471 376 c 0
 454 357 439 335 426 307 c 0
 412 283 403 260 399 236 c 0
 392 206 393 180 407 157 c 0
 420 133 441 119 468 119 c 0
 477 119 487 122 494 123 c 0
 523 130 554 151 583 186 c 1
 602 204 618 232 638 270 c 0
 655 306 668 339 674 370 c 0
EndSplineSet
EndChar
StartChar: A
Encoding: 35 65 35
OldEncoding: 65
Width: 655
Flags: W
HStem: 0 21G<16 115 539 642> 215 76<278 510>
DStem: 429 716 461 605 16 0 278 291 429 716 236 215 16 0 115 0 461 605 542 716 502 291 642 0 510 215 542 716 539 0 642 0
Fore
236 215 m 1
 115 0 l 1
 16 0 l 1
 429 716 l 1
 542 716 l 1
 642 0 l 1
 539 0 l 1
 510 215 l 1
 236 215 l 1
461 605 m 1
 278 291 l 1
 502 291 l 1
 461 605 l 1
EndSplineSet
EndChar
StartChar: B
Encoding: 36 66 36
OldEncoding: 66
Width: 655
Flags: W
HStem: 0 81<188 433> 328 81<258 450> 635 81<229 478>
DStem: 229 716 306 635 77 0 258 409 229 716 241 328 77 0 188 81
Fore
431 0 m 2
 77 0 l 1
 229 716 l 1
 547 716 l 2
 571 716 596 710 619 700 c 0
 641 689 658 676 671 657 c 0
 693 632 703 600 699 558 c 1
 679 465 638 406 571 380 c 1
 581 376 592 370 602 364 c 0
 612 357 624 348 634 335 c 0
 644 320 652 303 657 280 c 0
 663 255 661 228 654 193 c 0
 642 151 625 115 597 87 c 0
 570 59 541 38 509 23 c 0
 478 9 452 0 431 0 c 2
306 635 m 1
 258 409 l 1
 448 409 l 2
 494 409 532 420 555 444 c 0
 579 468 594 502 602 542 c 1
 605 577 590 602 558 616 c 0
 526 629 497 635 473 635 c 2
 306 635 l 1
241 328 m 1
 188 81 l 1
 419 81 l 2
 460 81 494 96 518 123 c 0
 544 151 560 186 568 226 c 1
 573 267 563 293 536 307 c 0
 512 320 473 328 420 328 c 2
 241 328 l 1
EndSplineSet
EndChar
StartChar: C
Encoding: 37 67 37
OldEncoding: 67
Width: 709
Flags: W
HStem: -23 84<355 380> 494 21G<661 757> 645 84<493 527>
Fore
757 494 m 1
 661 494 l 1
 657 529 647 555 637 577 c 0
 628 592 616 605 600 615 c 0
 586 626 571 634 555 639 c 0
 539 644 523 645 503 645 c 0
 474 645 444 639 413 628 c 0
 383 616 357 600 334 577 c 0
 306 551 281 518 261 478 c 0
 241 438 225 394 216 352 c 0
 206 310 206 268 210 229 c 0
 215 188 222 155 238 129 c 0
 265 84 312 61 378 61 c 0
 441 61 494 84 541 129 c 0
 555 144 571 164 587 188 c 0
 603 213 618 238 626 262 c 1
 721 262 l 1
 689 175 638 104 568 51 c 0
 548 35 519 17 477 1 c 0
 436 -14 396 -23 357 -23 c 0
 315 -23 278 -14 244 1 c 0
 209 16 186 33 171 51 c 0
 141 88 120 135 115 188 c 0
 106 242 112 297 123 352 c 0
 135 409 154 464 184 518 c 0
 213 571 254 618 300 655 c 0
 322 673 352 690 393 705 c 0
 434 719 474 729 516 729 c 0
 555 729 592 719 626 705 c 0
 661 690 684 673 697 655 c 0
 732 618 751 564 757 494 c 1
EndSplineSet
EndChar
StartChar: D
Encoding: 38 68 38
OldEncoding: 68
Width: 709
Flags: W
HStem: 0 81<197 415> 635 81<239 504>
DStem: 239 716 315 635 87 0 197 81
Fore
415 0 m 2
 87 0 l 1
 239 716 l 1
 516 716 l 2
 593 716 652 690 696 639 c 0
 740 587 754 515 742 425 c 0
 738 392 734 368 731 355 c 0
 709 252 667 168 603 106 c 0
 567 71 532 45 497 28 c 0
 463 10 436 0 415 0 c 2
490 635 m 2
 315 635 l 1
 197 81 l 1
 397 81 l 2
 422 81 448 87 474 97 c 0
 490 103 512 119 536 144 c 0
 564 171 579 191 587 210 c 0
 609 260 628 307 639 355 c 0
 658 438 657 500 641 544 c 0
 616 605 566 635 490 635 c 2
EndSplineSet
EndChar
StartChar: E
Encoding: 39 69 39
OldEncoding: 69
Width: 655
Flags: W
HStem: 0 81<197 603> 328 81<267 639> 635 81<241 722>
DStem: 241 716 315 635 88 0 267 409 241 716 249 328 88 0 197 81
Fore
88 0 m 1
 241 716 l 1
 740 716 l 1
 722 635 l 1
 315 635 l 1
 267 409 l 1
 657 409 l 1
 639 328 l 1
 249 328 l 1
 197 81 l 1
 621 81 l 1
 603 0 l 1
 88 0 l 1
EndSplineSet
EndChar
StartChar: F
Encoding: 40 70 40
OldEncoding: 70
Width: 600
Flags: W
HStem: 0 21G<88 180> 328 81<267 590> 635 81<241 703>
DStem: 241 716 315 635 88 0 267 409 241 716 249 328 88 0 180 0
Fore
88 0 m 1
 241 716 l 1
 721 716 l 1
 703 635 l 1
 315 635 l 1
 267 409 l 1
 608 409 l 1
 590 328 l 1
 249 328 l 1
 180 0 l 1
 88 0 l 1
EndSplineSet
EndChar
StartChar: G
Encoding: 41 71 41
OldEncoding: 71
Width: 764
Flags: W
HStem: -23 81<360 403> 299 81<476 679> 500 21G<703 795> 645 84<520 545>
Fore
460 299 m 1
 477 380 l 1
 777 380 l 1
 696 -3 l 1
 638 -3 l 1
 635 86 l 1
 586 49 542 22 505 3 c 0
 468 -14 420 -23 360 -23 c 0
 326 -23 291 -14 257 0 c 0
 222 14 196 29 178 46 c 0
 142 84 120 130 112 186 c 0
 103 239 103 294 116 351 c 0
 125 387 139 423 155 458 c 0
 170 494 191 531 218 566 c 0
 242 600 273 629 307 655 c 0
 334 673 365 690 410 705 c 0
 454 719 499 729 545 729 c 0
 610 731 658 719 692 700 c 0
 738 671 768 641 782 606 c 0
 793 571 798 538 795 500 c 1
 703 500 l 1
 709 534 697 568 667 600 c 0
 635 631 589 645 528 645 c 0
 494 645 461 639 426 628 c 0
 393 616 364 600 338 577 c 0
 307 552 283 519 258 478 c 0
 235 438 220 394 210 351 c 0
 202 307 199 267 204 226 c 0
 212 186 222 152 241 126 c 0
 277 80 329 58 403 58 c 0
 454 58 496 68 534 91 c 0
 564 110 587 128 608 148 c 0
 625 165 639 186 648 204 c 0
 658 223 666 239 668 254 c 0
 671 267 674 281 679 299 c 1
 460 299 l 1
EndSplineSet
EndChar
StartChar: H
Encoding: 42 72 42
OldEncoding: 72
Width: 709
Flags: W
HStem: 0 21G<81 174 541 632> 328 81<261 610>
DStem: 233 716 326 716 81 0 261 409 233 716 244 328 81 0 174 0 610 328 784 716 541 0 632 0 693 716 784 716 628 409 632 0
Fore
541 0 m 1
 610 328 l 1
 244 328 l 1
 174 0 l 1
 81 0 l 1
 233 716 l 1
 326 716 l 1
 261 409 l 1
 628 409 l 1
 693 716 l 1
 784 716 l 1
 632 0 l 1
 541 0 l 1
EndSplineSet
EndChar
StartChar: I
Encoding: 43 73 43
OldEncoding: 73
Width: 272
Flags: W
HStem: 0 21G<99 190>
DStem: 251 716 342 716 99 0 190 0
Fore
99 0 m 1
 251 716 l 1
 342 716 l 5
 190 0 l 1
 99 0 l 1
EndSplineSet
EndChar
StartChar: J
Encoding: 44 74 44
OldEncoding: 74
Width: 491
Flags: W
DStem: 478 716 571 716 376 229 451 149
Fore
64 228 m 1
 158 228 l 1
 144 155 l 2
 138 130 139 110 151 93 c 0
 160 77 177 65 197 61 c 0
 207 59 218 58 223 58 c 0
 261 58 294 72 323 100 c 0
 342 119 361 162 376 229 c 2
 478 716 l 1
 571 716 l 1
 451 149 l 1
 428 86 387 36 329 3 c 0
 299 -14 249 -25 186 -23 c 0
 125 -22 86 1 67 39 c 0
 45 78 41 116 48 152 c 2
 64 228 l 1
EndSplineSet
EndChar
StartChar: K
Encoding: 45 75 45
OldEncoding: 75
Width: 655
Flags: W
HStem: 0 21G<77 171 538 644>
DStem: 229 716 323 716 77 0 248 362 229 716 223 244 77 0 171 0 365 361 441 425 538 0 644 0 679 716 799 716 248 362 441 425
Fore
229 716 m 1
 323 716 l 1
 248 362 l 1
 679 716 l 1
 799 716 l 1
 441 425 l 1
 644 0 l 1
 538 0 l 1
 365 361 l 1
 223 244 l 1
 171 0 l 1
 77 0 l 1
 229 716 l 1
EndSplineSet
EndChar
StartChar: L
Encoding: 46 76 46
OldEncoding: 76
Width: 546
Flags: W
HStem: 0 81<188 525>
DStem: 231 716 323 716 78 0 188 81
Fore
231 716 m 1
 323 716 l 1
 188 81 l 1
 542 81 l 1
 525 0 l 1
 78 0 l 1
 231 716 l 1
EndSplineSet
EndChar
StartChar: M
Encoding: 47 77 47
OldEncoding: 77
Width: 819
Flags: W
HStem: 0 21G<74 168 364 458 654 748>
DStem: 226 716 291 581 74 0 168 0 291 581 357 716 364 0 435 106 770 716 777 581 435 106 458 0 777 581 900 716 654 0 748 0
Fore
458 0 m 1
 364 0 l 1
 291 581 l 1
 168 0 l 1
 74 0 l 1
 226 716 l 1
 357 716 l 1
 435 106 l 1
 770 716 l 1
 900 716 l 1
 748 0 l 1
 654 0 l 1
 777 581 l 1
 458 0 l 1
EndSplineSet
EndChar
StartChar: N
Encoding: 48 78 48
OldEncoding: 78
Width: 709
Flags: W
HStem: 0 21G<75 167 529 635>
DStem: 228 716 289 574 75 0 167 0 289 574 336 716 529 0 571 136 695 716 787 716 571 136 635 0
Fore
635 0 m 1
 529 0 l 1
 289 574 l 1
 167 0 l 1
 75 0 l 1
 228 716 l 1
 336 716 l 1
 571 136 l 1
 695 716 l 1
 787 716 l 1
 635 0 l 1
EndSplineSet
EndChar
StartChar: O
Encoding: 49 79 49
OldEncoding: 79
Width: 764
Flags: W
HStem: -23 84<373 405> 645 84<513 540>
Fore
538 729 m 0
 583 729 624 719 663 705 c 0
 700 690 728 673 742 655 c 0
 777 618 799 571 808 518 c 0
 818 464 816 409 805 352 c 0
 793 297 770 242 738 188 c 0
 708 135 666 88 613 51 c 0
 592 35 558 17 513 1 c 0
 468 -14 423 -23 378 -23 c 0
 335 -23 294 -14 255 1 c 0
 218 16 193 33 174 51 c 0
 138 88 117 135 109 188 c 0
 99 242 102 297 113 352 c 0
 120 387 132 423 149 461 c 0
 165 499 186 534 212 568 c 0
 238 602 270 631 303 655 c 0
 329 673 361 690 405 705 c 0
 450 719 494 729 538 729 c 0
521 645 m 0
 489 645 455 639 422 628 c 0
 387 616 358 600 334 577 c 0
 303 552 277 519 254 478 c 0
 232 439 215 396 206 352 c 0
 196 307 194 267 200 228 c 0
 206 188 219 155 238 129 c 0
 270 84 323 61 396 61 c 0
 470 61 532 84 584 129 c 0
 615 154 639 187 663 228 c 0
 684 267 700 307 710 352 c 0
 719 396 721 439 716 478 c 0
 710 519 699 552 680 577 c 0
 664 597 642 616 613 628 c 0
 586 639 555 645 521 645 c 0
EndSplineSet
EndChar
StartChar: P
Encoding: 50 80 50
OldEncoding: 80
Width: 655
Flags: W
HStem: 0 21G<90 181> 303 83<264 501> 635 81<242 539>
DStem: 242 716 316 635 90 0 264 386 242 716 245 303 90 0 181 0
Fore
90 0 m 1
 242 716 l 1
 542 716 l 2
 596 716 641 703 676 677 c 0
 712 651 725 606 719 542 c 0
 719 534 716 521 713 506 c 0
 700 441 670 390 621 355 c 0
 573 320 528 303 483 303 c 2
 245 303 l 1
 181 0 l 1
 90 0 l 1
316 635 m 1
 264 386 l 1
 499 386 l 2
 516 386 538 396 567 418 c 0
 594 439 615 471 624 518 c 0
 631 563 621 592 597 609 c 0
 577 628 551 635 523 635 c 2
 316 635 l 1
EndSplineSet
EndChar
StartChar: Q
Encoding: 51 81 51
OldEncoding: 81
Width: 764
Flags: W
HStem: -23 84<373 398> 645 84<513 540>
DStem: 457 146 513 202 518 87 587 129 577 26 644 75 660 -58 721 0
Fore
644 75 m 1
 721 0 l 1
 660 -58 l 1
 577 26 l 1
 510 -4 442 -22 378 -23 c 0
 335 -23 294 -14 255 1 c 0
 218 16 193 33 174 51 c 0
 138 88 117 135 109 188 c 0
 99 242 102 297 113 352 c 0
 120 387 132 423 149 461 c 0
 165 499 186 534 212 568 c 0
 238 602 270 631 303 655 c 0
 329 673 361 690 405 705 c 0
 450 719 494 729 538 729 c 0
 583 729 624 719 663 705 c 0
 700 690 728 673 742 655 c 0
 777 618 799 571 808 518 c 0
 818 464 816 409 805 352 c 0
 793 302 774 251 748 202 c 0
 721 152 686 110 644 75 c 1
518 87 m 1
 457 146 l 1
 513 202 l 1
 587 129 l 1
 606 146 624 165 641 190 c 0
 655 215 671 239 684 267 c 0
 695 294 703 323 710 352 c 0
 719 396 721 439 716 478 c 0
 710 519 699 552 680 577 c 0
 664 597 642 616 613 628 c 0
 586 639 555 645 521 645 c 0
 489 645 455 639 422 628 c 0
 387 616 358 600 334 577 c 0
 303 552 277 519 254 478 c 0
 232 439 215 396 206 352 c 0
 196 307 194 267 200 228 c 0
 206 188 219 155 238 129 c 0
 270 84 323 61 396 61 c 0
 438 61 478 68 518 87 c 1
EndSplineSet
EndChar
StartChar: R
Encoding: 52 82 52
OldEncoding: 82
Width: 709
Flags: W
HStem: 0 21G<91 184 557 667> 307 83<267 508> 635 81<244 571>
DStem: 244 716 319 635 91 0 267 390 244 716 249 307 91 0 184 0
Fore
91 0 m 1
 244 716 l 1
 564 716 l 2
 631 716 684 706 721 682 c 0
 755 658 767 608 754 534 c 0
 747 489 732 454 712 429 c 0
 695 406 663 381 621 354 c 1
 652 331 671 310 677 290 c 0
 679 268 677 229 666 171 c 0
 657 123 651 90 652 71 c 0
 652 51 660 35 671 23 c 1
 667 0 l 1
 557 0 l 1
 551 22 552 52 555 90 c 1
 574 174 l 2
 583 216 581 249 571 274 c 0
 563 297 532 307 484 307 c 2
 249 307 l 1
 184 0 l 1
 91 0 l 1
550 635 m 2
 319 635 l 1
 267 390 l 1
 497 390 l 2
 577 390 629 426 652 499 c 1
 673 590 638 635 550 635 c 2
EndSplineSet
EndChar
StartChar: S
Encoding: 53 83 53
OldEncoding: 83
Width: 655
Flags: W
HStem: -23 84<321 378> 651 78<439 476>
Fore
695 508 m 1
 606 508 l 1
 618 558 603 596 566 622 c 0
 550 634 531 642 515 645 c 0
 496 648 477 651 452 651 c 0
 402 651 362 639 331 615 c 0
 299 590 276 563 270 531 c 0
 267 516 268 502 273 489 c 0
 278 476 287 464 300 454 c 0
 323 438 358 429 400 418 c 0
 497 393 551 376 567 370 c 0
 596 358 622 338 639 306 c 0
 655 276 663 244 655 210 c 0
 648 162 625 119 594 86 c 0
 561 51 521 23 476 4 c 0
 426 -13 377 -23 323 -23 c 0
 270 -22 228 -14 197 -1 c 0
 164 10 135 33 115 67 c 0
 97 96 88 119 88 141 c 0
 87 162 90 191 96 228 c 1
 181 228 l 1
 174 193 177 161 190 128 c 0
 202 93 233 72 286 64 c 0
 300 62 331 61 378 61 c 1
 426 65 461 77 487 96 c 0
 525 122 547 152 555 190 c 0
 563 223 552 251 522 276 c 1
 490 293 442 306 381 320 c 0
 335 331 309 341 299 345 c 0
 286 351 267 357 245 365 c 0
 191 383 168 426 178 496 c 1
 187 541 204 580 231 616 c 0
 255 651 287 679 329 700 c 0
 368 719 416 729 468 729 c 0
 544 729 597 716 634 692 c 0
 692 648 712 589 695 508 c 1
EndSplineSet
EndChar
StartChar: T
Encoding: 54 84 54
OldEncoding: 84
Width: 600
Flags: W
HStem: 0 21G<257 349> 635 81<173 392 174 718>
DStem: 392 635 484 635 257 0 349 0
Fore
257 0 m 1
 392 635 l 1
 157 635 l 1
 174 716 l 1
 735 716 l 1
 718 635 l 1
 484 635 l 1
 349 0 l 1
 257 0 l 1
EndSplineSet
EndChar
StartChar: U
Encoding: 55 85 55
OldEncoding: 85
Width: 709
Flags: W
HStem: -23 78<345 379>
DStem: 236 716 328 716 126 200 219 204 695 716 786 716 586 204 676 200
Fore
236 716 m 1
 328 716 l 1
 219 204 l 2
 212 168 219 135 241 103 c 0
 265 72 306 55 370 55 c 0
 435 55 484 72 521 103 c 0
 557 135 579 168 586 204 c 2
 695 716 l 1
 786 716 l 1
 676 200 l 2
 671 178 663 155 648 130 c 0
 637 106 615 81 590 58 c 0
 563 33 529 14 490 0 c 0
 451 -14 405 -23 354 -23 c 0
 289 -23 236 -12 202 13 c 0
 165 38 142 68 132 103 c 0
 120 138 120 168 126 200 c 2
 236 716 l 1
EndSplineSet
EndChar
StartChar: V
Encoding: 56 86 56
OldEncoding: 86
Width: 655
Flags: W
HStem: 0 21G<283 381>
DStem: 181 716 280 716 283 0 360 110
Fore
360 110 m 1
 689 716 l 1
 786 716 l 1
 381 0 l 1
 283 0 l 1
 181 716 l 1
 280 716 l 1
 360 110 l 1
EndSplineSet
EndChar
StartChar: W
Encoding: 57 87 57
OldEncoding: 87
Width: 926
Flags: W
HStem: 0 21G<203 303 629 731>
DStem: 568 716 589 583 286 139 303 0 589 583 668 716 629 0 705 139
Fore
705 139 m 1
 963 716 l 1
 1064 716 l 1
 731 0 l 1
 629 0 l 1
 589 583 l 1
 303 0 l 1
 203 0 l 1
 174 716 l 1
 277 716 l 1
 286 139 l 1
 568 716 l 1
 668 716 l 1
 705 139 l 1
EndSplineSet
EndChar
StartChar: X
Encoding: 58 88 58
OldEncoding: 88
Width: 655
Flags: W
HStem: 0 21G<22 136 525 638>
DStem: 191 716 303 716 352 367 426 442 352 367 394 291 22 0 136 0 394 291 467 367 525 0 638 0 668 716 780 716 426 442 467 367
Fore
780 716 m 1
 467 367 l 1
 638 0 l 1
 525 0 l 1
 394 291 l 1
 136 0 l 1
 22 0 l 1
 352 367 l 1
 191 716 l 1
 303 716 l 1
 426 442 l 1
 668 716 l 1
 780 716 l 1
EndSplineSet
EndChar
StartChar: Y
Encoding: 59 89 59
OldEncoding: 89
Width: 655
Flags: W
HStem: 0 21G<287 380>
DStem: 347 280 439 280 287 0 380 0
Fore
165 716 m 1
 278 716 l 1
 410 368 l 1
 690 716 l 1
 803 716 l 1
 439 280 l 1
 380 0 l 1
 287 0 l 1
 347 280 l 1
 165 716 l 1
EndSplineSet
MinimumDistance: x0,4 
EndChar
StartChar: Z
Encoding: 60 90 60
OldEncoding: 90
Width: 600
Flags: W
HStem: 0 81<161 574> 635 81<209 590>
DStem: 590 635 706 632 44 78 161 81
Fore
193 635 m 1
 210 716 l 1
 724 716 l 1
 706 632 l 1
 161 81 l 1
 592 81 l 1
 574 0 l 1
 28 0 l 1
 44 78 l 1
 590 635 l 1
 193 635 l 1
EndSplineSet
EndChar
StartChar: bracketleft
Encoding: 61 91 61
OldEncoding: 91
Width: 272
Flags: W
HStem: -210 74<117 202> 642 74<215 383>
DStem: 215 716 283 642 17 -210 117 -136
Fore
215 716 m 1
 399 716 l 1
 383 642 l 1
 283 642 l 1
 117 -136 l 1
 218 -136 l 1
 202 -210 l 1
 17 -210 l 1
 215 716 l 1
EndSplineSet
EndChar
StartChar: backslash
Encoding: 62 92 62
OldEncoding: 92
Width: 272
Flags: W
DStem: 144 716 199 716 220 -20 274 -20
Fore
220 -20 m 1
 144 716 l 1
 199 716 l 1
 274 -20 l 1
 220 -20 l 1
EndSplineSet
EndChar
StartChar: bracketright
Encoding: 63 93 63
OldEncoding: 93
Width: 272
Flags: W
HStem: -212 74<-7 160> 642 74<174 258>
DStem: 258 642 357 716 93 -138 160 -212
Fore
160 642 m 1
 175 716 l 1
 357 716 l 1
 160 -212 l 1
 -22 -212 l 1
 -6 -138 l 1
 93 -138 l 1
 258 642 l 1
 160 642 l 1
EndSplineSet
EndChar
StartChar: asciicircum
Encoding: 64 94 64
OldEncoding: 94
Width: 459
Flags: W
DStem: 344 702 361 618 112 328 181 328 361 618 416 702 419 328 487 328
Fore
112 328 m 1
 344 702 l 1
 416 702 l 1
 487 328 l 1
 419 328 l 1
 361 618 l 1
 181 328 l 1
 112 328 l 1
EndSplineSet
EndChar
StartChar: underscore
Encoding: 65 95 65
OldEncoding: 95
Width: 546
Flags: W
HStem: -173 50<-49 532>
Fore
542 -123 m 1
 532 -173 l 1
 -58 -173 l 1
 -48 -123 l 1
 542 -123 l 1
EndSplineSet
EndChar
StartChar: grave
Encoding: 66 96 66
OldEncoding: 96
Width: 263
VWidth: 2048
Flags: W
HStem: 586 130<193 339>
Fore
339 586 m 1
 273 586 l 1
 193 716 l 5
 304 716 l 1
 339 586 l 1
EndSplineSet
EndChar
StartChar: a
Encoding: 67 97 67
OldEncoding: 97
Width: 546
Flags: W
HStem: -23 71<218 226> 362 21G<142 219>
DStem: 435 252 558 423 413 149 484 77
Fore
558 423 m 2
 484 77 l 2
 483 68 487 62 494 55 c 0
 503 51 518 48 536 48 c 1
 523 -13 l 1
 452 -23 l 1
 412 -10 392 14 397 52 c 1
 360 28 329 10 306 -1 c 0
 283 -13 251 -23 218 -23 c 0
 158 -25 117 -9 93 20 c 0
 68 48 58 88 70 139 c 0
 78 178 99 209 123 229 c 0
 146 249 174 264 207 274 c 0
 233 281 258 287 280 290 c 0
 302 293 326 297 354 299 c 0
 380 300 396 302 405 303 c 0
 435 312 451 325 454 342 c 2
 467 405 l 1
 468 420 457 436 432 444 c 0
 407 454 374 458 336 457 c 0
 276 455 238 423 219 362 c 1
 142 362 l 1
 154 406 l 1
 162 426 175 445 196 464 c 0
 215 481 235 496 261 508 c 0
 286 519 318 526 360 531 c 1
 400 531 432 528 460 522 c 0
 490 515 519 503 536 484 c 0
 555 468 563 447 558 423 c 2
413 149 m 2
 435 252 l 1
 415 244 392 239 367 236 c 0
 341 231 313 228 286 223 c 0
 257 218 233 212 219 206 c 0
 209 202 194 193 180 180 c 0
 167 168 160 154 155 136 c 0
 149 106 154 86 167 71 c 0
 183 55 202 48 226 48 c 0
 260 46 290 54 318 67 c 0
 345 80 368 96 384 112 c 0
 403 129 412 141 413 149 c 2
EndSplineSet
EndChar
StartChar: b
Encoding: 68 98 68
OldEncoding: 98
Width: 546
Flags: W
HStem: -23 78<280 293> 447 84<371 407>
VStem: 484 96<328 341>
DStem: 204 716 289 716 52 0 233 454
Fore
204 716 m 1
 289 716 l 1
 233 454 l 1
 244 470 264 484 290 500 c 0
 306 508 325 516 344 522 c 0
 362 528 386 531 407 531 c 0
 467 531 513 509 544 465 c 0
 557 451 566 431 570 409 c 0
 577 389 581 365 580 341 c 0
 580 316 576 289 570 261 c 0
 567 244 564 231 561 223 c 0
 548 173 523 128 494 88 c 0
 464 48 428 16 387 -1 c 0
 349 -17 315 -23 281 -23 c 0
 244 -23 215 -16 197 -1 c 0
 164 23 145 42 138 58 c 1
 125 0 l 1
 52 0 l 1
 204 716 l 1
399 103 m 0
 436 144 461 194 476 257 c 0
 481 287 484 315 484 339 c 0
 483 364 477 381 470 396 c 1
 455 431 423 450 371 447 c 0
 326 447 290 429 260 399 c 0
 246 383 232 364 219 336 c 0
 204 306 194 277 187 246 c 0
 177 197 178 152 194 112 c 0
 207 78 238 61 280 55 c 1
 331 55 371 72 399 103 c 0
EndSplineSet
EndChar
StartChar: c
Encoding: 69 99 69
OldEncoding: 99
Width: 491
Flags: W
HStem: -23 78<244 278> 455 76<360 375>
Fore
428 178 m 1
 506 178 l 1
 496 136 480 102 457 74 c 0
 432 42 399 17 361 1 c 0
 323 -14 283 -25 244 -23 c 0
 204 -23 171 -10 141 9 c 0
 112 26 93 52 84 87 c 0
 71 136 71 194 86 262 c 0
 106 341 145 406 203 461 c 0
 251 506 307 529 373 531 c 0
 402 531 428 528 451 519 c 0
 476 512 494 500 508 484 c 1
 526 474 536 454 541 429 c 0
 547 405 547 376 541 342 c 1
 460 342 l 1
 460 370 460 392 455 406 c 0
 450 419 441 431 425 439 c 0
 403 451 380 455 360 455 c 0
 322 454 283 436 246 402 c 0
 219 377 193 335 177 274 c 0
 160 206 160 160 168 135 c 0
 183 81 220 54 278 55 c 0
 300 55 320 62 344 74 c 0
 364 86 378 97 389 112 c 0
 407 136 420 157 428 178 c 1
EndSplineSet
EndChar
StartChar: d
Encoding: 70 100 70
OldEncoding: 100
Width: 546
Flags: W
HStem: -23 78<251 281> 445 86<357 361>
DStem: 557 716 639 716 502 454 487 -1
Fore
557 716 m 1
 639 716 l 1
 487 -1 l 1
 415 -1 l 1
 428 59 l 1
 400 35 373 13 344 -3 c 0
 322 -16 290 -23 251 -23 c 0
 212 -23 178 -16 152 -1 c 0
 119 16 99 46 86 87 c 0
 72 126 70 171 75 222 c 0
 75 229 78 244 81 262 c 0
 90 302 106 339 125 376 c 0
 144 413 167 442 191 464 c 0
 245 508 300 531 357 531 c 0
 400 531 435 521 463 500 c 0
 481 484 494 470 502 454 c 1
 557 716 l 1
184 102 m 0
 202 71 235 54 281 55 c 0
 303 55 325 62 345 72 c 0
 365 81 381 96 393 112 c 0
 425 151 445 194 457 244 c 0
 464 277 465 307 463 336 c 0
 460 364 457 386 450 396 c 0
 432 429 400 445 357 445 c 0
 307 445 268 429 238 396 c 0
 206 362 184 315 171 255 c 0
 158 193 164 142 184 102 c 0
EndSplineSet
EndChar
StartChar: e
Encoding: 71 101 71
OldEncoding: 101
Width: 546
Flags: W
HStem: -23 72<265 291> 225 74<194 552> 464 67<375 406>
Fore
552 225 m 1
 175 225 l 1
 171 202 168 181 168 167 c 0
 168 152 173 135 180 113 c 1
 202 71 235 49 283 49 c 0
 307 49 328 52 348 61 c 0
 365 68 380 78 394 90 c 0
 407 102 418 115 425 126 c 0
 432 138 438 148 442 157 c 1
 526 157 l 1
 508 113 483 78 458 54 c 0
 434 29 409 12 376 -1 c 0
 341 -16 306 -23 270 -23 c 0
 233 -23 200 -16 173 -1 c 0
 144 13 120 33 104 61 c 0
 80 104 75 171 93 254 c 0
 113 341 149 407 200 454 c 0
 258 505 326 532 406 531 c 0
 426 531 444 526 463 519 c 0
 481 513 497 505 512 493 c 0
 526 481 536 470 542 457 c 0
 555 432 564 409 567 387 c 0
 570 364 573 342 571 325 c 0
 568 304 561 273 552 225 c 1
194 299 m 1
 478 299 l 1
 483 319 481 344 480 368 c 0
 477 393 473 409 465 418 c 1
 464 429 455 439 438 447 c 0
 425 455 409 464 387 464 c 0
 335 465 294 450 264 418 c 1
 254 412 241 394 226 370 c 0
 209 344 202 319 194 299 c 1
EndSplineSet
EndChar
StartChar: f
Encoding: 72 102 72
OldEncoding: 102
Width: 272
Flags: W
HStem: 0 21G<87 171> 441 75<127 181 281 347> 647 72<362 392>
DStem: 181 441 265 441 87 0 171 0
Fore
87 0 m 1
 181 441 l 1
 112 441 l 1
 128 516 l 1
 197 516 l 1
 215 603 l 2
 223 638 241 666 265 686 c 0
 291 706 309 716 323 716 c 0
 331 718 344 719 362 719 c 0
 381 719 396 718 406 716 c 1
 392 647 l 1
 361 647 336 644 325 638 c 0
 310 629 302 615 297 592 c 2
 281 516 l 1
 362 516 l 1
 347 441 l 1
 265 441 l 1
 171 0 l 1
 87 0 l 1
EndSplineSet
EndChar
StartChar: g
Encoding: 73 103 73
OldEncoding: 103
Width: 546
Flags: W
HStem: -215 73<207 228> 441 90<346 364>
VStem: 32 88<-109 -70>
Fore
509 516 m 1
 590 516 l 1
 499 87 l 2
 487 36 474 -7 461 -42 c 0
 448 -78 429 -110 405 -138 c 0
 381 -165 352 -184 316 -194 c 0
 283 -204 252 -212 228 -215 c 1
 174 -215 135 -210 113 -200 c 0
 87 -188 67 -175 55 -160 c 0
 42 -142 35 -126 32 -109 c 0
 32 -91 32 -75 33 -59 c 1
 116 -59 l 1
 117 -62 119 -67 119 -75 c 0
 119 -84 119 -90 120 -96 c 0
 120 -100 125 -106 132 -112 c 0
 138 -117 146 -125 160 -130 c 0
 174 -139 194 -142 220 -142 c 0
 248 -142 276 -138 299 -129 c 1
 323 -117 339 -106 348 -96 c 0
 357 -86 367 -68 377 -46 c 0
 392 -12 405 25 412 62 c 1
 351 4 287 -25 225 -23 c 0
 187 -22 154 -4 126 23 c 1
 102 41 86 68 75 104 c 0
 70 141 67 180 75 225 c 0
 84 267 99 310 116 351 c 0
 135 392 157 426 181 451 c 0
 196 465 220 483 257 503 c 0
 290 521 328 531 364 531 c 0
 420 529 464 505 496 454 c 1
 509 516 l 1
373 96 m 0
 410 128 436 178 451 248 c 0
 458 280 461 312 460 341 c 0
 457 370 448 392 438 406 c 0
 434 413 422 420 406 429 c 0
 390 438 371 441 354 441 c 0
 299 441 252 416 219 365 c 0
 197 335 181 297 170 249 c 0
 155 188 158 142 173 112 c 0
 190 77 220 55 261 55 c 0
 304 54 342 68 373 96 c 0
EndSplineSet
EndChar
StartChar: h
Encoding: 74 104 74
OldEncoding: 104
Width: 546
Flags: W
HStem: 0 21G<68 151 394 478> 455 76<361 423>
DStem: 220 716 303 716 68 0 248 454 220 716 222 336 68 0 151 0 470 352 561 392 394 0 478 0
Fore
68 0 m 1
 220 716 l 1
 303 716 l 1
 248 454 l 1
 280 481 313 503 349 518 c 1
 381 526 406 531 423 531 c 0
 451 531 477 522 502 513 c 0
 534 500 552 483 558 457 c 0
 563 431 566 409 561 392 c 2
 478 0 l 1
 394 0 l 1
 470 352 l 2
 480 400 471 429 447 442 c 1
 422 451 394 455 361 455 c 1
 335 451 306 436 271 412 c 0
 245 392 229 367 222 336 c 2
 151 0 l 1
 68 0 l 1
EndSplineSet
EndChar
StartChar: i
Encoding: 75 105 75
OldEncoding: 105
Width: 217
Flags: W
HStem: 0 21G<65 148>
DStem: 175 516 258 516 65 0 148 0 218 716 300 716 196 615 278 615
Fore
258 516 m 1
 148 0 l 1
 65 0 l 1
 175 516 l 1
 258 516 l 1
300 716 m 1
 278 615 l 1
 196 615 l 1
 218 716 l 1
 300 716 l 1
EndSplineSet
EndChar
StartChar: j
Encoding: 76 106 76
OldEncoding: 106
Width: 217
Flags: W
DStem: 177 516 261 516 46 -96 126 -113 219 716 303 716 197 615 281 615
Fore
197 615 m 1
 219 716 l 1
 303 716 l 1
 281 615 l 1
 197 615 l 1
-62 -215 m 1
 -48 -142 l 1
 1 -138 l 2
 13 -136 25 -130 33 -122 c 0
 39 -113 45 -103 46 -96 c 2
 177 516 l 1
 261 516 l 1
 126 -113 l 2
 123 -130 115 -149 99 -168 c 0
 84 -187 61 -200 30 -209 c 0
 10 -213 -20 -215 -62 -215 c 1
EndSplineSet
EndChar
StartChar: k
Encoding: 77 107 77
OldEncoding: 107
Width: 491
Flags: W
HStem: 0 21G<58 139 392 493>
DStem: 210 716 291 716 58 0 203 302 210 716 180 193 58 0 139 0 281 276 355 338 392 0 493 0 467 516 574 516 203 302 355 338
Fore
210 716 m 1
 291 716 l 1
 203 302 l 1
 467 516 l 1
 574 516 l 1
 355 338 l 1
 493 0 l 1
 392 0 l 1
 281 276 l 1
 180 193 l 1
 139 0 l 1
 58 0 l 1
 210 716 l 1
EndSplineSet
EndChar
StartChar: l
Encoding: 78 108 78
OldEncoding: 108
Width: 217
Flags: W
HStem: 0 21G<67 149>
DStem: 219 716 302 716 67 0 149 0
Fore
67 0 m 1
 219 716 l 1
 302 716 l 1
 149 0 l 1
 67 0 l 1
EndSplineSet
EndChar
StartChar: m
Encoding: 79 109 79
OldEncoding: 109
Width: 819
Flags: W
HStem: 0 21G<71 152 368 451 667 751> 455 76<371 416 666 702>
DStem: 181 516 223 332 71 0 152 0 447 370 525 351 368 0 451 0 745 368 837 403 667 0 751 0
Fore
71 0 m 1
 181 516 l 1
 262 516 l 1
 248 451 l 1
 277 483 299 503 315 509 c 0
 344 525 378 531 416 531 c 0
 455 531 484 525 499 512 c 0
 518 496 531 478 541 454 c 1
 552 465 564 476 570 481 c 0
 576 489 583 494 594 502 c 0
 602 508 612 513 624 518 c 0
 645 526 671 531 702 531 c 0
 747 531 779 526 793 515 c 0
 803 509 812 502 821 489 c 0
 829 477 834 463 837 447 c 0
 838 432 840 418 837 403 c 2
 751 0 l 1
 667 0 l 1
 745 368 l 1
 748 426 724 455 666 455 c 0
 629 455 599 445 577 426 c 0
 554 406 536 381 525 351 c 1
 451 0 l 1
 368 0 l 1
 447 370 l 2
 460 428 428 455 371 455 c 0
 338 455 307 444 280 420 c 0
 252 399 233 368 223 332 c 1
 152 0 l 1
 71 0 l 1
EndSplineSet
EndChar
StartChar: n
Encoding: 80 110 80
OldEncoding: 110
Width: 546
Flags: W
HStem: 0 21G<68 151 396 478> 455 76<390 426>
DStem: 178 516 209 274 68 0 151 0 473 358 564 402 396 0 478 0
Fore
178 516 m 1
 261 516 l 1
 246 451 l 1
 274 480 297 500 318 508 c 1
 342 522 378 532 426 531 c 0
 464 531 490 526 506 518 c 0
 525 506 541 492 552 477 c 0
 564 461 567 436 564 402 c 1
 478 0 l 1
 396 0 l 1
 473 358 l 2
 477 380 476 396 470 412 c 0
 464 426 454 438 438 444 c 0
 425 452 409 455 390 455 c 0
 351 455 313 441 280 413 c 0
 246 386 223 338 209 274 c 2
 151 0 l 1
 68 0 l 1
 178 516 l 1
EndSplineSet
EndChar
StartChar: o
Encoding: 81 111 81
OldEncoding: 111
Width: 546
Flags: W
HStem: -23 84<263 286> 450 81<356 381>
Fore
91 78 m 0
 75 123 75 181 90 254 c 0
 106 328 132 386 167 429 c 0
 196 464 229 492 267 508 c 0
 304 525 342 531 381 531 c 0
 419 531 455 522 486 506 c 0
 518 490 538 464 552 429 c 0
 570 383 571 325 555 254 c 0
 541 186 515 126 477 78 c 0
 450 45 418 17 378 1 c 0
 341 -14 302 -23 264 -23 c 0
 225 -23 190 -14 160 1 c 0
 129 17 107 45 91 78 c 0
281 61 m 0
 307 61 334 67 358 80 c 0
 384 93 403 113 419 139 c 0
 444 178 463 216 470 254 c 0
 478 290 477 329 468 370 c 0
 463 396 451 416 432 429 c 0
 412 442 389 450 364 450 c 0
 338 450 312 442 286 431 c 0
 260 418 236 399 219 370 c 1
 209 345 197 323 191 304 c 0
 183 287 175 268 173 254 c 0
 167 223 167 184 175 139 c 0
 181 113 196 93 215 80 c 0
 232 67 255 61 281 61 c 0
EndSplineSet
EndChar
StartChar: p
Encoding: 82 112 82
OldEncoding: 112
Width: 546
Flags: W
HStem: -23 85<290 307> 454 77<365 396>
DStem: 162 516 148 55 7 -215 91 -215
Fore
91 -215 m 1
 7 -215 l 1
 162 516 l 1
 235 516 l 1
 220 451 l 1
 238 470 265 490 303 512 c 0
 328 525 360 531 396 531 c 0
 434 531 467 525 496 509 c 0
 529 492 552 463 566 420 c 0
 577 380 583 336 574 287 c 0
 574 278 571 265 568 249 c 0
 560 209 544 168 525 133 c 0
 505 96 481 65 455 45 c 0
 403 0 348 -23 290 -23 c 0
 248 -23 212 -13 186 9 c 0
 167 23 155 38 148 55 c 1
 91 -215 l 1
464 406 m 0
 447 438 415 455 365 454 c 0
 345 454 323 445 304 438 c 1
 283 426 268 413 255 396 c 0
 222 357 202 313 191 264 c 0
 184 235 183 204 186 177 c 0
 187 149 191 126 199 112 c 0
 209 96 220 84 238 75 c 0
 254 67 270 62 290 62 c 0
 341 62 378 78 409 112 c 0
 438 144 461 190 474 251 c 0
 487 313 484 365 464 406 c 0
EndSplineSet
EndChar
StartChar: q
Encoding: 83 113 83
OldEncoding: 113
Width: 546
Flags: W
HStem: -23 85<239 276> 454 77<355 373>
DStem: 416 55 597 516 360 -215 442 -215
Fore
442 -215 m 1
 360 -215 l 1
 416 55 l 1
 405 39 384 23 358 9 c 0
 322 -13 283 -23 239 -23 c 0
 183 -23 138 0 103 45 c 0
 68 90 59 157 78 246 c 0
 83 264 86 278 88 287 c 0
 104 336 128 380 157 420 c 0
 187 463 220 492 261 509 c 0
 293 525 329 531 368 531 c 0
 406 531 435 525 452 512 c 0
 478 493 497 474 510 451 c 1
 525 516 l 1
 597 516 l 1
 442 -215 l 1
249 406 m 0
 209 365 183 312 171 249 c 0
 158 188 164 142 177 112 c 0
 193 78 226 62 276 62 c 0
 296 62 318 67 336 75 c 0
 357 84 374 97 389 112 c 0
 415 139 436 177 451 226 c 0
 454 235 457 246 460 262 c 0
 471 315 468 358 454 396 c 0
 450 413 439 426 423 436 c 0
 407 445 389 454 367 454 c 0
 320 455 278 439 249 406 c 0
EndSplineSet
EndChar
StartChar: r
Encoding: 84 114 84
OldEncoding: 114
Width: 327
Flags: W
HStem: 0 21G<67 151> 444 87<381 410>
DStem: 177 516 207 268 67 0 151 0
Fore
67 0 m 1
 177 516 l 1
 261 516 l 1
 244 436 l 1
 264 464 289 487 316 505 c 0
 339 521 364 529 381 531 c 2
 429 531 l 1
 410 444 l 1
 380 444 354 441 329 432 c 0
 297 419 273 400 252 376 c 0
 231 348 218 313 207 268 c 2
 151 0 l 1
 67 0 l 1
EndSplineSet
EndChar
StartChar: s
Encoding: 85 115 85
OldEncoding: 115
Width: 491
Flags: W
Fore
65 152 m 1
 144 152 l 1
 144 130 144 116 146 106 c 0
 146 99 154 88 162 78 c 0
 171 68 188 61 212 52 c 1
 223 51 248 49 284 49 c 1
 315 54 338 61 352 71 c 0
 361 75 373 86 381 99 c 0
 390 110 396 122 399 133 c 0
 405 164 392 187 357 199 c 0
 347 202 332 204 313 210 c 0
 293 215 276 219 262 223 c 0
 248 226 233 231 216 236 c 0
 199 241 186 246 177 251 c 0
 129 268 115 312 128 377 c 0
 138 425 164 463 207 490 c 0
 249 518 297 531 351 531 c 0
 476 531 528 478 509 373 c 1
 428 373 l 1
 432 394 428 415 416 429 c 0
 405 444 374 452 326 454 c 1
 274 451 238 432 215 400 c 0
 212 394 209 387 206 376 c 0
 202 352 207 336 223 328 c 0
 233 323 244 318 252 315 c 0
 260 312 271 310 289 304 c 0
 303 300 319 294 338 290 c 0
 384 281 420 268 448 251 c 0
 481 229 490 187 477 123 c 1
 467 97 454 72 431 51 c 0
 410 28 384 10 357 -1 c 0
 329 -13 297 -22 260 -23 c 0
 218 -25 186 -22 161 -16 c 0
 77 1 46 59 65 152 c 1
EndSplineSet
EndChar
StartChar: t
Encoding: 86 116 86
OldEncoding: 116
Width: 272
Flags: W
HStem: -23 75<157 223> 441 75<122 180 278 344>
DStem: 180 441 262 441 96 51 186 81 225 655 307 655 196 516 278 516
Fore
307 655 m 1
 278 516 l 1
 360 516 l 1
 344 441 l 1
 262 441 l 1
 186 81 l 2
 181 62 196 52 223 52 c 0
 231 52 242 54 261 55 c 1
 246 -16 l 1
 222 -22 193 -23 157 -23 c 1
 132 -20 115 -10 104 7 c 0
 96 23 94 38 96 51 c 2
 180 441 l 1
 107 441 l 1
 123 516 l 1
 196 516 l 1
 225 655 l 1
 307 655 l 1
EndSplineSet
EndChar
StartChar: u
Encoding: 87 117 87
OldEncoding: 117
Width: 546
Flags: W
HStem: -23 78<223 246>
DStem: 174 516 257 516 86 104 178 151 502 516 584 516 442 236 474 0
Fore
474 0 m 1
 392 0 l 1
 403 55 l 1
 376 26 352 9 332 -1 c 0
 303 -14 268 -23 223 -23 c 0
 193 -23 164 -20 144 -12 c 1
 103 13 83 51 86 104 c 1
 174 516 l 1
 257 516 l 1
 178 151 l 2
 171 113 178 87 200 68 c 0
 213 61 226 55 244 55 c 0
 268 55 289 58 303 61 c 0
 347 75 377 97 400 128 c 0
 419 155 432 191 442 236 c 2
 502 516 l 1
 584 516 l 1
 474 0 l 1
EndSplineSet
EndChar
StartChar: v
Encoding: 88 118 88
OldEncoding: 118
Width: 491
Flags: W
HStem: 0 21G<190 280>
Fore
280 0 m 1
 190 0 l 1
 120 516 l 1
 212 516 l 1
 257 99 l 1
 496 516 l 1
 589 516 l 1
 280 0 l 1
EndSplineSet
EndChar
StartChar: w
Encoding: 89 119 89
OldEncoding: 119
Width: 709
Flags: W
HStem: 0 21G<154 248 451 544>
DStem: 410 516 428 392 225 115 248 0
Fore
154 0 m 1
 117 516 l 1
 209 516 l 1
 225 115 l 1
 410 516 l 1
 512 516 l 1
 523 115 l 1
 713 516 l 1
 806 516 l 1
 544 0 l 1
 451 0 l 1
 428 392 l 1
 248 0 l 1
 154 0 l 1
EndSplineSet
EndChar
StartChar: x
Encoding: 90 120 90
OldEncoding: 120
Width: 491
Flags: W
HStem: 0 21G<16 110 373 465>
DStem: 138 516 232 516 255 264 318 335 255 264 283 193 16 0 110 0 283 193 345 265 373 0 465 0 480 516 574 516 318 335 345 265
Fore
283 193 m 1
 110 0 l 1
 16 0 l 1
 255 264 l 1
 138 516 l 1
 232 516 l 1
 318 335 l 1
 480 516 l 1
 574 516 l 1
 345 265 l 1
 465 0 l 1
 373 0 l 1
 283 193 l 1
EndSplineSet
EndChar
StartChar: y
Encoding: 91 121 91
OldEncoding: 121
Width: 491
Flags: W
HStem: -215 80<52 83>
DStem: 130 516 216 516 187 -9 264 126 187 -9 580 516 141 -90 212 -119 492 516 580 516 264 126 212 -119
Fore
492 516 m 1
 580 516 l 1
 212 -119 l 2
 187 -161 158 -187 120 -202 c 0
 102 -210 78 -215 52 -215 c 0
 33 -215 19 -212 7 -203 c 1
 25 -126 l 1
 35 -130 55 -135 83 -135 c 1
 106 -130 125 -116 141 -90 c 2
 187 -9 l 1
 130 516 l 1
 216 516 l 1
 264 126 l 1
 492 516 l 1
EndSplineSet
EndChar
StartChar: z
Encoding: 92 122 92
OldEncoding: 122
Width: 491
Flags: W
HStem: 0 81<158 450> 434 82<161 425>
DStem: 425 434 532 444 45 67 158 81
Fore
548 516 m 1
 532 444 l 1
 158 81 l 1
 467 81 l 1
 450 0 l 1
 30 0 l 1
 45 67 l 1
 425 434 l 1
 145 434 l 1
 162 516 l 1
 548 516 l 1
EndSplineSet
EndChar
StartChar: braceleft
Encoding: 93 123 93
OldEncoding: 123
Width: 327
Flags: W
DStem: 136 80 213 97 100 -88 177 -77 245 596 318 587 210 429 280 412
Fore
88 219 m 1
 103 289 l 1
 136 294 161 310 174 331 c 0
 190 352 202 386 210 429 c 2
 245 596 l 2
 252 631 270 658 293 682 c 0
 315 703 336 716 352 716 c 2
 425 719 l 1
 412 654 l 1
 365 648 l 2
 352 647 342 642 336 632 c 0
 329 622 322 608 318 587 c 2
 280 412 l 2
 271 367 257 332 236 310 c 0
 216 287 196 268 175 254 c 1
 188 244 200 228 212 203 c 0
 223 178 223 142 213 97 c 2
 177 -77 l 2
 173 -99 173 -115 175 -125 c 0
 177 -135 186 -139 197 -141 c 2
 242 -146 l 1
 228 -210 l 1
 155 -209 l 2
 139 -209 125 -194 112 -173 c 0
 97 -151 93 -123 100 -88 c 2
 136 80 l 2
 145 125 148 157 142 178 c 0
 135 200 119 213 88 219 c 1
EndSplineSet
EndChar
StartChar: bar
Encoding: 94 124 94
OldEncoding: 124
Width: 255
Flags: W
DStem: 251 716 309 716 54 -212 112 -212
Fore
309 716 m 1
 112 -212 l 1
 54 -212 l 1
 251 716 l 1
 309 716 l 1
EndSplineSet
EndChar
StartChar: braceright
Encoding: 95 125 95
OldEncoding: 125
Width: 327
Flags: W
DStem: 126 97 197 80 90 -77 161 -88 231 587 306 596 193 412 271 429
Fore
318 289 m 1
 303 219 l 1
 271 213 246 200 232 178 c 0
 219 157 206 125 197 80 c 2
 161 -88 l 2
 157 -112 148 -130 135 -149 c 0
 122 -167 109 -180 94 -191 c 0
 80 -202 68 -206 55 -209 c 2
 -17 -210 l 1
 -3 -146 l 1
 42 -141 l 2
 57 -139 67 -133 74 -123 c 0
 80 -113 86 -99 90 -77 c 2
 126 97 l 2
 136 141 152 177 177 202 c 0
 197 226 216 244 232 254 c 0
 231 254 229 260 222 267 c 0
 213 276 207 287 202 302 c 0
 194 316 188 331 188 349 c 0
 188 367 188 387 193 412 c 2
 231 587 l 2
 235 608 236 622 235 632 c 0
 232 642 223 647 210 648 c 2
 167 654 l 1
 180 719 l 1
 252 716 l 2
 264 715 274 709 284 700 c 0
 293 689 300 676 306 657 c 0
 312 639 312 619 306 596 c 2
 271 429 l 2
 262 386 261 352 264 331 c 0
 270 310 289 294 318 289 c 1
EndSplineSet
EndChar
StartChar: asciitilde
Encoding: 96 126 96
OldEncoding: 126
Width: 572
Flags: W
HStem: 262 67<450 468> 368 63<256 270>
DStem: 289 354 318 418 378 287 431 341
Fore
187 287 m 1
 135 287 l 1
 148 338 167 376 190 396 c 0
 216 419 242 431 270 431 c 0
 289 431 304 428 318 418 c 2
 431 341 l 2
 441 335 452 329 468 329 c 0
 481 329 492 332 502 339 c 0
 515 349 525 370 532 405 c 1
 584 405 l 1
 576 362 558 328 532 302 c 0
 509 276 481 262 450 262 c 0
 429 262 402 268 378 287 c 2
 289 354 l 1
 278 364 268 368 257 368 c 0
 242 368 228 361 215 345 c 0
 200 331 193 312 187 287 c 1
EndSplineSet
EndChar
StartChar: exclamdown
Encoding: 98 161 223
OldEncoding: 161
Width: 210
VWidth: 2048
Flags: W
HStem: 496 21G<148 261>
DStem: 45 23 164 23 12 -139 130 -139
Fore
283 600 m 1
 261 496 l 1
 148 496 l 1
 170 600 l 1
 283 600 l 1
222 416 m 1
 164 23 l 1
 130 -139 l 1
 12 -139 l 1
 45 23 l 1
 154 416 l 1
 222 416 l 1
EndSplineSet
EndChar
StartChar: cent
Encoding: 99 162 224
OldEncoding: 162
Width: 504
VWidth: 2048
Flags: W
HStem: 9 77<245 271>
DStem: 138 35 193 14 30 -177 87 -194 380 506 434 494 177 103 231 90 523 796 577 780 419 592 474 574
Fore
434 494 m 1
 231 90 l 1
 261 86 l 1
 344 86 403 133 436 226 c 1
 528 216 l 1
 505 155 467 104 418 67 c 0
 367 28 309 9 245 9 c 0
 226 9 207 10 193 14 c 1
 87 -194 l 1
 30 -177 l 1
 138 35 l 1
 57 80 29 171 57 300 c 0
 75 386 110 454 158 508 c 1
 218 566 287 594 367 594 c 1
 419 592 l 1
 523 796 l 1
 577 780 l 1
 474 574 l 1
 534 547 563 496 560 418 c 1
 464 405 l 1
 464 444 454 476 434 494 c 1
380 506 m 1
 354 508 l 2
 251 512 183 439 152 293 c 0
 132 200 141 136 177 103 c 1
 380 506 l 1
EndSplineSet
EndChar
StartChar: sterling
Encoding: 100 163 225
OldEncoding: 163
Width: 426
VWidth: 2048
Flags: W
HStem: -3 67<316 328> 30 61<144 162> 273 59<69 133 209 323> 547 61<325 350>
Fore
209 332 m 1xb0
 336 332 l 1
 323 273 l 1
 209 273 l 1
 210 261 213 249 210 238 c 0
 199 184 164 133 104 84 c 1
 128 88 146 91 162 91 c 0x70
 186 91 212 88 236 80 c 0
 281 68 310 64 326 64 c 0
 345 64 371 71 409 87 c 1
 418 22 l 1
 376 4 341 -3 316 -3 c 1xb0
 280 0 l 1
 233 13 l 1
 183 29 l 1
 145 30 l 1x70
 103 30 59 20 19 -4 c 1
 3 64 l 1
 72 100 113 152 129 222 c 1
 133 273 l 1
 57 273 l 1
 70 332 l 1
 129 332 l 1
 126 377 126 412 132 439 c 0
 144 490 168 531 210 560 c 0
 251 592 296 608 348 608 c 0
 452 608 499 555 496 454 c 1
 422 442 l 1
 425 513 396 547 335 547 c 0
 307 547 281 538 257 518 c 0
 232 500 218 477 210 447 c 0
 204 419 204 381 209 332 c 1xb0
EndSplineSet
EndChar
StartChar: currency
Encoding: 101 164 226
OldEncoding: 164
Width: 507
VWidth: 2048
Flags: W
HStem: 75 80<252 272> 407 77<321 341>
DStem: 90 168 139 113 4 102 51 45 541 519 587 461 454 451 502 394
Fore
138 394 m 1
 81 461 l 1
 151 519 l 1
 210 451 l 1
 252 476 294 484 341 484 c 0
 384 484 422 476 454 451 c 1
 541 519 l 1
 587 461 l 1
 502 394 l 1
 519 361 522 323 513 281 c 0
 505 241 486 203 454 168 c 1
 510 102 l 1
 441 45 l 1
 383 113 l 1
 339 88 297 75 254 75 c 0
 206 75 168 88 139 113 c 1
 51 45 l 1
 4 102 l 1
 90 168 l 1
 74 203 68 241 77 281 c 0
 86 323 107 361 138 394 c 1
161 281 m 0
 154 246 161 216 180 191 c 0
 203 168 232 155 270 155 c 0
 307 155 341 168 371 191 c 0
 402 216 420 246 428 281 c 0
 435 316 429 345 409 370 c 0
 387 394 360 407 323 407 c 0
 286 407 251 394 219 370 c 0
 188 345 168 316 161 281 c 0
EndSplineSet
EndChar
StartChar: yen
Encoding: 102 165 227
OldEncoding: 165
Width: 633
VWidth: 2048
Flags: W
HStem: 173 73<77 287 400 606> 318 78<109 319 470 638>
DStem: 154 761 261 761 294 396 360 494 287 173 384 173 251 3 348 3
Fore
251 3 m 1
 287 173 l 1
 62 173 l 1
 78 246 l 1
 303 246 l 1
 319 318 l 1
 94 318 l 1
 110 396 l 1
 294 396 l 1
 154 761 l 1
 261 761 l 1
 360 494 l 1
 386 416 l 1
 448 502 l 1
 651 761 l 1
 767 761 l 1
 470 396 l 1
 654 396 l 1
 638 318 l 1
 416 318 l 1
 400 246 l 1
 622 246 l 1
 606 173 l 1
 384 173 l 1
 348 3 l 1
 251 3 l 1
EndSplineSet
EndChar
StartChar: brokenbar
Encoding: 103 166 228
OldEncoding: 166
Width: 127
VWidth: 2048
Flags: W
DStem: 41 113 120 113 -33 -232 46 -232 145 610 225 610 72 265 152 265
Fore
225 610 m 1
 152 265 l 1
 72 265 l 1
 145 610 l 1
 225 610 l 1
120 113 m 1
 46 -232 l 1
 -33 -232 l 1
 41 113 l 1
 120 113 l 1
EndSplineSet
EndChar
StartChar: section
Encoding: 104 167 229
OldEncoding: 167
Width: 569
VWidth: 2048
Flags: W
HStem: -180 76<236 271> 686 87<412 430>
Fore
29 -3 m 1
 135 10 l 1
 135 -67 177 -104 255 -104 c 0
 289 -104 318 -99 344 -84 c 0
 374 -68 392 -48 397 -22 c 0
 403 7 381 39 329 75 c 1
 218 144 l 2
 165 177 129 204 107 226 c 0
 71 262 59 303 70 345 c 0
 84 415 135 463 225 483 c 1
 184 522 168 564 177 605 c 0
 187 652 218 690 265 719 c 0
 312 747 348 764 374 770 c 0
 386 773 400 773 412 773 c 0
 512 773 577 742 606 679 c 2
 606 677 l 2
 616 651 621 622 621 590 c 1
 512 580 l 1
 515 652 481 686 412 686 c 0
 384 686 355 682 329 668 c 1
 302 652 284 632 278 609 c 0
 273 581 293 552 338 518 c 1
 441 454 l 2
 497 419 538 393 557 376 c 0
 592 341 606 302 597 257 c 0
 583 194 532 148 439 116 c 1
 492 78 512 33 500 -17 c 0
 490 -68 457 -110 403 -141 c 0
 357 -167 303 -180 242 -180 c 0
 99 -180 26 -122 29 -3 c 1
393 149 m 1
 454 174 487 204 494 241 c 0
 503 280 463 328 370 381 c 0
 328 407 294 429 268 451 c 1
 204 423 170 390 162 354 c 0
 154 315 193 273 278 222 c 0
 332 191 370 167 393 149 c 1
EndSplineSet
EndChar
StartChar: dieresis
Encoding: 105 168 230
OldEncoding: 168
Width: 343
VWidth: 2048
Flags: W
HStem: 647 101<157 248 375 464>
Fore
136 647 m 1
 158 748 l 1
 270 748 l 1
 248 647 l 1
 136 647 l 1
354 647 m 1
 376 748 l 1
 486 748 l 1
 464 647 l 1
 354 647 l 1
EndSplineSet
EndChar
StartChar: copyright
Encoding: 106 169 231
OldEncoding: 169
Width: 638
VWidth: 2048
Flags: W
HStem: 1 57<292 326> 141 50<324 341> 457 49<398 414> 594 53<411 440>
Fore
438 647 m 0
 525 647 592 615 635 552 c 1
 683 492 696 415 677 325 c 0
 658 236 613 161 538 97 c 0
 465 35 386 1 300 1 c 0
 213 1 148 33 102 96 c 0
 57 157 42 235 62 325 c 0
 81 415 126 492 197 554 c 0
 270 616 351 647 438 647 c 0
426 594 m 0
 354 594 287 568 228 516 c 0
 165 464 128 400 112 325 c 0
 96 249 106 186 146 135 c 0
 184 84 241 58 313 58 c 0
 386 58 450 84 510 135 c 0
 571 186 610 249 626 325 c 0
 641 399 631 463 590 515 c 0
 552 568 499 594 426 594 c 0
457 274 m 1
 505 257 l 1
 467 178 409 141 331 141 c 0
 280 141 242 157 220 191 c 0
 200 226 196 270 207 325 c 0
 218 378 242 423 278 455 c 0
 316 490 360 506 412 506 c 0
 483 506 525 474 528 405 c 1
 477 393 l 1
 470 436 442 457 400 457 c 0
 364 457 334 444 307 416 c 0
 286 392 271 361 262 323 c 0
 244 235 270 191 339 191 c 0
 392 191 432 218 457 274 c 1
EndSplineSet
EndChar
StartChar: ordfeminine
Encoding: 107 170 232
OldEncoding: 170
Width: 256
VWidth: 2048
Flags: W
HStem: 478 47<190 213> 718 43<260 283>
Fore
290 519 m 1
 257 493 223 478 190 478 c 0
 132 478 109 506 120 563 c 0
 129 597 152 622 187 635 c 1
 225 644 l 1
 278 651 l 1
 316 660 l 1
 323 697 309 718 271 718 c 0
 236 718 213 702 203 670 c 1
 157 683 l 1
 177 735 220 761 281 761 c 0
 354 761 381 731 368 670 c 2
 344 555 l 1
 338 522 336 499 344 484 c 1
 291 484 l 1
 290 496 287 508 290 519 c 1
306 615 m 1
 232 602 l 1
 197 593 178 580 174 563 c 0
 170 538 183 525 213 525 c 0
 262 525 293 554 306 615 c 1
EndSplineSet
EndChar
StartChar: guillemotleft
Encoding: 108 171 233
OldEncoding: 171
Width: 577
VWidth: 2048
Flags: W
Fore
199 299 m 1
 296 13 l 1
 207 13 l 1
 71 299 l 1
 328 581 l 1
 418 581 l 1
 199 299 l 1
439 299 m 1
 541 13 l 1
 445 13 l 1
 313 299 l 1
 566 581 l 1
 661 581 l 1
 439 299 l 1
EndSplineSet
EndChar
StartChar: logicalnot
Encoding: 109 172 234
OldEncoding: 172
Width: 426
VWidth: 2048
Flags: W
HStem: 481 48<115 432>
DStem: 432 481 513 529 406 362 477 362
Fore
477 362 m 1
 406 362 l 1
 432 481 l 1
 106 481 l 1
 116 529 l 1
 513 529 l 1
 477 362 l 1
EndSplineSet
EndChar
StartChar: uni00AD
Encoding: 110 173 235
OldEncoding: 173
Width: 216
VWidth: 2048
Flags: W
HStem: 261 55<74 249>
Fore
64 261 m 1
 75 316 l 1
 261 316 l 1
 249 261 l 1
 64 261 l 1
EndSplineSet
EndChar
StartChar: registered
Encoding: 111 174 236
OldEncoding: 174
Width: 819
VWidth: 2048
Flags: W
HStem: -17 45<374 415> 173 20<245 264.164 407 422 648 654> 370 24<415 439> 576 18<338 362.94> 705 43<519 555>
DStem: 376 542 447 550 309 222 415 394 376 542 409 370 309 222 378 226 439 370 521 378 542 173 619 209
Fore
850 365 m 0
 838 313 818 265 789 219 c 0
 758 173 724 130 680 96 c 0
 641 62 594 35 539 12 c 0
 489 -9 436 -17 384 -17 c 0
 313 -17 254 0 202 35 c 0
 151 68 115 113 94 173 c 0
 72 235 68 299 83 365 c 0
 93 416 113 467 144 513 c 0
 178 566 215 606 254 638 c 0
 297 673 344 702 394 719 c 0
 444 740 496 748 548 748 c 0
 600 748 647 740 689 719 c 1
 737 696 771 668 796 638 c 0
 821 608 840 566 851 513 c 1
 860 467 860 418 850 365 c 0
806 365 m 0
 815 409 815 454 808 499 c 0
 799 536 782 571 757 605 c 0
 729 639 697 663 663 679 c 0
 625 696 581 705 538 705 c 0
 477 705 419 690 360 660 c 1
 302 628 251 587 210 534 c 0
 168 481 139 426 126 364 c 0
 113 303 117 248 139 199 c 0
 158 146 190 104 235 74 c 0
 278 42 332 28 394 28 c 0
 455 28 515 42 573 74 c 0
 631 103 682 146 725 199 c 1
 767 249 793 304 806 365 c 0
409 370 m 1
 378 226 l 2
 374 204 389 193 422 193 c 1
 418 173 l 1
 241 173 l 1
 245 193 l 1
 283 193 304 203 309 222 c 2
 376 542 l 2
 380 558 380 568 376 571 c 0
 368 576 354 576 334 576 c 1
 338 594 l 1
 522 594 l 2
 560 594 589 592 606 583 c 1
 634 571 648 555 655 541 c 0
 658 528 661 512 657 492 c 0
 650 458 632 431 605 412 c 1
 574 392 548 380 521 378 c 1
 619 209 l 2
 622 199 635 193 654 193 c 1
 650 173 l 1
 542 173 l 1
 439 370 l 1
 409 370 l 1
447 550 m 1
 415 394 l 1
 451 394 477 399 494 403 c 1
 547 420 574 452 584 496 c 0
 589 519 584 538 570 550 c 1
 558 563 545 568 534 568 c 2
 474 571 l 2
 461 571 451 564 447 550 c 1
EndSplineSet
MinimumDistance: x33,30 
EndChar
StartChar: macron
Encoding: 112 175 237
OldEncoding: 175
Width: 210
VWidth: 2048
Flags: W
HStem: 716 37<156 355>
Fore
149 716 m 1
 157 753 l 1
 362 753 l 1
 355 716 l 1
 149 716 l 1
EndSplineSet
EndChar
StartChar: degree
Encoding: 113 176 238
OldEncoding: 176
Width: 223
VWidth: 2048
Flags: W
HStem: 577 39<226 240> 745 39<254 273>
Fore
146 682 m 0
 152 709 168 734 191 755 c 0
 218 777 244 784 271 784 c 0
 303 784 326 777 341 755 c 0
 358 734 361 709 355 682 c 0
 348 651 335 626 309 606 c 0
 284 584 258 577 228 577 c 0
 200 577 177 584 160 606 c 0
 145 626 139 651 146 682 c 0
187 682 m 0
 183 664 187 648 197 635 c 0
 206 622 219 616 235 616 c 0
 254 616 270 622 286 635 c 0
 302 648 312 664 316 682 c 0
 319 697 316 715 304 726 c 0
 294 740 281 745 262 745 c 0
 246 745 231 740 218 728 c 0
 202 715 190 697 187 682 c 0
EndSplineSet
EndChar
StartChar: plusminus
Encoding: 114 177 239
OldEncoding: 177
Width: 533
VWidth: 2048
Flags: W
HStem: 7 95<3 522> 381 96<83 286 400 602>
DStem: 286 381 380 381 238 154 332 154 354 700 448 700 306 477 400 477
Fore
238 154 m 1
 286 381 l 1
 64 381 l 1
 84 477 l 1
 306 477 l 1
 354 700 l 1
 448 700 l 1
 400 477 l 1
 622 477 l 1
 602 381 l 1
 380 381 l 1
 332 154 l 1
 238 154 l 1
522 7 m 1
 -16 7 l 1
 4 102 l 1
 542 102 l 1
 522 7 l 1
EndSplineSet
EndChar
StartChar: twosuperior
Encoding: 115 178 240
OldEncoding: 178
Width: 179
VWidth: 2048
Flags: W
HStem: 500 36<181 268> 690 34<231 246>
Fore
116 500 m 1
 123 525 151 554 197 590 c 2
 233 618 l 1
 249 632 260 645 261 655 c 0
 265 679 258 690 236 690 c 0
 215 690 199 679 190 655 c 1
 155 660 l 1
 173 703 203 724 244 724 c 0
 290 724 309 705 300 664 c 0
 296 644 284 625 265 606 c 0
 258 597 241 584 216 566 c 0
 202 554 190 544 181 536 c 1
 277 536 l 1
 268 500 l 1
 116 500 l 1
EndSplineSet
EndChar
StartChar: threesuperior
Encoding: 116 179 241
OldEncoding: 179
Width: 174
VWidth: 2048
Flags: W
HStem: 509 33<185 206> 610 31<209 222.819> 695 31<220 237>
Fore
125 570 m 1
 162 574 l 1
 165 552 175 542 196 542 c 0
 223 542 241 555 246 580 c 0
 251 602 238 610 210 610 c 1
 202 609 l 1
 196 609 l 1
 209 641 l 1
 236 641 251 651 255 668 c 0
 260 686 249 695 229 695 c 0
 212 695 196 684 187 667 c 1
 151 673 l 1
 168 708 196 726 235 726 c 0
 283 726 304 708 297 673 c 0
 293 652 277 638 251 629 c 1
 280 619 291 602 286 574 c 0
 281 552 268 538 248 526 c 0
 231 515 212 509 193 509 c 0
 145 509 123 529 125 570 c 1
EndSplineSet
EndChar
StartChar: acute
Encoding: 117 180 242
OldEncoding: 180
Width: 171
VWidth: 2048
Flags: W
Fore
149 655 m 1
 226 751 l 1
 328 751 l 1
 213 655 l 1
 149 655 l 1
EndSplineSet
EndChar
StartChar: mu
Encoding: 118 181 243
OldEncoding: 181
Width: 456
VWidth: 2048
Flags: W
HStem: 20 84<218 237>
DStem: 128 593 218 593 -38 -181 167 355 128 593 110 90 -38 -181 52 -181 468 593 557 593 418 354 438 35
Fore
557 593 m 1
 438 35 l 1
 357 35 l 1
 371 100 l 1
 331 46 281 20 222 20 c 0
 171 20 133 42 110 90 c 1
 52 -181 l 1
 -38 -181 l 1
 128 593 l 1
 218 593 l 1
 167 355 l 2
 151 277 145 225 145 193 c 0
 151 136 178 104 235 104 c 0
 294 104 336 135 368 191 c 0
 386 223 402 277 418 354 c 2
 468 593 l 1
 557 593 l 1
EndSplineSet
EndChar
StartChar: paragraph
Encoding: 119 182 244
OldEncoding: 182
Width: 580
VWidth: 2048
Flags: W
HStem: 705 78<397 548 397 712>
DStem: 281 406 429 705 168 -122 254 -122 548 705 637 705 373 -122 461 -122
Fore
168 -122 m 1
 281 406 l 1
 222 406 174 423 139 457 c 0
 107 493 99 538 110 590 c 0
 123 654 157 703 210 737 c 1
 261 767 323 783 397 783 c 2
 729 783 l 1
 712 705 l 1
 637 705 l 1
 461 -122 l 1
 373 -122 l 1
 548 705 l 1
 429 705 l 1
 254 -122 l 1
 168 -122 l 1
EndSplineSet
EndChar
StartChar: periodcentered
Encoding: 120 183 245
OldEncoding: 183
Width: 101
VWidth: 2048
Flags: W
DStem: 107 454 186 454 90 373 168 373
Fore
90 373 m 1
 107 454 l 1
 186 454 l 1
 168 373 l 1
 90 373 l 1
EndSplineSet
EndChar
StartChar: cedilla
Encoding: 121 184 246
OldEncoding: 184
Width: 223
VWidth: 2048
Flags: W
HStem: -102 51<41 61>
Fore
54 7 m 1
 94 77 l 1
 162 77 l 1
 136 35 l 1
 190 29 213 10 206 -25 c 0
 202 -51 180 -71 145 -84 c 0
 116 -96 84 -102 51 -102 c 0
 25 -102 0 -100 -20 -96 c 1
 -3 -49 l 1
 41 -51 l 2
 91 -52 122 -41 126 -20 c 0
 130 -1 106 7 54 7 c 1
EndSplineSet
EndChar
StartChar: onesuperior
Encoding: 122 185 247
OldEncoding: 185
Width: 156
VWidth: 2048
Flags: W
DStem: 225 645 280 705 188 480 232 480
Fore
188 480 m 1
 225 645 l 1
 199 629 174 618 148 613 c 1
 155 648 l 1
 188 658 218 679 246 705 c 1
 280 705 l 1
 232 480 l 1
 188 480 l 1
EndSplineSet
EndChar
StartChar: ordmasculine
Encoding: 123 186 248
OldEncoding: 186
Width: 227
VWidth: 2048
Flags: W
HStem: 493 45<208 225> 695 45<252 264>
Fore
262 740 m 0
 296 740 322 728 335 703 c 0
 348 682 351 652 342 616 c 0
 335 581 320 552 299 531 c 0
 274 506 244 493 210 493 c 0
 178 493 155 506 141 531 c 0
 128 552 125 580 132 615 c 0
 139 651 155 680 177 702 c 0
 202 728 229 740 262 740 c 0
254 695 m 0
 216 695 191 670 180 616 c 0
 170 564 183 538 220 538 c 0
 258 538 284 564 296 618 c 0
 306 670 291 695 254 695 c 0
EndSplineSet
EndChar
StartChar: guillemotright
Encoding: 124 187 249
OldEncoding: 187
Width: 577
VWidth: 2048
Flags: W
Fore
473 299 m 1
 254 14 l 1
 344 14 l 1
 602 299 l 1
 464 581 l 1
 373 581 l 1
 473 299 l 1
235 299 m 1
 10 14 l 1
 104 14 l 1
 358 299 l 1
 225 581 l 1
 130 581 l 1
 235 299 l 1
EndSplineSet
EndChar
StartChar: onequarter
Encoding: 125 188 250
OldEncoding: 188
Width: 920
VWidth: 2048
Flags: W
HStem: -13 126<625 803> 62 51<625 740 831 877>
DStem: 254 615 355 708 197 351 278 351 777 238 879 344 751 113 831 113 812 344 777 238 541 122 625 113 834 709 922 709 72 -25 161 -25
Fore
72 -25 m 1x00
 834 709 l 1
 922 709 l 1
 161 -25 l 1
 72 -25 l 1x00
197 351 m 1
 254 615 l 1
 212 589 168 571 119 560 c 1
 132 619 l 1
 190 635 245 666 294 708 c 1
 355 708 l 1
 278 351 l 1
 197 351 l 1
724 -13 m 1x80
 740 62 l 1
 528 62 l 1
 541 122 l 1
 812 344 l 1
 879 344 l 1
 831 113 l 1
 889 113 l 1
 877 62 l 1
 819 62 l 1x40
 803 -13 l 1
 724 -13 l 1x80
751 113 m 1x80
 777 238 l 1
 625 113 l 1
 751 113 l 1x80
EndSplineSet
EndChar
StartChar: onehalf
Encoding: 126 189 251
OldEncoding: 189
Width: 920
VWidth: 2048
Flags: W
HStem: -28 58<683 844> 274 55<772 789>
DStem: 255 615 355 708 199 351 278 351 835 710 924 710 74 -25 162 -25
Fore
74 -25 m 1
 835 710 l 1
 924 710 l 1
 162 -25 l 1
 74 -25 l 1
199 351 m 1
 255 615 l 1
 213 589 170 571 120 560 c 1
 133 619 l 1
 193 635 246 666 297 708 c 1
 355 708 l 1
 278 351 l 1
 199 351 l 1
566 -28 m 1
 573 10 622 59 709 117 c 0
 782 165 821 200 826 222 c 0
 832 255 815 274 774 274 c 0
 741 274 713 255 696 222 c 1
 629 226 l 1
 660 294 713 329 787 329 c 0
 874 329 912 297 898 232 c 0
 892 202 870 171 837 139 c 1
 747 75 l 1
 683 30 l 1
 856 30 l 1
 844 -28 l 1
 566 -28 l 1
EndSplineSet
EndChar
StartChar: threequarters
Encoding: 127 190 252
OldEncoding: 190
Width: 920
VWidth: 2048
Flags: W
HStem: -13 125<625 805> 61 51<625 741 831 879> 341 58<197 226> 516 51<226 247> 658 57<261 279>
DStem: 779 236 880 344 751 112 831 112 813 344 779 236 542 122 625 112 835 709 924 709 74 -25 162 -25
Fore
70 444 m 1x38
 145 451 l 1
 148 416 168 399 209 399 c 0
 260 399 291 419 302 463 c 0
 309 499 286 516 235 516 c 1
 215 513 l 1
 206 513 l 1
 226 567 l 1
 280 567 309 583 316 616 c 0
 322 644 306 658 265 658 c 0
 231 658 203 644 183 610 c 1
 116 622 l 1
 149 683 204 715 277 715 c 0
 368 715 407 683 394 622 c 0
 387 584 358 560 310 545 c 1
 364 531 386 500 376 451 c 0
 368 416 347 389 309 368 c 0
 276 349 241 341 202 341 c 0
 113 341 70 376 70 444 c 1x38
74 -25 m 1
 835 709 l 1
 924 709 l 1
 162 -25 l 1
 74 -25 l 1
725 -13 m 1xb8
 741 61 l 1
 529 61 l 1
 542 122 l 1
 813 344 l 1
 880 344 l 1
 831 112 l 1
 889 112 l 1
 879 61 l 1
 821 61 l 1x78
 805 -13 l 1
 725 -13 l 1xb8
751 112 m 1xb8
 779 236 l 1
 625 112 l 1
 751 112 l 1xb8
EndSplineSet
EndChar
StartChar: questiondown
Encoding: 128 191 253
OldEncoding: 191
Width: 464
VWidth: 2048
Flags: W
HStem: -194 75<175 197>
DStem: 289 554 386 554 267 451 364 451
Fore
386 554 m 1
 364 451 l 1
 267 451 l 1
 289 554 l 1
 386 554 l 1
342 374 m 1
 336 348 l 2
 326 299 306 255 284 225 c 0
 265 200 231 171 183 133 c 0
 123 90 91 49 84 13 c 0
 75 -25 84 -55 104 -81 c 0
 126 -106 155 -119 191 -119 c 0
 270 -119 326 -71 362 28 c 1
 450 17 l 1
 402 -125 310 -194 177 -194 c 0
 116 -194 67 -177 33 -142 c 0
 -7 -106 -20 -55 -7 7 c 0
 6 65 55 128 141 194 c 0
 181 226 207 252 222 270 c 0
 236 293 248 328 258 374 c 1
 342 374 l 1
EndSplineSet
EndChar
StartChar: caron
Encoding: 129 711 254
OldEncoding: 711
Width: 1044
VWidth: 2048
Flags: W
DStem: 464 1024 522 1086 670 837 690 932 922 1085 953 1024 690 932 670 837
Fore
670 837 m 1
 464 1024 l 1
 447 1045 l 1
 447 1060 l 1
 450 1073 457 1083 467 1089 c 1
 474 1096 484 1099 494 1099 c 0
 502 1099 510 1095 522 1086 c 2
 690 932 l 1
 922 1085 l 1
 937 1095 948 1099 956 1099 c 0
 967 1099 977 1096 983 1089 c 0
 987 1082 989 1073 986 1060 c 0
 985 1050 973 1037 953 1024 c 1
 670 837 l 1
EndSplineSet
EndChar
StartChar: ring
Encoding: 130 730 255
OldEncoding: 730
Width: 1044
VWidth: 2048
Flags: W
HStem: 834 53<666 682> 1102 55<724 740>
Fore
867 995 m 0
 858 954 834 915 793 883 c 0
 757 850 715 834 668 834 c 0
 622 834 587 850 563 883 c 0
 536 916 529 954 538 995 c 0
 547 1038 571 1076 612 1111 c 0
 648 1140 690 1157 738 1157 c 0
 784 1157 819 1140 842 1111 c 0
 869 1079 876 1038 867 995 c 0
813 995 m 0
 819 1024 813 1050 796 1072 c 0
 777 1093 754 1102 726 1102 c 0
 697 1102 668 1093 641 1072 c 0
 615 1050 597 1025 592 995 c 0
 586 967 592 942 609 921 c 0
 628 898 651 887 680 887 c 0
 709 887 738 898 764 921 c 1
 790 941 808 966 813 995 c 0
EndSplineSet
EndChar
StartChar: uni0E01
Encoding: 131 3585 131
OldEncoding: 3585
Width: 594
Flags: W
HStem: 0 21G<91 161 441 509> 508 59<378 412>
DStem: 151 277 220 280 91 0 161 0 523 387 592 387 441 0 509 0
Fore
128 438 m 1
 146 458 181 487 232 519 c 0
 281 551 339 567 407 567 c 4
 448 567 484 560 516 547 c 0
 547 534 570 515 583 487 c 0
 597 458 599 425 592 387 c 2
 509 0 l 1
 441 0 l 1
 523 387 l 2
 528 412 525 432 515 451 c 0
 506 468 492 483 470 493 c 0
 450 503 423 508 396 508 c 0
 336 508 283 490 233 454 c 1
 242 452 257 445 278 436 c 0
 299 426 316 412 334 393 c 1
 318 390 297 380 271 364 c 0
 246 348 229 319 220 280 c 2
 161 0 l 1
 91 0 l 1
 151 277 l 2
 157 310 170 335 186 352 c 0
 202 368 220 381 239 390 c 1
 233 396 222 405 203 416 c 0
 184 428 158 436 128 438 c 1
EndSplineSet
EndChar
StartChar: uni0E02
Encoding: 132 3586 132
OldEncoding: 3586
Width: 603
Flags: W
HStem: 0 59<186 430> 328 52<196 222> 515 52<319 333>
DStem: 296 255 364 246 255 59 325 59 570 557 638 557 474 106 542 106
Fore
319 567 m 0
 352 567 381 560 403 547 c 0
 425 532 439 515 450 493 c 0
 458 471 461 450 455 425 c 0
 451 403 447 387 438 376 c 0
 431 364 423 352 412 338 c 0
 397 323 390 312 381 300 c 0
 374 289 370 270 364 246 c 2
 325 59 l 1
 413 59 l 2
 434 59 450 62 457 68 c 0
 463 74 470 87 474 106 c 2
 570 557 l 1
 638 557 l 1
 542 106 l 2
 532 62 519 33 500 20 c 0
 481 7 447 0 400 0 c 2
 174 0 l 1
 187 59 l 1
 255 59 l 1
 296 255 l 2
 300 276 306 291 313 303 c 0
 319 313 329 325 341 339 c 0
 354 352 364 364 371 376 c 0
 380 387 386 402 390 419 c 0
 396 447 393 470 380 489 c 0
 364 506 344 515 319 515 c 0
 313 515 306 513 294 512 c 1
 303 509 313 502 326 489 c 0
 338 476 339 452 331 419 c 0
 325 390 307 367 286 352 c 0
 260 336 231 328 196 328 c 1
 136 336 115 377 130 451 c 1
 142 484 168 515 207 536 c 0
 246 557 283 567 319 567 c 0
244 481 m 0
 228 481 213 477 202 467 c 0
 193 457 184 445 181 431 c 0
 178 418 183 406 187 396 c 0
 194 386 206 380 222 380 c 0
 238 380 254 386 262 396 c 0
 274 406 280 418 283 431 c 0
 286 445 284 457 277 467 c 0
 273 477 260 481 244 481 c 0
EndSplineSet
EndChar
StartChar: uni0E03
Encoding: 133 3587 133
OldEncoding: 3587
Width: 640
Flags: W
HStem: 0 59<224 466> 249 51<178 194> 402 48<210 223>
DStem: 357 358 425 355 293 59 362 59 608 557 676 557 512 106 580 106
Fore
499 463 m 0
 496 451 493 441 486 434 c 0
 480 428 473 420 464 413 c 0
 454 406 445 399 438 390 c 0
 432 381 428 370 425 355 c 2
 362 59 l 1
 451 59 l 2
 471 59 487 62 493 68 c 1
 500 74 508 87 512 106 c 2
 608 557 l 1
 676 557 l 1
 580 106 l 2
 570 62 557 33 538 20 c 0
 521 7 487 0 438 0 c 2
 212 0 l 1
 225 59 l 1
 293 59 l 1
 357 358 l 2
 360 378 365 393 373 405 c 0
 380 415 389 423 396 429 c 0
 403 434 413 441 426 450 c 0
 435 454 438 458 439 467 c 0
 442 476 439 487 431 499 c 0
 420 508 412 515 403 516 c 1
 326 470 l 1
 258 516 l 1
 233 512 212 499 197 480 c 0
 180 463 170 445 167 431 c 1
 170 434 177 438 186 442 c 0
 194 447 207 450 223 450 c 0
 249 447 273 439 290 425 c 0
 306 407 310 383 303 349 c 0
 297 318 280 293 255 276 c 0
 231 257 204 249 180 249 c 0
 146 249 119 262 103 287 c 0
 87 313 84 345 93 387 c 0
 97 412 106 436 119 457 c 1
 133 490 160 516 193 538 c 0
 225 557 254 567 274 567 c 1
 338 522 l 1
 410 567 l 1
 436 558 458 545 477 528 c 0
 497 509 503 487 499 463 c 0
212 402 m 0
 197 402 183 396 173 387 c 0
 160 377 154 365 149 351 c 0
 148 338 149 326 157 316 c 0
 164 304 175 300 190 300 c 0
 206 300 220 304 231 315 c 0
 242 326 249 338 251 351 c 0
 255 365 252 377 246 387 c 0
 239 396 228 402 212 402 c 0
EndSplineSet
EndChar
StartChar: uni0E04
Encoding: 134 3588 134
OldEncoding: 3588
Width: 600
Flags: W
HStem: 0 21G<141 209 447 516> 232 49<318 331> 383 51<349 364> 516 55<384 405>
DStem: 162 100 262 252 141 0 209 0 526 373 596 378 447 0 516 0
Fore
187 368 m 0
 183 349 184 326 190 302 c 0
 197 277 199 257 199 242 c 1
 210 294 l 2
 219 336 235 368 262 394 c 0
 290 420 323 434 362 434 c 0
 394 434 416 425 429 405 c 0
 445 386 447 361 441 332 c 0
 435 304 422 281 399 262 c 0
 377 242 351 232 319 232 c 0
 291 232 273 239 262 252 c 1
 209 0 l 1
 141 0 l 1
 162 100 l 2
 167 125 168 146 164 165 c 0
 161 184 152 206 139 235 c 0
 128 262 122 286 117 304 c 0
 113 323 115 345 120 373 c 0
 129 415 148 451 177 480 c 0
 207 512 241 534 283 550 c 0
 322 564 362 571 403 571 c 0
 467 571 518 554 555 521 c 0
 596 487 610 441 596 378 c 2
 516 0 l 1
 447 0 l 1
 526 373 l 2
 535 418 528 454 497 478 c 0
 470 503 434 516 387 516 c 0
 339 516 297 503 258 478 c 0
 222 454 197 416 187 368 c 0
351 383 m 0
 335 383 320 378 310 368 c 0
 302 358 293 348 290 332 c 0
 287 319 290 307 296 299 c 0
 302 287 313 281 329 281 c 0
 347 281 361 287 371 299 c 0
 381 307 389 319 392 332 c 0
 394 348 393 358 386 368 c 0
 380 378 368 383 351 383 c 0
EndSplineSet
EndChar
StartChar: uni0E05
Encoding: 135 3589 135
OldEncoding: 3589
Width: 600
Flags: W
HStem: 0 21G<141 209 447 516> 232 49<318 331> 383 51<349 364>
DStem: 162 100 262 252 141 0 209 0 508 567 492 509 400 503 389 451 526 373 596 378 447 0 516 0
Fore
120 373 m 0
 128 409 149 447 190 483 c 0
 228 519 270 547 319 567 c 1
 400 503 l 1
 508 567 l 1
 586 526 615 463 596 378 c 2
 516 0 l 1
 447 0 l 1
 526 373 l 2
 531 396 534 418 535 434 c 0
 534 451 531 464 526 471 c 0
 522 480 516 487 509 493 c 0
 502 500 496 505 492 509 c 1
 389 451 l 1
 389 452 378 458 362 474 c 0
 344 489 325 500 313 509 c 1
 276 493 249 474 229 451 c 0
 207 426 196 400 187 368 c 0
 183 349 184 326 190 302 c 0
 197 277 199 257 199 242 c 1
 210 294 l 2
 219 336 235 368 262 394 c 0
 290 420 323 434 362 434 c 0
 394 434 416 425 429 405 c 0
 445 386 447 361 441 332 c 0
 435 304 422 281 399 262 c 0
 377 242 351 232 319 232 c 0
 291 232 273 239 262 252 c 1
 209 0 l 1
 141 0 l 1
 162 100 l 2
 167 125 168 146 164 165 c 0
 161 184 152 206 139 235 c 0
 128 262 122 286 117 304 c 0
 113 323 115 345 120 373 c 0
351 383 m 0
 335 383 320 378 310 368 c 0
 302 358 293 348 290 332 c 0
 287 319 290 307 296 299 c 0
 302 287 313 281 329 281 c 0
 347 281 361 287 371 299 c 0
 381 307 389 319 392 332 c 0
 394 348 393 358 386 368 c 0
 380 378 368 383 351 383 c 0
EndSplineSet
EndChar
StartChar: uni0E06
Encoding: 136 3590 136
OldEncoding: 3590
Width: 751
Flags: W
HStem: -10 58<268 280> 191 51<332 344> 249 51<192 210> 402 48<224 236>
DStem: 334 191 403 188 309 75 381 86 370 358 438 355 344 242 413 242 716 557 786 557 622 116 667 0
Fore
344 242 m 1
 370 358 l 2
 373 377 381 393 387 405 c 0
 394 416 402 425 410 431 c 0
 419 436 429 442 441 450 c 0
 450 454 452 458 454 467 c 0
 457 477 454 487 445 499 c 0
 435 508 425 515 418 516 c 1
 339 470 l 1
 271 516 l 1
 248 512 229 499 210 480 c 0
 194 463 183 445 180 431 c 1
 184 434 190 438 199 442 c 0
 207 447 222 450 236 450 c 0
 262 447 286 439 303 423 c 0
 319 407 323 383 316 349 c 0
 310 318 293 293 268 276 c 0
 244 257 219 249 194 249 c 0
 160 249 133 262 119 287 c 0
 103 313 99 345 107 387 c 0
 112 409 119 432 132 457 c 0
 149 490 174 516 206 538 c 0
 238 557 267 567 287 567 c 1
 351 522 l 1
 425 567 l 1
 450 558 471 545 490 528 c 0
 510 509 516 487 512 463 c 0
 509 451 506 441 499 434 c 0
 493 428 486 420 477 413 c 0
 465 405 458 399 451 390 c 0
 445 381 441 370 438 355 c 2
 413 242 l 1
 450 239 481 231 512 216 c 0
 539 203 564 187 583 168 c 0
 602 149 615 130 622 116 c 1
 716 557 l 1
 786 557 l 1
 667 0 l 1
 597 0 l 1
 602 22 599 46 583 74 c 0
 567 102 544 128 510 149 c 0
 478 171 442 184 403 188 c 1
 381 86 l 2
 374 55 361 33 342 16 c 0
 323 -1 299 -10 268 -10 c 0
 236 -10 212 1 199 26 c 0
 186 49 181 77 188 110 c 0
 196 144 215 175 244 202 c 0
 270 226 303 241 344 242 c 1
252 62 m 0
 260 52 267 48 278 48 c 0
 296 48 306 58 309 75 c 2
 334 191 l 1
 310 191 291 184 277 168 c 0
 261 152 252 135 248 113 c 0
 242 91 244 74 252 62 c 0
226 402 m 0
 210 402 196 396 186 387 c 0
 175 378 168 365 164 351 c 0
 162 338 165 326 170 315 c 0
 177 304 188 300 204 300 c 0
 220 300 236 304 245 315 c 0
 257 325 262 336 265 351 c 0
 270 365 267 378 261 387 c 0
 255 396 242 402 226 402 c 0
EndSplineSet
EndChar
StartChar: uni0E07
Encoding: 137 3591 137
OldEncoding: 3591
Width: 471
Flags: W
HStem: -12 63<295 308> 362 51<362 376> 513 51<392 406>
DStem: 99 349 158 378 218 38 278 68 396 368 486 463 334 77 403 72
Fore
334 77 m 2
 396 368 l 1
 387 364 377 362 362 362 c 0
 331 362 309 373 296 393 c 0
 281 413 278 436 284 464 c 0
 290 492 303 516 326 536 c 0
 347 554 374 564 406 564 c 0
 426 564 444 558 457 551 c 0
 468 542 480 529 484 515 c 0
 489 500 490 481 486 463 c 2
 403 72 l 2
 397 46 384 25 364 10 c 0
 344 -4 322 -12 297 -12 c 0
 278 -12 264 -9 249 0 c 0
 236 9 222 20 218 38 c 2
 99 349 l 1
 158 378 l 1
 278 68 l 2
 283 58 290 51 303 51 c 0
 312 51 318 52 325 58 c 0
 329 62 332 68 334 77 c 2
394 513 m 0
 378 513 364 508 355 499 c 0
 342 487 336 476 334 464 c 0
 331 451 332 439 339 429 c 0
 345 418 358 413 374 413 c 0
 390 413 403 418 416 429 c 0
 425 439 434 451 436 464 c 0
 439 476 435 487 429 499 c 0
 420 508 409 513 394 513 c 0
EndSplineSet
EndChar
StartChar: uni0E08
Encoding: 138 3592 138
OldEncoding: 3592
Width: 559
Flags: W
HStem: 0 21G<406 476> 203 49<279 290> 352 54<307 325> 515 52<349 383>
DStem: 487 383 557 383 454 226 476 0
Fore
323 406 m 0
 355 406 381 396 400 373 c 0
 419 348 431 319 439 286 c 0
 447 252 454 232 454 226 c 1
 487 383 l 2
 496 425 489 457 465 478 c 0
 442 502 407 515 362 515 c 0
 290 516 225 484 168 425 c 1
 132 458 l 1
 154 487 187 512 231 534 c 0
 274 555 323 567 376 567 c 0
 418 567 454 560 484 545 c 0
 515 531 536 512 548 483 c 0
 563 455 566 423 557 383 c 2
 476 0 l 1
 406 0 l 1
 412 30 418 65 416 102 c 0
 416 136 412 168 406 199 c 0
 399 228 392 249 383 264 c 1
 377 254 365 242 349 228 c 0
 332 213 309 204 280 203 c 0
 252 203 229 213 215 232 c 0
 200 252 196 277 202 307 c 0
 209 338 223 361 244 378 c 0
 265 396 291 406 323 406 c 0
312 352 m 0
 294 352 280 348 271 338 c 0
 260 328 252 316 249 303 c 0
 248 290 249 278 257 268 c 0
 264 257 276 252 290 252 c 0
 304 252 319 257 329 267 c 0
 339 277 347 289 349 303 c 0
 352 316 351 328 347 338 c 0
 339 348 328 352 312 352 c 0
EndSplineSet
EndChar
StartChar: uni0E09
Encoding: 139 3593 139
OldEncoding: 3593
Width: 640
Flags: W
HStem: -10 55<518 542> 188 50<173 191> 339 51<205 221> 513 54<413 430>
DStem: 207 194 297 287 167 0 261 119 493 186 561 186 465 55 535 59 535 383 603 383 505 239 573 239
Fore
297 287 m 2
 261 119 l 1
 294 154 331 180 378 202 c 0
 422 222 463 235 505 239 c 1
 535 383 l 2
 544 425 538 457 516 478 c 0
 496 502 461 513 416 513 c 0
 378 513 344 503 307 484 c 0
 274 467 246 444 225 419 c 1
 188 454 l 1
 216 484 249 513 291 534 c 0
 334 555 381 567 428 567 c 4
 493 567 542 551 574 518 c 0
 606 487 616 441 603 383 c 2
 573 239 l 1
 606 232 631 218 645 197 c 0
 658 174 660 144 652 110 c 0
 645 75 629 46 603 25 c 0
 577 1 550 -10 518 -10 c 0
 499 -10 483 -3 473 9 c 0
 465 20 461 36 465 55 c 2
 493 186 l 1
 451 177 412 164 373 144 c 0
 334 123 303 100 280 74 c 0
 257 48 241 23 236 0 c 1
 167 0 l 1
 207 194 l 1
 202 190 191 188 177 188 c 0
 145 188 122 199 109 219 c 0
 96 239 90 262 97 290 c 0
 103 318 115 341 138 361 c 0
 160 380 186 390 219 390 c 0
 249 390 271 380 286 361 c 0
 299 341 303 316 297 287 c 2
209 339 m 0
 191 339 177 335 168 325 c 0
 157 315 149 303 146 289 c 0
 144 274 145 262 152 252 c 0
 157 242 170 238 187 238 c 0
 203 238 216 242 228 252 c 0
 238 264 245 276 248 289 c 0
 251 303 248 315 244 325 c 0
 236 335 225 339 209 339 c 0
600 110 m 0
 605 129 603 148 599 162 c 0
 592 175 580 184 561 186 c 1
 535 59 l 2
 532 49 536 45 542 45 c 0
 554 45 566 51 577 64 c 0
 587 77 596 91 600 110 c 0
EndSplineSet
EndChar
StartChar: uni0E0A
Encoding: 140 3594 140
OldEncoding: 3594
Width: 603
Flags: W
HStem: 0 59<186 430> 328 52<196 222> 419 49<455 466.419> 515 52<319 333>
DStem: 296 255 364 246 255 59 325 59 519 320 590 335 474 106 542 106
Fore
535 447 m 1
 539 447 550 445 561 441 c 0
 571 436 580 426 589 407 c 0
 596 390 597 365 590 335 c 2
 542 106 l 2
 532 62 519 33 500 20 c 0
 481 7 447 0 400 0 c 2
 174 0 l 1
 187 59 l 1
 255 59 l 1
 296 255 l 2
 300 276 306 291 313 303 c 0
 319 313 329 325 341 339 c 0
 354 352 364 364 371 376 c 0
 380 387 386 402 390 419 c 0
 396 447 393 470 380 489 c 0
 364 506 344 515 319 515 c 0
 313 515 306 513 294 512 c 1
 303 509 313 502 326 489 c 0
 338 476 339 452 331 419 c 0
 325 390 307 367 286 352 c 0
 260 336 231 328 196 328 c 1
 136 336 115 377 130 451 c 1
 142 484 168 515 207 536 c 0
 246 557 283 567 319 567 c 0
 345 567 368 563 387 554 c 0
 407 545 423 532 435 518 c 0
 447 503 452 487 455 468 c 1
 473 468 500 477 536 494 c 0
 576 512 618 545 660 597 c 1
 702 567 l 1
 677 529 647 500 615 481 c 0
 579 464 552 452 535 447 c 1
452 419 m 1
 450 402 445 386 436 374 c 0
 429 362 422 349 412 338 c 0
 400 325 390 312 381 299 c 0
 374 286 368 267 364 246 c 2
 325 59 l 1
 413 59 l 2
 434 59 450 62 457 68 c 0
 463 74 470 87 474 106 c 2
 519 320 l 2
 534 387 509 419 452 419 c 1
244 481 m 0
 228 481 213 477 202 467 c 0
 193 457 184 445 181 431 c 0
 178 418 183 406 187 396 c 0
 194 386 206 380 222 380 c 0
 238 380 254 386 262 396 c 0
 274 406 280 418 283 431 c 0
 286 445 284 457 277 467 c 0
 273 477 260 481 244 481 c 0
EndSplineSet
EndChar
StartChar: uni0E0B
Encoding: 141 3595 141
OldEncoding: 3595
Width: 640
Flags: W
HStem: 0 59<224 466> 249 51<178 194> 402 48<210 223>
DStem: 357 358 425 355 293 59 362 59 560 335 628 335 512 106 580 106
Fore
502 478 m 1
 521 483 550 494 590 516 c 0
 629 536 666 568 700 615 c 1
 744 581 l 1
 726 557 703 532 677 515 c 0
 650 494 629 483 610 476 c 0
 590 465 577 458 568 457 c 1
 584 455 599 445 618 431 c 0
 635 415 638 381 628 335 c 2
 580 106 l 2
 570 62 557 33 538 20 c 0
 521 7 487 0 438 0 c 2
 212 0 l 1
 225 59 l 1
 293 59 l 1
 357 358 l 2
 362 386 371 403 381 415 c 0
 392 426 407 438 426 450 c 0
 435 454 438 458 439 467 c 0
 442 476 439 487 431 499 c 0
 420 508 412 515 403 516 c 1
 326 470 l 1
 258 516 l 1
 233 512 212 499 197 480 c 0
 180 463 170 445 167 431 c 1
 170 434 177 438 186 442 c 0
 194 447 207 450 223 450 c 0
 249 447 273 439 290 425 c 0
 306 407 310 383 303 349 c 0
 297 318 280 293 255 276 c 0
 231 257 204 249 180 249 c 0
 146 249 119 262 103 287 c 0
 87 313 84 345 93 387 c 0
 97 412 106 436 119 457 c 1
 133 490 160 516 193 538 c 0
 225 557 254 567 274 567 c 1
 338 522 l 1
 410 567 l 1
 434 563 452 554 464 541 c 0
 477 528 487 515 493 500 c 0
 497 487 502 480 502 478 c 1
 502 478 l 1
484 431 m 1
 478 426 471 419 464 413 c 0
 452 406 444 400 438 392 c 0
 432 383 429 373 425 355 c 2
 362 59 l 1
 451 59 l 2
 471 59 487 62 493 68 c 1
 500 74 508 87 512 106 c 2
 560 335 l 2
 573 399 548 431 484 431 c 1
212 402 m 0
 197 402 183 396 173 387 c 0
 160 377 154 365 149 351 c 0
 148 338 149 326 157 316 c 0
 164 304 175 300 190 300 c 0
 206 300 220 304 231 315 c 0
 242 326 249 338 251 351 c 0
 255 365 252 377 246 387 c 0
 239 396 228 402 212 402 c 0
EndSplineSet
EndChar
StartChar: uni0E0C
Encoding: 142 3596 142
OldEncoding: 3596
Width: 777
Flags: W
HStem: -10 51<191 209> -10 62<401 407> 141 50<218 235> 516 51<387 407>
DStem: 154 290 223 293 110 91 200 186 436 157 503 149 418 65 484 62 490 409 558 409 447 204 515 203 744 557 812 557 647 100 693 0
Fore
223 293 m 2x70
 200 186 l 1
 206 190 218 191 235 191 c 0
 267 191 289 181 302 162 c 0
 313 142 316 119 310 91 c 0
 304 64 291 41 271 22 c 0
 249 0 225 -10 193 -10 c 0xb0
 164 -10 141 0 126 17 c 0
 109 36 104 61 110 91 c 2
 154 290 l 2
 167 354 199 393 248 409 c 1
 241 416 226 426 207 438 c 0
 188 450 162 457 133 465 c 1
 151 483 181 505 225 529 c 0
 267 554 322 567 387 567 c 0
 523 567 580 515 558 409 c 2
 515 203 l 1
 538 199 564 187 590 168 c 0
 616 149 634 126 647 100 c 1
 744 557 l 1
 812 557 l 1
 693 0 l 1
 625 0 l 1
 621 16 616 33 610 51 c 0
 603 67 590 86 573 104 c 0
 555 123 532 138 503 149 c 1
 484 62 l 2
 474 14 450 -10 405 -10 c 0
 377 -10 357 1 345 23 c 0
 336 45 332 71 339 102 c 0
 345 129 360 154 378 174 c 0
 396 193 419 203 447 204 c 1
 490 409 l 2
 497 444 492 471 473 490 c 0
 452 508 425 516 387 516 c 0
 339 516 287 503 235 476 c 1
 244 471 260 464 281 452 c 0
 304 441 320 426 339 406 c 1
 331 406 320 405 307 400 c 0
 293 394 277 386 258 368 c 0
 241 351 231 326 223 293 c 2x70
418 65 m 1
 436 157 l 1
 410 152 394 133 386 96 c 0
 383 84 384 74 390 65 c 0
 393 58 399 52 403 52 c 0x70
 410 52 415 58 418 65 c 1
202 41 m 0xb0
 219 41 233 46 242 55 c 0
 254 65 260 77 262 91 c 0
 265 104 264 116 257 126 c 0
 251 136 239 141 223 141 c 0
 209 141 194 136 183 126 c 0
 173 116 164 104 161 91 c 0
 158 77 162 65 167 55 c 0
 175 46 187 41 202 41 c 0xb0
EndSplineSet
EndChar
StartChar: uni0E0D
Encoding: 143 3597 143
OldEncoding: 3597
Width: 777
Flags: W
HStem: -278 49<429 444> -278 84<384 435> -106 52<402 416> -10 51<191 209> 0 59<347 604> 141 50<218 235> 516 51<387 404>
DStem: 154 290 223 293 110 91 200 186 490 409 558 409 416 59 484 59 744 557 812 557 648 106 716 106
Fore
680 -58 m 1xa6
 670 -106 651 -148 628 -180 c 0
 602 -215 571 -239 538 -254 c 0
 502 -270 470 -278 435 -278 c 0
 392 -278 355 -265 328 -242 c 0
 297 -218 287 -190 294 -154 c 0
 300 -128 315 -104 335 -84 c 0
 354 -64 381 -52 416 -54 c 0
 447 -54 467 -65 478 -84 c 0
 492 -102 494 -125 489 -151 c 0
 486 -167 478 -181 467 -197 c 0
 457 -212 444 -222 429 -229 c 1
 465 -229 500 -218 536 -197 c 0
 571 -175 597 -128 612 -58 c 1
 680 -58 l 1xa6
110 91 m 2
 154 290 l 2
 167 354 199 393 248 409 c 1
 241 416 226 426 207 438 c 0
 188 450 162 457 133 465 c 1
 151 483 181 505 225 529 c 0
 267 554 322 567 387 567 c 0
 523 567 580 515 558 409 c 2
 484 59 l 1
 587 59 l 2
 608 59 622 62 629 68 c 1
 637 74 644 87 648 106 c 2
 744 557 l 1
 812 557 l 1
 716 106 l 2
 709 75 702 52 692 38 c 0
 682 23 668 13 650 9 c 0
 632 3 608 0 574 0 c 2
 335 0 l 1
 348 59 l 1
 416 59 l 1x2e
 490 409 l 2
 497 444 492 471 473 490 c 0
 452 508 425 516 387 516 c 0
 339 516 287 503 235 476 c 1
 244 471 260 464 281 452 c 0
 304 441 320 426 339 406 c 1
 331 406 320 405 307 400 c 0
 293 394 277 386 258 368 c 0
 241 351 231 326 223 293 c 2
 200 186 l 1
 206 190 218 191 235 191 c 0
 267 191 289 181 302 162 c 0
 313 142 316 119 310 91 c 0
 304 64 291 41 271 22 c 0
 249 0 225 -10 193 -10 c 0x36
 164 -10 141 0 126 17 c 0
 109 36 104 61 110 91 c 2
384 -194 m 0x66
 399 -194 409 -190 418 -181 c 0
 428 -174 434 -162 436 -151 c 0
 439 -139 438 -129 432 -119 c 0
 426 -112 416 -106 402 -106 c 0
 386 -106 377 -112 367 -119 c 0
 355 -128 349 -139 347 -151 c 0
 344 -162 345 -174 352 -181 c 0
 360 -190 371 -194 384 -194 c 0x66
202 41 m 0x36
 219 41 233 46 242 55 c 0
 254 65 260 77 262 91 c 0
 265 104 264 116 257 126 c 0
 251 136 239 141 223 141 c 0
 209 141 194 136 183 126 c 0
 173 116 164 104 161 91 c 0
 158 77 162 65 167 55 c 0
 175 46 187 41 202 41 c 0x36
EndSplineSet
Substitution: 0 65534 'nds0' uni0E0D.descless
Substitution: 0 65534 'ndsc' uni0E0D.descless
EndChar
StartChar: uni0E0E
Encoding: 144 3598 144
OldEncoding: 3598
Width: 661
Flags: W
HStem: -283 64<154 170> -116 61<192 215> -10 51<125 141> 141 50<152 170> 508 59<448 478>
VStem: 44 51<70 84> 52 66<-199 -180> 594 70<409 428>
DStem: 220 277 289 280 200 186 248 88 592 387 660 387 468 -188 518 -280
AnchorPoint: "BelowBase" 508.062 -324.8 basechar 0
Fore
200 186 m 1xfd
 220 277 l 2
 225 299 232 318 242 335 c 0
 249 349 261 362 271 370 c 0
 283 378 297 386 309 390 c 1
 302 396 289 405 270 416 c 0
 252 428 226 436 194 438 c 1
 213 458 249 487 300 519 c 0
 352 551 409 567 476 567 c 0
 539 567 592 552 625 521 c 0
 651 498 664 467 664 428 c 0
 664 415 663 402 660 387 c 2
 518 -280 l 1
 450 -280 l 1
 434 -249 413 -223 389 -202 c 0
 367 -180 347 -167 334 -160 c 1
 318 -190 293 -218 258 -244 c 0
 225 -268 191 -283 154 -283 c 0
 145 -283 l 0
 112 -283 86 -273 70 -251 c 0
 58 -236 52 -219 52 -199 c 0xfb
 52 -189 54 -178 57 -167 c 0
 65 -130 84 -103 113 -84 c 0
 141 -65 175 -55 213 -55 c 0
 244 -55 277 -62 310 -74 c 1
 313 -68 318 -61 325 -46 c 0
 331 -35 335 -17 341 0 c 1
 400 -13 l 1
 396 -30 390 -49 380 -65 c 0
 374 -80 370 -91 365 -100 c 1
 389 -113 410 -128 432 -146 c 0
 452 -164 464 -177 468 -188 c 1
 592 387 l 2
 593 396 594 404 594 411 c 0
 594 426 591 439 584 451 c 0
 576 468 560 483 538 493 c 0
 519 503 493 508 464 508 c 0
 406 508 352 490 302 454 c 1
 310 452 325 445 347 436 c 0
 367 426 386 412 402 393 c 1
 386 390 367 380 341 364 c 0
 315 348 297 319 289 280 c 2
 248 88 l 2
 242 61 231 38 207 20 c 0
 186 0 158 -10 126 -10 c 0
 96 -10 74 0 59 20 c 0
 50 34 44 51 44 70 c 0
 44 77 45 84 46 91 c 0
 52 119 67 142 88 162 c 0
 112 181 138 191 168 191 c 0
 181 191 193 190 200 186 c 1xfd
204 -212 m 0
 222 -203 238 -190 252 -173 c 0
 265 -154 274 -141 280 -130 c 1
 251 -122 225 -116 200 -116 c 0
 154 -116 126 -133 120 -167 c 0
 119 -171 118 -175 118 -180 c 0
 118 -184 119 -188 120 -191 c 0
 123 -210 141 -219 170 -219 c 0
 181 -219 191 -216 204 -212 c 0
136 41 m 0
 152 41 167 46 178 55 c 0
 190 65 196 77 199 91 c 0
 200 95 200 99 200 103 c 0
 200 112 198 119 193 126 c 0
 186 136 174 141 158 141 c 0
 144 141 129 136 117 126 c 0
 106 115 99 103 96 91 c 0
 95 88 95 85 95 82 c 0xfd
 95 73 98 65 104 58 c 0
 110 46 122 41 136 41 c 0
EndSplineSet
EndChar
StartChar: uni0E0F
Encoding: 145 3599 145
OldEncoding: 3599
Width: 661
Flags: W
HStem: -283 54<119 137> -142 54<155 173> -10 51<125 141> 141 50<155 170> 508 59<448 478>
VStem: 44 51<70 84> 44 60<-210 -191> 594 70<409 428>
DStem: 220 277 289 280 200 186 248 88 406 -119 393 -188 318 -194 293 -283 592 387 660 387 467 -199 518 -280
AnchorPoint: "BelowBase" 509.513 -324.8 basechar 0
Fore
200 186 m 1xfd
 220 277 l 2
 225 299 232 318 242 335 c 0
 249 349 261 362 271 370 c 0
 283 378 297 386 309 390 c 1
 302 396 289 405 270 416 c 0
 252 428 226 436 194 438 c 1
 213 458 249 487 300 519 c 0
 352 551 409 567 476 567 c 0
 539 567 592 552 625 521 c 0
 651 498 664 467 664 428 c 0
 664 415 663 402 660 387 c 2
 518 -280 l 1
 450 -280 l 1
 393 -188 l 1
 293 -283 l 1
 287 -268 281 -254 273 -239 c 0
 264 -225 257 -213 249 -204 c 1
 241 -218 225 -235 202 -254 c 0
 178 -274 151 -283 119 -283 c 0
 91 -283 70 -274 58 -254 c 0
 48 -243 44 -228 44 -210 c 0xfb
 44 -199 45 -187 48 -174 c 1
 58 -146 72 -125 93 -110 c 0
 115 -96 138 -88 167 -88 c 0
 197 -88 223 -99 248 -116 c 1
 252 -106 261 -90 273 -67 c 0
 283 -46 294 -23 300 0 c 1
 355 -13 l 1
 351 -30 339 -55 323 -87 c 0
 310 -117 296 -141 286 -154 c 1
 287 -154 300 -167 318 -194 c 1
 406 -119 l 1
 467 -199 l 1
 592 387 l 2
 593 396 594 404 594 411 c 0
 594 426 591 439 584 451 c 0
 576 468 560 483 538 493 c 0
 519 503 493 508 464 508 c 0
 406 508 352 490 302 454 c 1
 310 452 325 445 347 436 c 0
 367 426 386 412 402 393 c 1
 386 390 367 380 341 364 c 0
 315 348 297 319 289 280 c 2
 248 88 l 2
 242 61 231 38 207 20 c 0
 186 0 158 -10 126 -10 c 0
 96 -10 74 0 59 20 c 0
 50 34 44 51 44 70 c 0
 44 77 45 84 46 91 c 0
 52 119 67 142 88 162 c 0
 112 181 138 191 168 191 c 0
 183 191 193 190 200 186 c 1xfd
161 -222 m 0
 174 -213 184 -202 196 -190 c 0
 206 -178 213 -168 216 -164 c 1
 199 -149 181 -142 160 -142 c 0
 135 -142 117 -152 107 -173 c 1
 105 -181 104 -188 104 -195 c 0
 104 -217 115 -228 136 -229 c 0
 144 -229 154 -226 161 -222 c 0
136 41 m 0
 152 41 167 46 178 55 c 0
 190 65 196 77 199 91 c 0
 200 95 200 99 200 103 c 0
 200 112 198 119 193 126 c 0
 186 136 174 141 158 141 c 0
 144 141 129 136 117 126 c 0
 106 115 99 103 96 91 c 0
 95 88 95 85 95 82 c 0xfd
 95 73 98 65 104 58 c 0
 110 46 122 41 136 41 c 0
EndSplineSet
EndChar
StartChar: uni0E10
Encoding: 146 3600 146
OldEncoding: 3600
Width: 527
Flags: W
HStem: -307 43<35 49> -210 39<318 337> -191 43<63 77> -91 40<345 355> 0 21G<362 444> 141 49<233 251> 291 51<260 281> 463 59<548 566> 512 55<356 380>
DStem: 434 270 502 274 405 136 444 0
Fore
277 342 m 0x9e80
 299 342 318 336 335 325 c 0
 349 313 362 297 367 277 c 2
 405 136 l 1
 434 270 l 2
 442 312 441 339 429 354 c 0
 419 368 397 381 364 393 c 0
 326 405 290 413 249 419 c 0
 210 428 181 432 161 434 c 1
 190 471 225 503 262 529 c 0
 297 554 336 567 376 567 c 0x9e80
 397 567 418 566 431 563 c 0
 447 557 463 552 483 544 c 0
 503 536 518 531 528 528 c 0
 539 525 552 522 564 522 c 0
 583 522 603 528 624 536 c 1
 624 478 l 1
 593 467 568 463 548 463 c 0x9f
 532 463 519 464 508 467 c 0
 499 470 483 477 460 484 c 0
 439 493 422 500 409 505 c 0
 396 509 381 512 365 512 c 0
 349 512 332 506 312 499 c 0
 293 489 281 480 280 476 c 1
 287 474 297 471 310 467 c 0
 325 463 344 457 365 451 c 0
 389 445 407 441 418 438 c 0
 467 425 499 406 506 383 c 0
 516 358 512 323 502 274 c 2
 444 0 l 1
 362 0 l 1
 364 35 360 68 352 106 c 0
 344 144 336 173 331 190 c 1
 323 175 309 164 290 154 c 0
 273 146 255 141 235 141 c 0
 204 141 181 151 167 171 c 0
 154 191 149 215 155 241 c 0
 161 268 175 293 197 313 c 0
 220 332 246 342 277 342 c 0x9e80
326 -242 m 2
 328 -241 331 -235 334 -226 c 0
 336 -218 338 -213 338 -209 c 1
 336 -209 335 -209 332 -209 c 0
 331 -209 325 -209 320 -210 c 0xde
 296 -210 277 -202 267 -187 c 0
 255 -173 252 -154 257 -133 c 0
 262 -112 273 -93 291 -75 c 0
 310 -59 331 -51 355 -51 c 0
 380 -51 394 -58 407 -72 c 0
 419 -87 420 -106 415 -133 c 2
 394 -229 l 2
 393 -241 389 -251 384 -257 c 0
 377 -264 373 -268 362 -274 c 0
 354 -278 344 -286 334 -290 c 2
 281 -318 l 1
 228 -277 l 1
 155 -315 l 1
 135 -255 l 1
 110 -290 77 -310 35 -307 c 0
 -16 -306 -38 -277 -25 -223 c 0
 -20 -202 -6 -184 13 -168 c 0
 32 -154 54 -148 77 -148 c 0xbe
 97 -148 116 -154 136 -167 c 1
 138 -161 144 -149 152 -130 c 0
 160 -113 167 -88 173 -58 c 1
 223 -58 l 1
 212 -113 193 -162 167 -206 c 1
 184 -246 l 1
 184 -246 191 -242 204 -236 c 0
 219 -228 231 -223 241 -218 c 1
 297 -260 l 1
 326 -242 l 2
329 -171 m 0
 341 -171 352 -167 361 -160 c 0
 370 -151 374 -142 377 -130 c 0
 380 -119 378 -112 373 -103 c 0
 367 -96 358 -91 347 -91 c 0
 334 -91 322 -96 316 -103 c 1
 306 -112 302 -119 299 -130 c 0
 296 -141 297 -151 304 -160 c 1
 307 -167 316 -171 329 -171 c 0
245 190 m 0
 262 190 276 194 286 204 c 0
 297 216 303 228 306 241 c 0
 309 255 307 267 302 277 c 0
 296 287 284 291 267 291 c 0
 252 291 238 287 228 277 c 0
 216 267 207 255 204 241 c 0
 202 228 206 216 212 206 c 0
 218 194 231 190 245 190 c 0
65 -191 m 0xbe
 52 -191 44 -194 33 -203 c 0
 26 -212 20 -219 17 -229 c 0
 16 -238 19 -246 23 -252 c 0
 29 -261 36 -264 49 -264 c 0
 59 -264 70 -261 80 -254 c 0
 88 -248 96 -241 102 -232 c 0
 106 -225 109 -219 110 -218 c 1
 109 -213 103 -209 96 -202 c 0
 90 -194 78 -191 65 -191 c 0xbe
EndSplineSet
Substitution: 0 65534 'nds0' uni0E10.descless
Substitution: 0 65534 'ndsc' uni0E10.descless
EndChar
StartChar: uni0E11
Encoding: 147 3601 147
OldEncoding: 3601
Width: 771
Flags: W
HStem: 0 21G<280 349 618 686> 249 51<178 194> 402 48<210 223> 494 63<682 700>
DStem: 357 358 425 355 280 0 406 267 709 431 777 431 618 0 686 0
Fore
280 0 m 1
 357 358 l 2
 360 378 365 393 373 405 c 0
 380 415 389 423 396 429 c 0
 403 434 413 441 426 450 c 0
 435 454 438 458 439 467 c 0
 442 476 439 487 431 499 c 0
 420 508 412 515 403 516 c 1
 326 470 l 1
 258 516 l 1
 233 512 212 499 197 480 c 0
 180 463 170 445 167 431 c 1
 170 434 177 438 186 442 c 0
 194 447 207 450 223 450 c 0
 249 447 273 439 290 425 c 0
 306 407 310 383 303 349 c 0
 297 318 280 293 255 276 c 0
 231 257 204 249 180 249 c 0
 146 249 119 262 103 287 c 0
 87 313 84 345 93 387 c 0
 97 412 106 436 119 457 c 1
 133 490 160 516 193 538 c 0
 225 557 254 567 274 567 c 1
 338 522 l 1
 410 567 l 1
 436 558 458 545 477 528 c 0
 497 509 503 487 499 463 c 0
 496 451 493 441 486 434 c 0
 480 428 473 420 464 413 c 0
 454 406 445 399 438 390 c 0
 432 381 428 370 425 355 c 2
 406 267 l 1
 418 289 438 320 468 365 c 0
 496 409 535 452 576 493 c 0
 621 536 660 557 700 557 c 0
 735 557 758 544 770 519 c 0
 783 494 784 465 777 431 c 2
 686 0 l 1
 618 0 l 1
 709 431 l 2
 719 474 709 494 682 494 c 0
 663 494 638 478 606 444 c 0
 574 409 539 367 503 315 c 0
 464 261 432 206 406 151 c 0
 377 96 360 45 349 0 c 1
 280 0 l 1
212 402 m 0
 197 402 183 396 173 387 c 0
 160 377 154 365 149 351 c 0
 148 338 149 326 157 316 c 0
 164 304 175 300 190 300 c 0
 206 300 220 304 231 315 c 0
 242 326 249 338 251 351 c 0
 255 365 252 377 246 387 c 0
 239 396 228 402 212 402 c 0
EndSplineSet
EndChar
StartChar: uni0E12
Encoding: 148 3602 148
OldEncoding: 3602
Width: 822
Flags: W
HStem: -10 62<445 452> 374 51<358 372>
DStem: 480 157 548 149 461 65 529 62 508 567 492 509 400 503 389 451 525 368 594 368 490 204 560 203 789 557 856 557 692 100 737 0
Fore
490 204 m 1
 525 368 l 2
 534 406 536 434 534 454 c 0
 529 474 513 492 492 509 c 1
 389 451 l 1
 389 452 378 458 362 474 c 0
 344 489 325 500 313 509 c 1
 236 474 190 423 175 355 c 0
 167 312 171 260 194 202 c 0
 207 164 213 138 210 126 c 1
 226 151 245 173 262 190 c 0
 280 209 290 219 300 226 c 1
 278 232 264 246 255 264 c 0
 245 281 242 303 248 325 c 0
 254 352 267 376 289 394 c 0
 312 415 339 425 370 425 c 0
 402 425 425 415 438 393 c 0
 452 373 454 349 448 320 c 0
 445 304 439 291 432 280 c 0
 423 268 413 257 405 249 c 0
 393 241 381 231 370 219 c 0
 342 194 319 173 300 151 c 0
 281 129 262 106 245 81 c 0
 229 58 212 29 202 0 c 1
 133 0 l 1
 144 13 149 28 154 45 c 0
 157 61 157 86 151 119 c 0
 151 130 145 152 136 186 c 0
 125 218 116 248 112 276 c 0
 109 303 110 332 117 365 c 0
 128 412 154 451 190 484 c 0
 226 519 270 547 319 567 c 1
 400 503 l 1
 508 567 l 1
 542 550 566 531 579 513 c 0
 593 494 602 476 603 454 c 0
 605 432 602 403 594 368 c 2
 560 203 l 1
 583 199 608 187 637 168 c 0
 663 149 680 126 692 100 c 1
 789 557 l 1
 856 557 l 1
 737 0 l 1
 670 0 l 1
 648 78 609 128 548 149 c 1
 529 62 l 2
 519 14 493 -10 450 -10 c 0
 422 -10 402 1 392 23 c 0
 380 45 377 71 384 102 c 0
 390 129 403 154 423 174 c 0
 441 193 464 203 490 204 c 1
360 374 m 0
 345 374 331 368 319 358 c 0
 309 348 300 336 297 323 c 0
 294 310 299 299 303 289 c 0
 312 277 323 273 338 273 c 0
 355 273 370 277 378 287 c 0
 390 297 396 307 399 323 c 0
 403 338 400 349 394 358 c 0
 389 368 377 374 360 374 c 0
461 65 m 1
 480 157 l 1
 455 152 438 133 429 96 c 0
 426 84 429 74 432 65 c 0
 438 58 442 52 448 52 c 0
 452 52 458 58 461 65 c 1
EndSplineSet
EndChar
StartChar: uni0E13
Encoding: 149 3603 149
OldEncoding: 3603
Width: 801
Flags: W
HStem: -10 51<191 209> 141 50<218 235> 516 51<387 405>
DStem: 154 290 223 293 110 91 200 186 490 409 558 409 403 0 496 119 652 180 724 188 625 51 696 62 734 557 802 557 666 236 734 241
Fore
110 91 m 2
 154 290 l 2
 167 354 199 393 248 409 c 1
 241 416 226 426 207 438 c 0
 188 450 162 457 133 465 c 1
 151 483 181 505 225 529 c 0
 267 554 322 567 387 567 c 0
 523 567 580 515 558 409 c 2
 496 119 l 1
 547 178 603 218 666 236 c 1
 734 557 l 1
 802 557 l 1
 734 241 l 1
 767 236 790 225 805 203 c 0
 819 181 822 151 815 113 c 0
 806 72 787 42 761 22 c 0
 735 0 708 -12 680 -12 c 0
 661 -12 645 -7 635 4 c 0
 624 16 621 30 625 51 c 2
 652 180 l 1
 610 165 571 138 538 99 c 0
 505 59 483 26 471 0 c 1
 403 0 l 1
 490 409 l 2
 497 444 492 471 473 490 c 0
 452 508 425 516 387 516 c 0
 339 516 287 503 235 476 c 1
 244 471 260 464 281 452 c 0
 304 441 320 426 339 406 c 1
 331 406 320 405 307 400 c 0
 293 394 277 386 258 368 c 0
 241 351 231 326 223 293 c 2
 200 186 l 1
 206 190 218 191 235 191 c 0
 267 191 289 181 302 162 c 0
 313 142 316 119 310 91 c 0
 304 64 291 41 271 22 c 0
 249 0 225 -10 193 -10 c 0
 164 -10 141 0 126 17 c 0
 109 36 104 61 110 91 c 2
696 62 m 2
 693 51 699 45 706 45 c 0
 716 45 726 51 737 64 c 0
 750 75 758 91 764 113 c 0
 773 157 760 184 724 188 c 1
 696 62 l 2
202 41 m 0
 219 41 233 46 242 55 c 0
 254 65 260 77 262 91 c 0
 265 104 264 116 257 126 c 0
 251 136 239 141 223 141 c 0
 209 141 194 136 183 126 c 0
 173 116 164 104 161 91 c 0
 158 77 162 65 167 55 c 0
 175 46 187 41 202 41 c 0
EndSplineSet
EndChar
StartChar: uni0E14
Encoding: 150 3604 150
OldEncoding: 3604
Width: 600
Flags: W
HStem: 0 21G<133 202 447 516> 374 51<358 372> 519 51<383 432>
DStem: 526 373 594 368 447 0 516 0
Fore
178 362 m 0
 167 313 173 261 194 204 c 0
 207 171 210 142 204 119 c 1
 223 146 242 168 261 187 c 0
 278 204 290 218 300 226 c 1
 278 232 264 246 255 264 c 0
 245 281 242 303 248 325 c 0
 254 352 267 376 289 394 c 0
 312 415 339 425 370 425 c 0
 402 425 425 415 438 393 c 0
 452 373 454 349 448 320 c 0
 445 304 439 291 432 280 c 0
 423 268 413 257 405 249 c 0
 393 241 381 231 370 219 c 0
 342 194 319 173 300 151 c 0
 281 129 262 106 245 81 c 0
 229 58 212 29 202 0 c 1
 133 0 l 1
 144 13 149 28 154 45 c 0
 157 61 157 86 151 119 c 0
 151 133 145 155 135 187 c 0
 123 219 117 249 115 277 c 0
 112 304 110 335 119 365 c 0
 132 420 167 470 219 512 c 0
 268 551 335 570 415 570 c 0
 564 570 624 503 594 368 c 2
 516 0 l 1
 447 0 l 1
 526 373 l 2
 535 416 534 451 519 478 c 0
 506 506 467 519 403 519 c 0
 349 519 300 505 258 476 c 0
 216 445 188 407 178 362 c 0
360 374 m 0
 345 374 331 368 319 358 c 0
 309 348 300 336 297 323 c 0
 294 310 299 299 303 289 c 0
 312 277 323 273 338 273 c 0
 355 273 370 277 378 287 c 0
 390 297 396 307 399 323 c 0
 403 338 400 349 394 358 c 0
 389 368 377 374 360 374 c 0
EndSplineSet
EndChar
StartChar: uni0E15
Encoding: 151 3605 151
OldEncoding: 3605
Width: 600
Flags: W
HStem: 0 21G<133 202 447 516> 374 51<358 372>
DStem: 508 567 492 509 400 503 389 451 525 368 594 368 447 0 516 0
Fore
210 126 m 1
 226 151 245 173 262 190 c 0
 280 209 290 219 300 226 c 1
 278 232 264 246 255 264 c 0
 245 281 242 303 248 325 c 0
 254 352 267 376 289 394 c 0
 312 415 339 425 370 425 c 0
 402 425 425 415 438 393 c 0
 452 373 454 349 448 320 c 0
 445 304 439 291 432 280 c 0
 423 268 413 257 405 249 c 0
 393 241 381 231 370 219 c 0
 342 194 319 173 300 151 c 0
 281 129 262 106 245 81 c 0
 229 58 212 29 202 0 c 1
 133 0 l 1
 144 13 149 28 154 45 c 0
 157 61 157 86 151 119 c 0
 151 130 145 152 136 186 c 0
 125 218 116 248 112 276 c 0
 109 303 110 332 117 365 c 0
 128 412 154 451 190 484 c 0
 226 519 270 547 319 567 c 1
 400 503 l 1
 508 567 l 1
 542 550 566 531 579 513 c 0
 593 494 602 476 603 454 c 0
 605 432 602 403 594 368 c 2
 516 0 l 1
 447 0 l 1
 525 368 l 2
 534 406 536 434 534 454 c 0
 529 474 513 492 492 509 c 1
 389 451 l 1
 389 452 378 458 362 474 c 0
 344 489 325 500 313 509 c 1
 236 474 190 423 175 355 c 0
 167 312 171 260 194 202 c 0
 207 164 213 138 210 126 c 1
360 374 m 0
 345 374 331 368 319 358 c 0
 309 348 300 336 297 323 c 0
 294 310 299 299 303 289 c 0
 312 277 323 273 338 273 c 0
 355 273 370 277 378 287 c 0
 390 297 396 307 399 323 c 0
 403 338 400 349 394 358 c 0
 389 368 377 374 360 374 c 0
EndSplineSet
EndChar
StartChar: uni0E16
Encoding: 152 3606 152
OldEncoding: 3606
Width: 594
Flags: W
HStem: -10 51<191 206> 141 50<218 235> 508 59<378 412>
DStem: 151 277 220 280 110 91 200 186 523 387 592 387 441 0 509 0
Fore
110 91 m 2
 151 277 l 2
 157 310 170 335 186 352 c 0
 202 368 220 381 239 390 c 1
 233 396 222 405 203 416 c 0
 184 428 158 436 128 438 c 1
 146 458 181 487 232 519 c 0
 281 551 339 567 407 567 c 0
 448 567 484 560 516 547 c 0
 547 534 570 515 583 487 c 0
 597 458 599 425 592 387 c 2
 509 0 l 1
 441 0 l 1
 523 387 l 2
 528 412 525 432 515 451 c 0
 506 468 492 483 470 493 c 0
 450 503 423 508 396 508 c 0
 336 508 283 490 233 454 c 1
 242 452 257 445 278 436 c 0
 299 426 316 412 334 393 c 1
 318 390 297 380 271 364 c 0
 246 348 229 319 220 280 c 2
 200 186 l 1
 206 190 218 191 235 191 c 0
 267 191 289 181 302 162 c 0
 313 142 316 119 310 91 c 0
 304 64 291 41 271 22 c 0
 249 0 225 -10 193 -10 c 0
 164 -10 141 0 126 17 c 0
 109 36 104 61 110 91 c 2
202 41 m 0
 219 41 233 46 242 55 c 0
 254 65 260 77 262 91 c 0
 265 104 264 116 257 126 c 0
 251 136 239 141 223 141 c 0
 209 141 194 136 183 126 c 0
 173 116 164 104 161 91 c 0
 158 77 162 65 167 55 c 0
 175 46 187 41 202 41 c 0
EndSplineSet
EndChar
StartChar: uni0E17
Encoding: 153 3607 153
OldEncoding: 3607
Width: 659
Flags: W
HStem: 0 21G<167 236 505 574> 362 50<210 228> 494 63<570 587> 513 51<242 257>
DStem: 245 367 335 463 167 0 293 267 596 431 666 431 505 0 574 0
Fore
167 0 m 1xe0
 245 367 l 1
 236 364 226 362 213 362 c 0
 181 362 160 373 146 393 c 0
 133 413 128 436 133 464 c 0
 139 492 154 515 175 534 c 0
 197 554 225 564 257 564 c 0xd0
 277 564 293 558 306 551 c 0
 318 542 329 529 334 515 c 0
 338 500 339 481 335 463 c 2
 293 267 l 1
 307 289 326 316 348 349 c 0
 370 383 393 416 422 450 c 0
 450 480 476 506 505 528 c 0
 532 547 560 557 587 557 c 0
 612 557 631 551 642 539 c 0
 654 526 663 509 667 492 c 0
 671 474 670 452 666 431 c 2
 574 0 l 1
 505 0 l 1
 596 431 l 2
 606 474 596 494 570 494 c 0
 551 494 528 478 494 444 c 0
 461 409 426 367 390 315 c 0
 352 261 319 206 293 151 c 0
 264 96 246 45 236 0 c 1
 167 0 l 1xe0
245 513 m 0
 228 513 213 508 204 499 c 0
 194 489 187 477 184 463 c 0
 181 450 183 438 190 428 c 0
 194 416 206 412 223 412 c 0
 239 412 254 416 265 428 c 0
 274 438 283 450 286 463 c 0
 289 477 286 489 280 499 c 0
 273 508 261 513 245 513 c 0
EndSplineSet
EndChar
StartChar: uni0E18
Encoding: 154 3608 154
OldEncoding: 3608
Width: 532
Flags: W
HStem: 0 59<87 348> 335 20G<219 287> 465 56<526 540> 516 51<318 354>
DStem: 219 355 287 355 157 59 225 59 426 274 496 273 392 106 461 106
Fore
233 468 m 1xd0
 260 467 300 461 352 450 c 0
 405 438 447 415 477 383 c 0
 493 370 502 355 503 339 c 0
 505 323 502 300 496 273 c 2
 461 106 l 2
 451 62 436 33 419 20 c 0
 400 7 365 0 318 0 c 2
 75 0 l 1
 88 59 l 1
 157 59 l 1
 219 355 l 1
 287 355 l 1
 225 59 l 1
 331 59 l 2
 352 59 367 62 376 68 c 0
 381 74 387 87 392 106 c 2
 426 274 l 2
 431 293 432 310 432 320 c 0
 429 335 423 345 410 357 c 0
 387 378 357 394 315 406 c 0
 270 418 225 423 177 423 c 0
 164 423 145 420 123 419 c 1
 136 444 164 476 200 513 c 0
 239 550 284 567 342 567 c 0xd0
 377 567 416 558 455 544 c 0
 494 529 519 521 535 521 c 0
 554 521 576 526 596 536 c 1
 610 489 l 1
 581 474 552 465 528 465 c 0xe0
 513 465 496 468 477 476 c 0
 457 481 441 490 423 494 c 0
 409 500 394 505 381 509 c 0
 364 515 349 516 332 516 c 0
 303 516 281 509 265 499 c 0
 246 487 238 477 233 468 c 1xd0
EndSplineSet
EndChar
StartChar: uni0E19
Encoding: 155 3609 155
OldEncoding: 3609
Width: 645
Flags: W
HStem: -12 57<523 551> 362 51<212 227> 513 51<242 257>
DStem: 245 367 335 463 167 0 260 106 497 188 567 188 467 51 539 62 576 557 645 557 508 242 577 241
Fore
167 0 m 1
 245 367 l 1
 236 364 226 362 213 362 c 0
 181 362 160 373 146 393 c 0
 133 413 128 436 133 464 c 0
 139 492 154 515 175 534 c 0
 197 554 225 564 257 564 c 0
 277 564 293 558 306 551 c 0
 318 542 329 529 334 515 c 0
 338 500 339 481 335 463 c 2
 260 106 l 1
 328 180 412 226 508 242 c 1
 576 557 l 1
 645 557 l 1
 577 241 l 1
 610 236 635 225 648 203 c 0
 661 181 664 152 657 113 c 0
 648 72 631 42 606 22 c 0
 580 0 551 -12 523 -12 c 0
 503 -12 489 -7 478 4 c 0
 467 16 463 30 467 51 c 2
 497 188 l 1
 457 181 416 165 381 141 c 0
 344 116 313 90 291 65 c 0
 268 41 248 17 236 0 c 1
 167 0 l 1
245 513 m 0
 231 513 216 508 206 499 c 0
 194 489 187 477 184 464 c 0
 181 450 183 438 190 428 c 0
 194 418 207 413 225 413 c 0
 241 413 254 418 265 428 c 0
 274 439 283 451 286 464 c 0
 289 477 286 489 278 499 c 0
 271 508 260 513 245 513 c 0
539 62 m 2
 536 51 541 45 551 45 c 0
 560 45 568 51 581 64 c 0
 593 77 602 93 606 113 c 0
 615 157 603 184 567 188 c 1
 539 62 l 2
EndSplineSet
EndChar
StartChar: uni0E1A
Encoding: 156 3610 156
OldEncoding: 3610
Width: 640
Flags: W
HStem: 0 59<112 469> 362 50<211 229> 513 51<243 257>
DStem: 245 367 335 463 180 59 249 59 608 557 676 557 512 106 580 106
Fore
180 59 m 1
 245 367 l 1
 236 364 226 362 213 362 c 0
 181 362 160 373 146 393 c 0
 133 413 128 436 133 464 c 0
 139 492 154 515 175 534 c 0
 197 554 225 564 257 564 c 0
 277 564 293 558 306 551 c 0
 318 542 329 529 334 515 c 0
 338 500 339 481 335 463 c 2
 249 59 l 1
 451 59 l 2
 471 59 487 62 493 68 c 1
 500 74 508 87 512 106 c 2
 608 557 l 1
 676 557 l 1
 580 106 l 2
 570 62 557 33 538 20 c 0
 521 7 487 0 438 0 c 2
 100 0 l 1
 113 59 l 1
 180 59 l 1
245 513 m 0
 228 513 213 508 204 499 c 0
 194 489 187 477 184 463 c 0
 181 450 183 438 190 428 c 0
 194 416 206 412 223 412 c 0
 239 412 254 416 265 428 c 0
 274 438 283 450 286 463 c 0
 289 477 286 489 280 499 c 0
 273 508 261 513 245 513 c 0
EndSplineSet
EndChar
StartChar: uni0E1B
Encoding: 157 3611 157
OldEncoding: 3611
Width: 640
Flags: W
HStem: 0 59<112 469> 362 51<212 229> 513 51<243 257>
DStem: 245 367 335 463 180 59 249 59 650 758 718 758 512 106 580 106
AnchorPoint: "AboveBase" 578.043 652.5 basechar 0
Fore
180 59 m 1
 245 367 l 1
 236 364 226 362 213 362 c 0
 181 362 160 373 146 393 c 0
 133 413 128 436 133 464 c 0
 139 492 154 515 175 534 c 0
 197 554 225 564 257 564 c 0
 277 564 293 558 306 551 c 0
 318 542 329 529 334 515 c 0
 338 500 339 481 335 463 c 2
 249 59 l 1
 451 59 l 2
 471 59 487 62 493 68 c 1
 500 74 508 87 512 106 c 2
 650 758 l 1
 718 758 l 1
 580 106 l 2
 570 62 557 33 538 20 c 0
 521 7 487 0 438 0 c 2
 100 0 l 1
 113 59 l 1
 180 59 l 1
245 513 m 0
 231 513 216 508 206 499 c 0
 194 489 187 477 184 464 c 0
 181 450 183 438 190 428 c 0
 194 418 207 413 225 413 c 0
 241 413 254 418 265 428 c 0
 274 439 283 451 286 464 c 0
 289 477 286 489 278 499 c 0
 271 508 260 513 245 513 c 0
EndSplineSet
EndChar
StartChar: uni0E1C
Encoding: 158 3612 158
OldEncoding: 3612
Width: 613
Flags: W
HStem: 0 21G<86 154 461 529> 362 50<261 279> 513 51<292 306>
DStem: 184 463 232 368 86 0 184 144 358 236 374 312 450 102 492 144 374 312 358 236 184 144 210 102 580 557 648 557 492 144 529 0
Fore
232 368 m 1
 184 144 l 1
 374 312 l 1
 492 144 l 1
 580 557 l 1
 648 557 l 1
 529 0 l 1
 461 0 l 1
 471 45 465 77 450 102 c 2
 358 236 l 1
 210 102 l 2
 181 77 162 42 154 0 c 1
 86 0 l 1
 184 463 l 2
 190 492 203 516 226 536 c 0
 246 554 274 564 306 564 c 0
 338 564 360 554 374 534 c 0
 387 515 392 492 386 464 c 0
 380 436 365 412 344 392 c 0
 322 373 293 362 262 362 c 0
 252 362 242 364 232 368 c 1
273 412 m 0
 289 412 303 416 316 428 c 0
 325 439 334 451 336 463 c 0
 339 477 336 489 331 499 c 0
 322 508 310 513 294 513 c 0
 280 513 264 508 254 499 c 0
 242 487 236 476 233 463 c 0
 231 451 232 439 239 428 c 0
 245 416 258 412 273 412 c 0
EndSplineSet
EndChar
StartChar: uni0E1D
Encoding: 159 3613 159
OldEncoding: 3613
Width: 613
Flags: W
HStem: 0 21G<86 154 461 529> 362 51<262 279> 513 51<292 306>
DStem: 184 463 232 368 86 0 184 144 358 236 374 312 450 102 492 144 374 312 358 236 184 144 210 102 622 758 690 758 492 144 529 0
AnchorPoint: "AboveBase" 550.492 652.5 basechar 0
Fore
232 368 m 1
 184 144 l 1
 374 312 l 1
 492 144 l 1
 622 758 l 1
 690 758 l 1
 529 0 l 1
 461 0 l 1
 471 45 465 77 450 102 c 2
 358 236 l 1
 210 102 l 2
 181 77 162 42 154 0 c 1
 86 0 l 1
 184 463 l 2
 190 492 203 516 226 536 c 0
 246 554 274 564 306 564 c 0
 338 564 360 554 374 534 c 0
 387 515 392 492 386 464 c 0
 380 436 365 412 344 392 c 0
 322 373 293 362 262 362 c 0
 252 362 242 364 232 368 c 1
274 413 m 0
 290 413 303 418 316 429 c 0
 325 439 334 451 336 464 c 0
 339 476 335 487 329 499 c 0
 320 508 309 513 294 513 c 0
 280 513 264 508 255 499 c 0
 242 487 236 476 233 464 c 0
 231 451 232 439 239 429 c 0
 245 418 260 413 274 413 c 0
EndSplineSet
EndChar
StartChar: uni0E1E
Encoding: 160 3614 160
OldEncoding: 3614
Width: 710
Flags: W
HStem: 0 21G<167 236 567 635> 362 51<212 227> 513 51<242 257>
DStem: 245 367 335 463 167 0 274 180 492 425 521 557 568 68 605 178 521 557 492 425 274 180 264 68 686 557 754 557 605 178 635 0
Fore
167 0 m 1
 245 367 l 1
 236 364 226 362 213 362 c 0
 181 362 160 373 146 393 c 0
 133 413 128 436 133 464 c 0
 139 492 154 515 175 534 c 0
 197 554 225 564 257 564 c 0
 277 564 293 558 306 551 c 0
 318 542 329 529 334 515 c 0
 338 500 339 481 335 463 c 2
 274 180 l 1
 521 557 l 1
 605 178 l 1
 686 557 l 1
 754 557 l 1
 635 0 l 1
 567 0 l 1
 568 7 570 16 571 30 c 0
 574 46 571 58 568 68 c 2
 492 425 l 1
 264 68 l 2
 257 58 251 45 245 30 c 0
 241 16 239 7 236 0 c 1
 167 0 l 1
245 513 m 0
 231 513 216 508 206 499 c 0
 194 489 187 477 184 464 c 0
 181 450 183 438 190 428 c 0
 194 418 207 413 225 413 c 0
 241 413 254 418 265 428 c 0
 274 439 283 451 286 464 c 0
 289 477 286 489 278 499 c 0
 271 508 260 513 245 513 c 0
EndSplineSet
EndChar
StartChar: uni0E1F
Encoding: 161 3615 161
OldEncoding: 3615
Width: 710
Flags: W
HStem: 0 21G<167 236 567 635> 362 50<210 228> 513 51<242 257>
DStem: 245 367 335 463 167 0 274 180 492 425 521 557 568 68 605 178 521 557 492 425 274 180 264 68 728 758 796 758 605 178 635 0
AnchorPoint: "AboveBase" 647.643 652.5 basechar 0
Fore
167 0 m 1
 245 367 l 1
 236 364 226 362 213 362 c 0
 181 362 160 373 146 393 c 0
 133 413 128 436 133 464 c 0
 139 492 154 515 175 534 c 0
 197 554 225 564 257 564 c 0
 277 564 293 558 306 551 c 0
 318 542 329 529 334 515 c 0
 338 500 339 481 335 463 c 2
 274 180 l 1
 521 557 l 1
 605 178 l 1
 728 758 l 1
 796 758 l 1
 635 0 l 1
 567 0 l 1
 568 7 570 16 571 30 c 0
 574 46 571 58 568 68 c 2
 492 425 l 1
 264 68 l 2
 257 58 251 45 245 30 c 0
 241 16 239 7 236 0 c 1
 167 0 l 1
245 513 m 0
 228 513 213 508 204 499 c 0
 194 489 187 477 184 463 c 0
 181 450 183 438 190 428 c 0
 194 416 206 412 223 412 c 0
 239 412 254 416 265 428 c 0
 274 438 283 450 286 463 c 0
 289 477 286 489 280 499 c 0
 273 508 261 513 245 513 c 0
EndSplineSet
EndChar
StartChar: uni0E20
Encoding: 162 3616 162
OldEncoding: 3616
Width: 661
Flags: W
HStem: -10 51<125 141> 141 50<155 170> 508 59<459 478>
DStem: 220 277 289 280 200 186 248 88 592 387 660 387 509 0 577 0
Fore
200 186 m 1
 220 277 l 2
 225 299 232 318 242 335 c 0
 249 349 261 362 271 370 c 0
 283 378 297 386 309 390 c 1
 302 396 289 405 270 416 c 0
 252 428 226 436 194 438 c 1
 213 458 249 487 300 519 c 0
 352 551 409 567 476 567 c 0
 539 567 592 552 625 521 c 0
 660 490 671 445 660 387 c 2
 577 0 l 1
 509 0 l 1
 592 387 l 2
 596 412 594 432 584 451 c 0
 576 468 560 483 538 493 c 0
 519 503 493 508 464 508 c 0
 406 508 352 490 302 454 c 1
 310 452 325 445 347 436 c 0
 367 426 386 412 402 393 c 1
 386 390 367 380 341 364 c 0
 315 348 297 319 289 280 c 2
 248 88 l 2
 242 61 231 38 207 20 c 0
 186 0 158 -10 126 -10 c 0
 96 -10 74 0 59 20 c 0
 46 39 41 64 46 91 c 0
 52 119 67 142 88 162 c 0
 112 181 138 191 168 191 c 0
 183 191 193 190 200 186 c 1
136 41 m 0
 152 41 167 46 178 55 c 0
 190 65 196 77 199 91 c 0
 202 104 200 116 193 126 c 0
 186 136 174 141 158 141 c 0
 144 141 129 136 117 126 c 0
 106 115 99 103 96 91 c 0
 93 78 96 67 104 58 c 0
 110 46 122 41 136 41 c 0
EndSplineSet
EndChar
StartChar: uni0E21
Encoding: 163 3617 163
OldEncoding: 3617
Width: 638
Flags: W
HStem: -10 58<155 167> 191 51<216 231> 362 50<224 238> 513 51<256 270>
DStem: 220 191 290 188 196 75 268 86 258 367 348 463 231 242 300 242 603 557 673 557 509 116 554 0
Fore
231 242 m 1
 258 367 l 1
 249 364 239 362 226 362 c 0
 194 362 173 373 158 392 c 0
 145 412 142 436 148 464 c 0
 154 492 167 515 188 534 c 0
 210 554 238 564 270 564 c 0
 289 564 306 558 319 551 c 0
 331 542 342 529 347 515 c 0
 352 500 352 481 348 463 c 2
 300 242 l 1
 336 239 368 229 397 216 c 0
 426 202 451 187 470 168 c 0
 489 149 502 130 509 116 c 1
 603 557 l 1
 673 557 l 1
 554 0 l 1
 484 0 l 1
 489 22 484 46 468 74 c 0
 452 102 429 128 397 149 c 0
 365 171 329 184 290 188 c 1
 268 86 l 2
 261 55 248 33 229 16 c 0
 210 -1 186 -10 155 -10 c 0
 123 -10 99 1 86 26 c 0
 72 49 68 77 75 110 c 0
 83 144 102 175 129 202 c 0
 154 226 190 241 231 242 c 1
139 62 m 0
 146 52 154 48 165 48 c 0
 183 48 193 58 196 75 c 2
 220 191 l 1
 197 191 178 184 164 168 c 0
 148 152 139 135 135 113 c 0
 129 91 130 74 139 62 c 0
258 513 m 0
 244 513 229 508 218 499 c 0
 206 487 200 476 197 463 c 0
 194 451 196 439 203 428 c 0
 210 416 222 412 236 412 c 0
 252 412 267 416 278 428 c 0
 287 438 296 450 299 463 c 0
 302 477 299 489 293 499 c 0
 286 508 274 513 258 513 c 0
EndSplineSet
EndChar
StartChar: uni0E22
Encoding: 164 3618 164
OldEncoding: 3618
Width: 569
Flags: W
HStem: 0 59<154 393> 232 61<300 315> 376 49<280 291> 519 48<310 324>
DStem: 102 136 170 136 72 0 154 59 535 557 603 557 439 106 508 106
Fore
220 264 m 1
 187 276 167 293 155 319 c 0
 142 345 141 376 148 406 c 0
 155 447 177 484 212 518 c 0
 245 551 281 567 322 567 c 0
 352 567 374 557 389 539 c 0
 400 519 405 496 399 470 c 0
 393 444 380 420 360 403 c 0
 338 386 310 376 281 376 c 0
 260 376 244 378 235 387 c 0
 225 394 219 402 216 406 c 1
 207 368 215 339 236 320 c 0
 257 303 284 293 315 293 c 1
 302 232 l 1
 265 232 236 225 215 206 c 0
 191 188 175 165 170 136 c 2
 154 59 l 1
 378 59 l 2
 400 59 415 62 422 68 c 0
 429 74 435 87 439 106 c 2
 535 557 l 1
 603 557 l 1
 508 106 l 2
 497 62 484 33 467 20 c 0
 447 7 413 0 365 0 c 2
 72 0 l 1
 102 136 l 2
 107 164 116 186 129 203 c 0
 139 219 154 232 167 241 c 0
 181 249 191 255 202 260 c 0
 209 261 216 262 220 264 c 1
291 425 m 0
 322 426 344 441 349 471 c 0
 352 484 352 496 345 506 c 0
 338 515 326 519 312 519 c 0
 297 519 284 515 274 506 c 0
 265 496 257 484 254 471 c 0
 252 461 255 450 260 439 c 0
 267 429 277 425 291 425 c 0
EndSplineSet
EndChar
StartChar: uni0E23
Encoding: 165 3619 165
OldEncoding: 3619
Width: 511
Flags: W
HStem: -10 51<307 321> 141 50<332 353> 463 59<513 531> 513 54<329 350>
DStem: 399 270 467 274 380 187 428 88
Fore
467 274 m 2xd0
 428 88 l 2
 422 58 406 35 383 16 c 0
 362 -1 336 -10 309 -10 c 0
 277 -10 254 0 241 22 c 0
 226 41 222 64 228 90 c 0
 233 117 248 141 271 162 c 0
 293 181 318 191 348 191 c 0
 355 191 367 190 380 187 c 1
 399 270 l 2
 405 299 406 320 405 338 c 0
 402 354 394 365 383 374 c 0
 371 380 352 387 331 393 c 0
 290 405 254 413 213 419 c 0
 175 426 146 431 128 434 c 1
 155 471 191 503 228 529 c 0
 264 554 302 567 342 567 c 0xd0
 362 567 383 566 396 563 c 0
 412 557 429 552 448 544 c 0
 468 536 483 531 493 528 c 0
 505 525 518 522 529 522 c 0
 550 522 568 528 590 536 c 1
 590 478 l 1
 560 467 535 463 513 463 c 0xe0
 497 463 484 464 474 467 c 0
 464 470 450 477 426 487 c 0
 403 494 386 502 373 506 c 0
 360 512 345 513 331 513 c 0
 312 513 293 508 273 500 c 0
 254 490 241 481 238 476 c 1
 238 476 l 1
 238 476 286 463 383 438 c 0
 432 426 463 407 471 383 c 0
 480 358 477 323 467 274 c 2xd0
319 41 m 0
 335 41 349 46 360 55 c 0
 370 65 377 77 380 91 c 0
 383 104 380 116 374 126 c 0
 368 136 357 141 341 141 c 0
 325 141 310 136 300 126 c 0
 289 115 281 103 278 91 c 0
 276 78 278 67 287 58 c 0
 291 46 303 41 319 41 c 0
EndSplineSet
EndChar
StartChar: uni0E24
Encoding: 166 3620 166
OldEncoding: 3620
Width: 594
Flags: W
HStem: -10 51<191 206> 141 50<218 235> 508 59<378 412>
DStem: 151 277 220 280 110 91 200 186 523 387 592 387 378 -290 447 -290
Fore
110 91 m 2
 151 277 l 2
 157 310 170 335 186 352 c 0
 202 368 220 381 239 390 c 1
 233 396 222 405 203 416 c 0
 184 428 158 436 128 438 c 1
 146 458 181 487 232 519 c 0
 281 551 339 567 407 567 c 0
 448 567 484 560 516 547 c 0
 547 534 570 515 583 487 c 0
 597 458 599 425 592 387 c 2
 447 -290 l 1
 378 -290 l 1
 523 387 l 2
 528 412 525 432 515 451 c 0
 506 468 492 483 470 493 c 0
 450 503 423 508 396 508 c 0
 336 508 283 490 233 454 c 1
 242 452 257 445 278 436 c 0
 299 426 316 412 334 393 c 1
 318 390 297 380 271 364 c 0
 246 348 229 319 220 280 c 2
 200 186 l 1
 206 190 218 191 235 191 c 0
 267 191 289 181 302 162 c 0
 313 142 316 119 310 91 c 0
 304 64 291 41 271 22 c 0
 249 0 225 -10 193 -10 c 0
 164 -10 141 0 126 17 c 0
 109 36 104 61 110 91 c 2
202 41 m 0
 219 41 233 46 242 55 c 0
 254 65 260 77 262 91 c 0
 265 104 264 116 257 126 c 0
 251 136 239 141 223 141 c 0
 209 141 194 136 183 126 c 0
 173 116 164 104 161 91 c 0
 158 77 162 65 167 55 c 0
 175 46 187 41 202 41 c 0
EndSplineSet
EndChar
StartChar: uni0E25
Encoding: 167 3621 167
OldEncoding: 3621
Width: 572
Flags: W
HStem: -10 49<190 202> 141 50<217 234> 352 57<287 299> 513 54<374 399>
DStem: 500 383 570 383 460 191 489 0
Fore
287 352 m 1
 238 348 206 306 190 229 c 0
 186 215 184 199 181 178 c 1
 184 180 190 184 199 187 c 0
 207 190 218 191 232 191 c 0
 264 191 287 181 300 162 c 0
 313 142 316 119 310 91 c 0
 304 62 291 38 270 20 c 0
 248 0 222 -10 190 -10 c 0
 160 -10 136 0 122 22 c 0
 109 42 103 65 106 93 c 0
 107 130 115 178 128 232 c 0
 138 281 160 323 187 354 c 0
 216 387 246 405 289 409 c 1
 334 409 365 394 392 367 c 0
 416 338 432 303 444 265 c 0
 452 226 458 202 460 191 c 1
 500 383 l 2
 509 425 502 455 478 478 c 0
 457 502 420 513 376 513 c 0
 302 513 238 483 181 425 c 1
 145 458 l 1
 167 487 200 512 246 534 c 0
 290 555 338 567 390 567 c 0
 455 567 505 551 538 519 c 0
 573 489 583 442 570 383 c 2
 489 0 l 1
 419 0 l 1
 423 20 423 49 420 88 c 0
 416 126 409 167 399 209 c 0
 389 249 371 283 354 312 c 0
 335 339 312 352 287 352 c 1
222 141 m 0
 207 141 193 136 180 126 c 0
 171 116 162 104 160 90 c 0
 157 77 161 65 165 55 c 0
 174 45 186 39 200 39 c 0
 218 39 232 45 241 55 c 0
 252 65 258 77 261 90 c 0
 264 104 262 116 255 126 c 0
 251 136 239 141 222 141 c 0
EndSplineSet
EndChar
StartChar: uni0E26
Encoding: 168 3622 168
OldEncoding: 3622
Width: 661
Flags: W
HStem: -10 51<125 141> 141 50<155 170> 508 59<447 478>
DStem: 220 277 289 280 200 186 248 88 592 387 660 387 447 -290 515 -290
Fore
200 186 m 1
 220 277 l 2
 225 299 232 318 242 335 c 0
 249 349 261 362 271 370 c 0
 283 378 297 386 309 390 c 1
 302 396 289 405 270 416 c 0
 252 428 226 436 194 438 c 1
 213 458 249 487 300 519 c 0
 352 551 409 567 476 567 c 0
 539 567 592 552 625 521 c 0
 660 490 671 445 660 387 c 2
 515 -290 l 1
 447 -290 l 1
 592 387 l 2
 596 412 594 432 584 451 c 0
 576 468 560 483 538 493 c 0
 519 503 493 508 464 508 c 0
 406 508 352 490 302 454 c 1
 310 452 325 445 347 436 c 0
 367 426 386 412 402 393 c 1
 386 390 367 380 341 364 c 0
 315 348 297 319 289 280 c 2
 248 88 l 2
 242 61 231 38 207 20 c 0
 186 0 158 -10 126 -10 c 0
 96 -10 74 0 59 20 c 0
 46 39 41 64 46 91 c 0
 52 119 67 142 88 162 c 0
 112 181 138 191 168 191 c 0
 183 191 193 190 200 186 c 1
136 41 m 0
 152 41 167 46 178 55 c 0
 190 65 196 77 199 91 c 0
 202 104 200 116 193 126 c 0
 186 136 174 141 158 141 c 0
 144 141 129 136 117 126 c 0
 106 115 99 103 96 91 c 0
 93 78 96 67 104 58 c 0
 110 46 122 41 136 41 c 0
EndSplineSet
EndChar
StartChar: uni0E27
Encoding: 169 3623 169
OldEncoding: 3623
Width: 543
Flags: W
HStem: -10 51<355 367> 141 50<380 399> 513 54<345 368>
DStem: 471 383 538 383 429 187 476 91
Fore
538 383 m 2
 476 91 l 2
 470 64 458 41 438 22 c 0
 419 0 392 -10 357 -10 c 0
 326 -10 303 0 290 20 c 0
 276 39 270 64 276 91 c 0
 281 119 296 142 318 162 c 0
 339 181 365 191 397 191 c 0
 407 191 419 190 429 187 c 1
 471 383 l 2
 480 425 474 458 452 480 c 0
 431 503 396 513 351 513 c 0
 313 513 278 503 242 484 c 0
 209 467 181 444 160 419 c 1
 125 454 l 1
 141 474 160 492 186 509 c 0
 209 526 236 539 268 551 c 0
 299 563 332 567 362 567 c 0
 426 567 476 551 509 518 c 0
 541 487 551 441 538 383 c 2
387 141 m 0
 373 141 358 136 347 126 c 0
 336 115 328 103 325 91 c 0
 322 78 326 67 332 58 c 0
 339 46 351 41 365 41 c 0
 383 41 397 46 406 55 c 0
 418 65 423 77 426 91 c 0
 429 104 428 116 420 126 c 0
 416 136 405 141 387 141 c 0
EndSplineSet
EndChar
StartChar: uni0E28
Encoding: 170 3624 170
OldEncoding: 3624
Width: 600
Flags: W
HStem: 0 21G<141 209 447 516> 232 49<318 331> 383 51<349 364> 516 54<384 404>
DStem: 162 100 262 252 141 0 209 0 526 373 596 378 447 0 516 0
Fore
573 506 m 1
 579 513 589 525 599 541 c 0
 610 555 622 571 632 592 c 1
 686 560 l 1
 674 538 661 516 642 499 c 0
 622 478 606 464 597 455 c 1
 603 432 603 406 596 378 c 2
 516 0 l 1
 447 0 l 1
 526 373 l 2
 529 387 529 399 531 407 c 1
 522 403 508 394 489 386 c 0
 470 376 455 368 444 365 c 1
 444 361 442 355 442 351 c 0
 442 344 441 336 439 328 c 0
 434 300 420 278 396 261 c 0
 374 242 348 232 319 232 c 0
 291 232 273 239 262 252 c 1
 209 0 l 1
 141 0 l 1
 162 100 l 2
 167 125 168 146 164 165 c 0
 161 184 152 206 139 235 c 0
 128 262 122 286 117 304 c 0
 113 323 115 345 120 373 c 0
 129 415 148 451 175 480 c 0
 206 512 239 532 280 547 c 0
 319 563 361 570 402 570 c 0
 478 570 536 550 573 506 c 1
516 454 m 1
 510 465 497 478 478 493 c 0
 458 508 429 516 390 516 c 0
 365 516 338 512 312 503 c 0
 283 493 255 477 233 455 c 0
 207 432 194 403 187 368 c 0
 183 349 184 326 190 302 c 0
 197 277 199 257 199 242 c 1
 210 294 l 2
 219 336 235 368 262 394 c 0
 290 420 323 434 362 434 c 0
 378 434 390 432 399 429 c 0
 407 425 415 419 420 413 c 0
 426 407 428 405 428 405 c 1
 441 407 455 415 471 425 c 0
 489 434 503 444 516 454 c 1
351 383 m 0
 335 383 320 378 310 368 c 0
 302 358 293 348 290 332 c 0
 287 319 290 307 296 299 c 0
 302 287 313 281 329 281 c 0
 347 281 361 287 371 299 c 0
 381 307 389 319 392 332 c 0
 394 348 393 358 386 368 c 0
 380 378 368 383 351 383 c 0
EndSplineSet
EndChar
StartChar: uni0E29
Encoding: 171 3625 171
OldEncoding: 3625
Width: 658
Flags: W
HStem: 0 59<112 469> 202 50<484 516> 357 43<435 451> 362 50<211 229> 513 51<243 257>
DStem: 245 367 335 463 180 59 249 59 532 204 605 226 512 106 580 106 608 557 676 557 542 254 616 280
Fore
605 226 m 1xe8
 580 106 l 2
 570 62 557 33 538 20 c 0
 521 7 487 0 438 0 c 2
 100 0 l 1
 113 59 l 1
 180 59 l 1
 245 367 l 1
 236 364 226 362 213 362 c 0xd8
 181 362 160 373 146 393 c 0
 133 413 128 436 133 464 c 0
 139 492 154 515 175 534 c 0
 197 554 225 564 257 564 c 0
 277 564 293 558 306 551 c 0
 318 542 329 529 334 515 c 0
 338 500 339 481 335 463 c 2
 249 59 l 1
 451 59 l 2
 471 59 487 62 493 68 c 1
 500 74 508 87 512 106 c 2
 532 204 l 1
 523 203 509 202 487 202 c 0
 445 203 409 212 377 228 c 0
 347 244 336 273 344 312 c 0
 348 332 358 354 378 373 c 0
 396 390 420 400 451 400 c 0
 481 400 502 392 513 376 c 0
 525 357 528 336 523 313 c 0
 518 286 506 265 484 252 c 1
 505 252 523 252 542 254 c 1
 608 557 l 1
 676 557 l 1
 616 280 l 1
 629 289 642 302 658 319 c 0
 673 336 683 361 692 393 c 1
 747 393 l 1
 737 345 719 310 693 287 c 0
 670 265 639 244 605 226 c 1xe8
422 268 m 0
 431 268 439 270 448 276 c 0
 455 280 463 286 467 291 c 0
 471 299 474 304 476 313 c 0
 478 326 477 336 471 344 c 0
 465 352 455 357 441 357 c 0xe8
 426 357 416 352 405 344 c 0
 396 336 390 325 387 313 c 0
 384 302 387 291 392 281 c 0
 399 274 407 268 422 268 c 0
245 513 m 0
 228 513 213 508 204 499 c 0
 194 489 187 477 184 463 c 0
 181 450 183 438 190 428 c 0
 194 416 206 412 223 412 c 0xd8
 239 412 254 416 265 428 c 0
 274 438 283 450 286 463 c 0
 289 477 286 489 280 499 c 0
 273 508 261 513 245 513 c 0
EndSplineSet
EndChar
StartChar: uni0E2A
Encoding: 172 3626 172
OldEncoding: 3626
Width: 572
Flags: W
HStem: -10 49<190 202> 141 50<217 234> 352 57<287 299> 513 54<365 399>
DStem: 500 383 570 383 460 191 489 0
Fore
222 141 m 0
 207 141 193 136 180 126 c 0
 171 116 162 104 160 90 c 0
 157 77 161 65 165 55 c 0
 174 45 186 39 200 39 c 0
 218 39 232 45 241 55 c 0
 252 65 258 77 261 90 c 0
 264 104 262 116 255 126 c 0
 251 136 239 141 222 141 c 0
497 451 m 1
 496 445 483 429 455 400 c 0
 429 373 413 354 412 349 c 1
 422 335 431 315 438 293 c 0
 445 273 448 252 452 235 c 0
 455 216 458 202 460 191 c 1
 500 383 l 2
 506 407 505 429 497 451 c 1
390 389 m 2
 393 389 406 405 435 436 c 0
 463 467 477 481 477 481 c 1
 457 503 422 513 376 513 c 0
 302 513 238 483 181 425 c 1
 145 458 l 1
 167 487 200 512 246 534 c 0
 290 555 338 567 390 567 c 0
 439 567 481 557 515 538 c 0
 518 538 531 551 551 576 c 0
 573 600 587 613 593 613 c 0
 593 610 599 608 606 603 c 0
 615 596 622 590 629 584 c 0
 635 580 637 576 637 570 c 1
 625 560 610 545 589 526 c 0
 566 508 557 499 557 496 c 0
 574 467 580 429 570 383 c 2
 489 0 l 1
 419 0 l 1
 423 20 423 49 420 88 c 0
 416 126 409 167 399 209 c 0
 389 249 371 283 354 312 c 0
 335 339 312 352 287 352 c 1
 238 348 206 306 190 229 c 0
 186 215 184 199 181 178 c 1
 184 180 190 184 199 187 c 0
 207 190 218 191 232 191 c 0
 264 191 287 181 300 162 c 0
 313 142 316 119 310 91 c 0
 304 62 291 38 270 20 c 0
 248 0 222 -10 190 -10 c 0
 160 -10 136 0 122 22 c 0
 109 42 103 65 106 93 c 0
 107 130 115 178 128 232 c 0
 138 281 160 323 187 354 c 0
 216 387 246 405 289 409 c 1
 323 409 347 405 360 396 c 1
 360 396 362 396 367 394 c 0
 373 393 378 393 383 392 c 0
 387 390 390 389 390 389 c 2
EndSplineSet
EndChar
StartChar: uni0E2B
Encoding: 173 3627 173
OldEncoding: 3627
Width: 658
Flags: W
HStem: 0 21G<167 236 506 574> 362 50<210 228> 513 51<239 257 578 594>
DStem: 245 367 335 463 167 0 281 209 563 264 631 264 506 0 574 0
Fore
167 0 m 1
 245 367 l 1
 236 364 226 362 213 362 c 0
 181 362 160 373 146 393 c 0
 133 413 128 436 133 464 c 0
 139 492 154 515 175 534 c 0
 197 554 225 564 257 564 c 0
 277 564 293 558 306 551 c 0
 318 542 329 529 334 515 c 0
 338 500 339 481 335 463 c 2
 281 209 l 1
 309 255 345 291 389 323 c 0
 432 352 465 374 487 383 c 1
 467 402 461 428 468 463 c 0
 474 490 489 513 512 534 c 0
 534 554 563 564 594 564 c 0
 626 564 648 554 663 534 c 0
 676 515 680 492 674 464 c 0
 670 445 661 429 651 413 c 0
 637 396 621 383 602 376 c 1
 610 373 619 362 626 344 c 0
 637 328 638 302 631 264 c 2
 574 0 l 1
 506 0 l 1
 563 264 l 2
 568 294 568 316 560 329 c 0
 551 341 544 349 538 352 c 1
 458 316 393 265 341 202 c 0
 284 138 252 77 241 22 c 2
 236 0 l 1
 167 0 l 1
583 515 m 0
 567 515 554 509 544 500 c 0
 532 490 525 478 522 464 c 0
 519 451 521 439 529 429 c 0
 534 418 547 413 563 413 c 0
 579 413 592 418 603 429 c 0
 612 439 621 451 624 464 c 0
 626 478 624 490 618 500 c 0
 612 509 599 515 583 515 c 0
245 513 m 0
 228 513 213 508 204 499 c 0
 194 489 187 477 184 463 c 0
 181 450 183 438 190 428 c 0
 194 416 206 412 223 412 c 0
 239 412 254 416 265 428 c 0
 274 438 283 450 286 463 c 0
 289 477 286 489 280 499 c 0
 273 508 261 513 245 513 c 0
EndSplineSet
EndChar
StartChar: uni0E2C
Encoding: 174 3628 174
OldEncoding: 3628
Width: 710
Flags: W
HStem: 0 21G<167 236 557 626> 362 50<210 228> 465 48<642 655> 513 51<242 257> 597 45<668 683>
DStem: 245 367 335 463 167 0 274 178 484 393 513 532 561 68 594 178 513 532 484 393 274 178 264 68 655 465 728 478 594 178 626 0
AnchorPoint: "AboveBase" 647.643 652.5 basechar 0
Fore
167 0 m 1
 245 367 l 1
 236 364 226 362 213 362 c 0
 181 362 160 373 146 393 c 0
 133 413 128 436 133 464 c 0
 139 492 154 515 175 534 c 0
 197 554 225 564 257 564 c 0
 277 564 293 558 306 551 c 0
 318 542 329 529 334 515 c 0
 338 500 339 481 335 463 c 2
 274 178 l 1
 513 532 l 1
 594 178 l 1
 655 465 l 1
 621 465 597 474 583 492 c 0
 570 508 567 529 573 557 c 0
 577 581 590 602 612 618 c 0
 634 634 655 642 683 642 c 0
 708 642 726 634 738 616 c 0
 753 597 754 576 748 547 c 1
 758 551 770 558 786 571 c 0
 802 584 813 603 826 626 c 1
 869 597 l 1
 851 567 829 542 800 521 c 0
 771 500 747 484 728 478 c 1
 626 0 l 1
 557 0 l 2
 555 0 557 4 558 13 c 0
 560 22 560 30 561 42 c 0
 563 54 563 64 561 68 c 2
 484 393 l 1
 264 68 l 2
 257 58 251 46 246 33 c 0
 242 17 239 7 236 0 c 1
 167 0 l 1
245 513 m 0
 228 513 213 508 204 499 c 0
 194 489 187 477 184 463 c 0
 181 450 183 438 190 428 c 0
 194 416 206 412 223 412 c 0
 239 412 254 416 265 428 c 0
 274 438 283 450 286 463 c 0
 289 477 286 489 280 499 c 0
 273 508 261 513 245 513 c 0
651 513 m 0
 666 513 677 518 687 526 c 0
 695 534 700 544 702 555 c 0
 705 567 705 579 700 587 c 0
 693 594 684 597 670 597 c 0
 657 597 645 593 638 584 c 0
 628 577 622 567 619 555 c 0
 618 544 618 534 625 526 c 0
 629 518 638 513 651 513 c 0
EndSplineSet
EndChar
StartChar: uni0E2D
Encoding: 175 3629 175
OldEncoding: 3629
Width: 587
Flags: W
HStem: 0 59<205 413> 199 50<235 253> 349 51<265 280> 515 52<379 405>
DStem: 155 299 204 204 115 106 184 106 515 383 584 383 457 106 526 106
Fore
204 204 m 1
 184 106 l 2
 180 87 180 74 186 68 c 1
 188 62 203 59 225 59 c 2
 396 59 l 2
 418 59 432 62 441 68 c 0
 447 74 452 87 457 106 c 2
 515 383 l 2
 523 425 516 457 493 478 c 0
 470 502 434 515 389 515 c 0
 319 516 252 484 194 425 c 1
 160 458 l 1
 181 487 215 512 260 534 c 0
 303 555 351 567 403 567 c 0
 445 567 481 560 512 545 c 0
 542 531 564 512 579 483 c 0
 590 455 593 423 584 383 c 2
 526 106 l 2
 516 62 502 33 484 20 c 0
 465 7 431 0 383 0 c 2
 212 0 l 2
 177 0 152 3 138 9 c 0
 122 13 113 23 112 38 c 1
 107 52 107 75 115 106 c 2
 155 299 l 2
 158 312 165 326 174 341 c 0
 181 355 196 370 215 381 c 0
 232 393 254 400 280 400 c 0
 312 400 334 390 347 370 c 0
 361 351 364 328 358 300 c 0
 352 273 339 248 316 228 c 0
 296 209 268 199 236 199 c 0
 232 199 220 200 204 204 c 1
246 249 m 0
 262 249 276 254 287 265 c 0
 297 274 304 286 307 299 c 0
 310 313 309 325 302 335 c 0
 296 344 284 349 267 349 c 0
 251 349 236 344 226 336 c 0
 218 326 209 315 206 300 c 0
 203 286 206 274 212 264 c 0
 219 254 232 249 246 249 c 0
EndSplineSet
EndChar
StartChar: uni0E2E
Encoding: 176 3630 176
OldEncoding: 3630
Width: 587
Flags: W
HStem: 0 59<210 413> 144 49<223 243> 294 51<251 268> 373 55<331 365> 516 51<363 398>
DStem: 522 413 596 434 457 106 526 106
Fore
115 106 m 2
 142 242 l 2
 148 265 161 289 181 312 c 0
 200 335 231 345 268 345 c 0
 300 345 322 336 335 316 c 0
 351 297 352 274 347 246 c 0
 341 218 328 194 306 174 c 0
 284 154 257 144 225 144 c 0
 215 144 203 146 193 151 c 1
 184 106 l 2
 180 87 180 74 186 68 c 1
 188 62 203 59 225 59 c 2
 396 59 l 2
 418 59 432 62 441 68 c 0
 447 74 452 87 457 106 c 2
 522 413 l 1
 509 403 484 393 448 386 c 0
 409 377 377 373 347 373 c 0
 297 373 255 380 218 396 c 0
 180 413 165 436 171 465 c 0
 177 489 188 508 215 522 c 0
 239 538 267 550 299 557 c 0
 332 564 360 567 387 567 c 0
 431 567 464 563 492 554 c 0
 518 545 538 534 554 522 c 0
 566 513 573 508 573 506 c 1
 573 506 l 1
 599 528 624 550 644 570 c 1
 683 532 l 1
 664 512 647 493 629 480 c 0
 612 467 599 458 592 454 c 1
 594 451 596 444 596 434 c 1
 526 106 l 2
 516 62 502 33 484 20 c 0
 465 7 431 0 383 0 c 2
 212 0 l 2
 177 0 152 3 138 9 c 0
 122 13 113 23 112 38 c 1
 107 52 107 75 115 106 c 2
358 428 m 0
 386 428 412 431 436 438 c 0
 461 442 480 447 497 454 c 0
 512 461 518 464 518 465 c 0
 513 474 499 484 478 499 c 0
 457 509 422 516 377 516 c 0
 347 516 315 513 287 505 c 0
 260 496 244 484 241 468 c 0
 235 441 276 428 358 428 c 0
233 193 m 0
 251 193 265 199 276 209 c 0
 286 219 293 231 296 244 c 0
 299 260 297 270 290 280 c 0
 286 290 273 294 255 294 c 0
 241 294 228 290 215 280 c 0
 206 273 197 260 194 244 c 0
 191 229 194 218 200 209 c 0
 207 199 219 193 233 193 c 0
EndSplineSet
EndChar
StartChar: uni0E2F
Encoding: 177 3631 177
OldEncoding: 3631
Width: 546
Flags: W
HStem: 251 61<276 302> 368 48<250 262> 516 51<276 293>
DStem: 471 365 581 557 431 180 500 174
Fore
287 567 m 0
 320 567 344 557 355 539 c 0
 370 519 373 496 367 468 c 0
 361 442 345 419 326 400 c 0
 303 378 280 368 252 368 c 0
 238 368 226 370 218 376 c 0
 209 378 204 381 200 383 c 1
 204 364 215 348 231 332 c 0
 245 318 267 312 293 312 c 0
 323 312 354 323 384 345 c 0
 413 368 439 399 465 436 c 0
 489 474 502 513 512 557 c 1
 581 557 l 1
 500 174 l 2
 487 117 465 75 431 46 c 0
 396 16 348 -7 283 -22 c 1
 278 41 l 1
 331 52 367 68 389 87 c 1
 407 104 422 136 431 180 c 2
 471 365 l 1
 448 328 420 299 387 280 c 0
 352 261 318 251 283 251 c 0
 246 251 215 261 187 281 c 0
 160 303 144 331 141 365 c 0
 139 383 139 403 144 425 c 0
 152 464 168 499 191 526 c 0
 216 554 246 567 287 567 c 0
260 416 m 0
 276 416 290 420 300 431 c 0
 310 441 318 452 320 467 c 0
 323 480 320 492 313 502 c 0
 307 512 296 516 281 516 c 0
 265 516 251 512 242 502 c 0
 231 492 223 480 220 467 c 0
 218 452 220 441 226 431 c 0
 232 420 244 416 260 416 c 0
EndSplineSet
EndChar
StartChar: uni0E30
Encoding: 178 3632 178
OldEncoding: 3632
Width: 453
Flags: W
HStem: 0 21G<161 207.5> 157 45<164 175> 365 21G<238.5 285.5> 522 45<240 255>
Fore
264 365 m 0
 213 365 177 376 157 396 c 0
 136 416 129 441 135 470 c 0
 141 496 155 519 177 539 c 0
 199 557 223 567 251 567 c 0
 286 567 309 558 320 541 c 0
 335 522 338 502 332 477 c 0
 328 457 318 438 300 419 c 1
 318 419 345 428 376 444 c 0
 409 463 431 500 444 557 c 1
 512 557 l 1
 503 516 487 480 464 452 c 0
 441 425 413 402 380 387 c 0
 345 373 307 365 264 365 c 0
186 0 m 0
 136 0 100 10 78 30 c 0
 59 52 51 77 57 104 c 0
 62 129 77 152 99 173 c 0
 120 191 146 203 174 202 c 0
 199 202 215 194 228 187 c 0
 241 178 248 167 255 154 c 0
 258 141 257 126 254 112 c 0
 249 90 241 72 223 54 c 1
 241 54 267 62 299 80 c 0
 331 97 354 135 365 191 c 1
 434 191 l 1
 425 151 410 115 387 87 c 0
 364 58 335 36 302 22 c 0
 267 7 229 0 186 0 c 0
164 157 m 0
 149 157 136 152 128 144 c 0
 117 135 112 123 109 110 c 0
 106 99 109 87 115 77 c 0
 120 67 129 62 144 62 c 0
 160 62 174 67 183 75 c 0
 194 86 199 97 202 110 c 0
 204 125 204 136 197 144 c 0
 191 152 180 157 164 157 c 0
242 522 m 0
 228 522 215 518 206 509 c 0
 194 500 190 489 187 476 c 0
 184 464 186 452 193 442 c 0
 197 432 207 428 222 428 c 0
 238 428 251 432 261 442 c 0
 271 451 277 463 280 476 c 0
 286 506 274 522 242 522 c 0
EndSplineSet
EndChar
StartChar: uni0E31
Encoding: 179 3633 179
OldEncoding: 3633
Width: 0
Flags: W
HStem: 658 58<13 28> 841 46<-74 -62>
AnchorPoint: "AboveMark" 124.065 965.7 basemark 0
AnchorPoint: "AboveBase" 83.5928 652.5 mark 0
Fore
-180 780 m 1
 -173 811 -160 837 -138 857 c 0
 -117 879 -93 887 -62 887 c 0
 -30 887 -10 879 4 860 c 0
 17 841 22 819 16 795 c 0
 10 767 -4 744 -30 724 c 1
 -25 722 -14 721 -1 719 c 0
 12 718 22 716 28 716 c 0
 59 718 91 726 122 737 c 0
 155 751 184 767 210 792 c 0
 236 815 257 841 273 871 c 1
 323 844 l 1
 307 811 283 782 251 754 c 0
 216 726 180 705 139 686 c 0
 97 668 55 658 13 658 c 0
 -46 657 -93 668 -129 686 c 0
 -167 706 -184 737 -180 780 c 1
-93 745 m 0
 -78 745 -65 751 -55 758 c 0
 -45 768 -39 780 -36 793 c 0
 -33 808 -35 819 -41 828 c 0
 -48 835 -58 841 -72 841 c 0
 -87 841 -100 835 -110 828 c 0
 -119 819 -128 808 -130 793 c 0
 -132 782 -129 770 -125 760 c 0
 -117 751 -107 745 -93 745 c 0
EndSplineSet
EndChar
StartChar: uni0E32
Encoding: 180 3634 180
OldEncoding: 3634
Width: 484
Flags: W
HStem: 0 21G<331 400> 516 51<307 341>
DStem: 418 406 486 403 331 0 400 0
Fore
116 444 m 1
 145 483 175 515 210 536 c 0
 242 557 281 567 331 567 c 0
 387 567 431 552 460 525 c 0
 487 496 497 455 486 403 c 2
 400 0 l 1
 331 0 l 1
 418 406 l 2
 425 441 419 470 403 489 c 0
 383 508 357 516 320 516 c 0
 289 516 258 508 231 490 c 0
 202 471 178 447 161 419 c 1
 154 425 146 428 139 432 c 0
 132 436 122 439 116 444 c 1
EndSplineSet
EndChar
StartChar: uni0E33
Encoding: 181 3635 181
OldEncoding: 3635
Width: 484
Flags: W
HStem: 0 21G<331 400> 516 51<318 337> 660 45<20 32> 816 44<47 66>
DStem: 418 406 486 403 331 0 400 0
Fore
22 660 m 0
 -10 660 -33 670 -46 690 c 0
 -61 709 -67 732 -61 760 c 0
 -54 789 -41 811 -17 831 c 0
 4 850 30 860 64 860 c 0
 94 860 117 850 130 831 c 0
 145 811 148 789 141 760 c 0
 135 732 123 709 100 690 c 0
 78 670 52 660 22 660 c 0
116 444 m 1
 145 483 175 515 210 536 c 0
 242 557 281 567 331 567 c 0
 387 567 431 552 460 525 c 0
 487 496 497 455 486 403 c 2
 400 0 l 1
 331 0 l 1
 418 406 l 2
 425 441 419 470 403 489 c 0
 383 508 357 516 320 516 c 0
 289 516 258 508 231 490 c 0
 202 471 178 447 161 419 c 1
 154 425 146 428 139 432 c 0
 132 436 122 439 116 444 c 1
55 816 m 0
 36 816 22 811 9 799 c 0
 -3 789 -10 774 -14 760 c 0
 -17 745 -16 732 -7 721 c 0
 0 709 12 705 30 705 c 0
 41 705 52 708 62 713 c 0
 71 718 78 726 86 734 c 0
 93 742 96 753 97 760 c 0
 102 774 100 789 91 799 c 0
 84 811 72 816 55 816 c 0
EndSplineSet
MultipleSubs: 0 1 'ccmp' uni0E4D uni0E32
EndChar
StartChar: uni0E34
Encoding: 182 3636 182
OldEncoding: 3636
Width: 0
Flags: W
HStem: 708 49<-233 -176> 834 50<-122 -96>
AnchorPoint: "AboveMark" 89.2656 965.7 basemark 0
AnchorPoint: "AboveBase" 86.4932 652.5 mark 0
Fore
-96 884 m 5
 -25 874 20 847 44 802 c 4
 62 755 74 706 74 652 c 5
 57 658 29 668 -6 680 c 4
 -42 692 -81 697 -125 703 c 4
 -152 706 -183 708 -213 708 c 4
 -249 708 -283 706 -312 705 c 4
 -341 702 -364 697 -376 696 c 5
 -362 729 -342 760 -312 790 c 4
 -286 819 -252 842 -215 858 c 4
 -175 877 -136 884 -96 884 c 5
-120 834 m 5
 -155 834 -186 826 -218 808 c 4
 -248 792 -270 773 -278 753 c 5
 -268 754 -260 754 -244 755 c 4
 -229 757 -206 757 -178 757 c 4
 -154 757 -136 757 -123 755 c 4
 -81 753 -51 745 -28 735 c 4
 -4 728 7 719 16 715 c 5
 -1 783 -45 822 -120 834 c 5
EndSplineSet
EndChar
StartChar: uni0E35
Encoding: 183 3637 183
OldEncoding: 3637
Width: 0
Flags: W
HStem: 708 49<-231 -176> 834 50<-121 -94>
DStem: 55 950 117 950 28 821 70 722
AnchorPoint: "AboveMark" 89.2656 965.7 basemark 0
AnchorPoint: "AboveBase" 54.5928 652.5 mark 0
Fore
28 821 m 1
 55 950 l 1
 117 950 l 1
 70 722 l 1
 70 722 l 1
 70 722 70 716 71 705 c 0
 72 692 74 673 74 652 c 5
 58 658 29 668 -6 680 c 0
 -42 692 -81 697 -123 703 c 0
 -152 706 -181 708 -213 708 c 0
 -248 708 -281 706 -310 705 c 0
 -341 702 -362 697 -374 696 c 1
 -362 729 -342 760 -312 790 c 0
 -284 819 -252 842 -213 860 c 0
 -174 877 -135 884 -94 884 c 1
 -70 882 -48 874 -29 866 c 0
 -10 857 1 847 12 840 c 0
 20 831 25 824 28 821 c 1
-119 834 m 1
 -144 834 -165 829 -187 821 c 0
 -209 812 -226 803 -242 790 c 0
 -258 779 -270 766 -277 753 c 1
 -268 754 -258 754 -244 755 c 0
 -229 757 -206 757 -178 757 c 0
 -154 757 -135 757 -122 755 c 0
 -81 753 -49 745 -26 735 c 0
 -3 728 9 719 17 715 c 1
 12 742 -1 768 -22 792 c 0
 -42 815 -71 829 -119 834 c 1
EndSplineSet
EndChar
StartChar: uni0E36
Encoding: 184 3638 184
OldEncoding: 3638
Width: 0
Flags: W
HStem: 708 49<-233 -176> 834 53<-137 -120> 916 44<46 59>
AnchorPoint: "AboveMark" 57.3652 965.7 basemark 0
AnchorPoint: "AboveBase" 86.4932 652.5 mark 0
Fore
128 871 m 4
 123 850 115 832 100 816 c 4
 84 799 68 790 48 786 c 5
 55 774 59 758 67 734 c 4
 72 709 74 682 74 652 c 5
 57 658 29 668 -6 680 c 4
 -42 692 -81 697 -125 703 c 4
 -152 706 -183 708 -213 708 c 4
 -249 708 -283 706 -312 705 c 4
 -341 702 -364 697 -376 696 c 5
 -361 731 -341 764 -312 795 c 4
 -284 824 -251 847 -218 864 c 4
 -184 880 -152 887 -123 887 c 4
 -112 887 -99 886 -87 884 c 4
 -77 883 -67 880 -59 879 c 4
 -52 874 -49 873 -49 873 c 5
 -45 895 -32 915 -12 932 c 4
 6 950 30 960 57 960 c 4
 84 960 106 953 116 935 c 4
 128 918 130 896 128 871 c 4
48 916 m 4
 33 916 23 912 16 905 c 4
 4 896 0 886 -3 874 c 4
 -4 866 -4 856 3 847 c 4
 9 840 17 834 30 834 c 4
 42 834 54 840 64 847 c 4
 72 856 78 866 80 874 c 4
 83 886 81 896 78 905 c 4
 71 912 61 916 48 916 c 4
-120 834 m 5
 -145 834 -165 829 -188 821 c 4
 -210 812 -228 803 -244 790 c 4
 -260 779 -271 766 -278 753 c 5
 -268 754 -260 754 -244 755 c 4
 -229 757 -206 757 -178 757 c 4
 -154 757 -136 757 -123 755 c 4
 -81 753 -51 745 -28 735 c 4
 -4 728 7 719 16 715 c 5
 10 742 -3 767 -22 790 c 4
 -42 812 -74 828 -120 834 c 5
EndSplineSet
EndChar
StartChar: uni0E37
Encoding: 185 3639 185
OldEncoding: 3639
Width: 0
Flags: W
HStem: 708 49<-231 -176> 834 53<-135 -117>
DStem: -68 950 -6 950 -83 883 -23 864 55 950 117 950 28 819 70 721
AnchorPoint: "AboveMark" 28.3652 965.7 basemark 0
AnchorPoint: "AboveBase" 54.5928 652.5 mark 0
Fore
70 721 m 1
 71 721 71 697 74 652 c 5
 58 658 29 668 -6 680 c 0
 -42 692 -81 697 -123 703 c 0
 -152 706 -181 708 -213 708 c 0
 -248 708 -281 706 -310 705 c 0
 -341 702 -362 697 -374 696 c 1
 -362 732 -338 766 -312 793 c 0
 -281 822 -252 845 -219 861 c 0
 -183 880 -148 887 -117 887 c 0
 -104 887 -93 886 -83 883 c 1
 -68 950 l 1
 -6 950 l 1
 -23 864 l 1
 0 854 16 840 28 819 c 1
 55 950 l 1
 117 950 l 1
 70 721 l 1
-119 834 m 1
 -154 834 -184 826 -216 808 c 0
 -248 792 -268 773 -277 753 c 1
 -268 754 -258 754 -244 755 c 0
 -229 757 -206 757 -178 757 c 0
 -154 757 -135 757 -122 755 c 0
 -81 753 -49 745 -26 735 c 0
 -3 728 9 719 17 715 c 1
 0 783 -44 822 -119 834 c 1
EndSplineSet
EndChar
StartChar: uni0E38
Encoding: 186 3640 186
OldEncoding: 3640
Width: 0
Flags: W
HStem: -270 51<-246 -230> -119 51<-215 -198>
DStem: -210 -265 -120 -167 -241 -409 -173 -409
AnchorPoint: "BelowBase" -100.036 -68.1504 mark 0
Fore
-173 -409 m 1
 -241 -409 l 1
 -210 -265 l 1
 -220 -268 -233 -270 -246 -270 c 0
 -277 -270 -299 -261 -312 -241 c 0
 -326 -222 -329 -199 -323 -171 c 0
 -318 -142 -303 -119 -281 -99 c 0
 -258 -78 -232 -68 -200 -68 c 4
 -171 -68 -149 -77 -135 -96 c 0
 -120 -112 -115 -136 -120 -167 c 2
 -173 -409 l 1
-232 -219 m 0
 -218 -219 -202 -215 -191 -204 c 0
 -181 -197 -174 -186 -171 -171 c 0
 -168 -155 -170 -144 -177 -135 c 0
 -181 -125 -193 -119 -210 -119 c 0
 -226 -119 -241 -125 -254 -136 c 0
 -262 -146 -271 -157 -274 -171 c 0
 -277 -184 -273 -194 -267 -204 c 0
 -258 -215 -246 -219 -232 -219 c 0
EndSplineSet
EndChar
StartChar: uni0E39
Encoding: 187 3641 187
OldEncoding: 3641
Width: 0
Flags: W
HStem: -425 57<-287 -270> -270 51<-399 -384> -119 51<-368 -354>
DStem: -170 -75 -102 -75 -223 -328 -155 -328
AnchorPoint: "BelowBase" -100.036 -68.1504 mark 0
Fore
-377 -328 m 2
 -364 -265 l 1
 -374 -268 -387 -270 -399 -270 c 0
 -431 -270 -450 -261 -464 -239 c 0
 -477 -218 -481 -194 -477 -168 c 0
 -471 -142 -455 -119 -434 -99 c 0
 -410 -78 -384 -68 -354 -68 c 0
 -326 -68 -303 -77 -289 -96 c 0
 -274 -112 -268 -136 -274 -167 c 2
 -309 -328 l 2
 -312 -339 -309 -349 -302 -357 c 0
 -296 -365 -287 -368 -276 -368 c 0
 -264 -368 -254 -365 -242 -357 c 0
 -233 -349 -226 -339 -223 -328 c 2
 -170 -75 l 1
 -102 -75 l 1
 -155 -328 l 2
 -161 -357 -178 -380 -202 -399 c 0
 -228 -416 -255 -425 -287 -425 c 0
 -316 -425 -341 -415 -358 -396 c 0
 -377 -378 -383 -355 -377 -328 c 2
-386 -219 m 0
 -370 -219 -355 -215 -345 -204 c 0
 -334 -194 -328 -184 -325 -171 c 0
 -322 -157 -323 -146 -331 -136 c 0
 -336 -125 -348 -119 -364 -119 c 0
 -380 -119 -394 -125 -406 -135 c 0
 -416 -144 -423 -155 -426 -171 c 0
 -429 -184 -426 -194 -419 -204 c 0
 -412 -215 -400 -219 -386 -219 c 0
EndSplineSet
EndChar
StartChar: uni0E3A
Encoding: 188 3642 188
OldEncoding: 3642
Width: 0
Flags: W
AnchorPoint: "BelowBase" -100.036 -68.1504 mark 0
Fore
-141 -102 m 0
 -125 -102 -113 -106 -106 -116 c 0
 -102 -128 -97 -139 -102 -154 c 0
 -103 -167 -112 -178 -122 -190 c 0
 -132 -200 -146 -204 -162 -204 c 0
 -180 -204 -191 -200 -197 -190 c 0
 -204 -178 -207 -167 -206 -154 c 0
 -203 -141 -194 -129 -184 -117 c 0
 -173 -109 -158 -103 -141 -102 c 0
EndSplineSet
EndChar
StartChar: uni0E3F
Encoding: 189 3647 191
OldEncoding: 3647
Width: 672
VWidth: 2048
Flags: W
HStem: 0 75<181 276 367 444> 344 76<255 348 434 460> 667 75<248 418 493 511> 667 165<452 519.819>
DStem: 248 742 307 667 90 0 255 420 248 742 238 344 90 0 181 75 276 0 351 0 254 -100 329 -100 348 344 423 344 291 75 367 75 418 667 493 667 365 420 441 420 452 832 528 832 434 742 509 742
Fore
365 420 m 5xe0
 418 667 l 5
 307 667 l 5
 255 420 l 5
 365 420 l 5xe0
291 75 m 5
 348 344 l 5
 238 344 l 5
 181 75 l 5
 291 75 l 5
423 344 m 5
 367 75 l 5
 428 75 l 6
 518 75 571 122 590 213 c 4
 602 267 590 303 557 323 c 4
 534 338 490 344 434 344 c 6
 423 344 l 5
493 667 m 5
 441 420 l 5
 458 420 l 6
 497 420 532 431 563 450 c 4
 596 471 618 500 626 538 c 4
 645 625 599 667 493 667 c 5
452 832 m 5xd0
 528 832 l 5xd0
 509 742 l 5
 560 742 l 6
 602 742 637 729 667 703 c 4
 708 668 721 619 706 555 c 4
 692 483 644 429 566 393 c 5
 606 370 l 6
 661 341 680 286 664 209 c 4
 650 142 615 88 561 48 c 4
 519 16 480 0 442 0 c 6
 351 0 l 5
 329 -100 l 5
 254 -100 l 5
 276 0 l 5
 90 0 l 5
 248 742 l 5
 434 742 l 5xe0
 452 832 l 5xd0
EndSplineSet
EndChar
StartChar: uni0E40
Encoding: 190 3648 192
OldEncoding: 3648
Width: 327
Flags: W
HStem: -10 51<190 204> 141 50<218 235>
DStem: 210 557 280 557 110 88 200 187
Fore
210 557 m 1
 280 557 l 1
 200 187 l 1
 209 190 220 191 235 191 c 0
 267 191 290 181 303 162 c 0
 316 142 318 117 312 90 c 0
 306 62 294 39 271 20 c 0
 249 0 223 -10 191 -10 c 0
 162 -10 141 -1 126 16 c 0
 112 33 104 58 110 88 c 2
 210 557 l 1
223 141 m 0
 209 141 194 136 183 126 c 0
 173 116 164 104 161 91 c 0
 158 77 162 65 167 55 c 0
 175 46 187 41 202 41 c 0
 219 41 233 46 242 55 c 0
 254 65 260 77 262 91 c 0
 265 104 264 116 257 126 c 0
 251 136 239 141 223 141 c 0
EndSplineSet
EndChar
StartChar: uni0E41
Encoding: 191 3649 193
OldEncoding: 3649
Width: 590
Flags: W
HStem: -10 51<190 204 453 466> 141 50<218 235 484 497>
DStem: 210 557 280 557 110 88 200 187 474 557 544 557 374 88 464 187
Fore
210 557 m 1
 280 557 l 1
 200 187 l 1
 209 190 220 191 235 191 c 0
 267 191 290 181 303 162 c 0
 316 142 318 117 312 90 c 0
 306 62 294 39 271 20 c 0
 249 0 223 -10 191 -10 c 0
 162 -10 141 -1 126 16 c 0
 112 33 104 58 110 88 c 2
 210 557 l 1
474 557 m 1
 544 557 l 1
 464 187 l 1
 474 190 486 191 497 191 c 0
 529 191 552 181 566 162 c 0
 580 141 581 117 576 90 c 0
 570 64 555 41 534 22 c 0
 512 0 486 -10 454 -10 c 0
 426 -10 405 -1 390 16 c 0
 376 33 368 58 374 88 c 2
 474 557 l 1
486 141 m 0
 471 141 457 136 445 126 c 0
 434 115 426 103 423 91 c 0
 420 78 423 67 431 58 c 0
 438 46 450 41 464 41 c 0
 480 41 494 46 508 58 c 0
 518 67 523 78 526 91 c 0
 529 103 528 115 519 126 c 0
 512 136 500 141 486 141 c 0
223 141 m 0
 209 141 194 136 183 126 c 0
 173 116 164 104 161 91 c 0
 158 77 162 65 167 55 c 0
 175 46 187 41 202 41 c 0
 219 41 233 46 242 55 c 0
 254 65 260 77 262 91 c 0
 265 104 264 116 257 126 c 0
 251 136 239 141 223 141 c 0
EndSplineSet
EndChar
StartChar: uni0E42
Encoding: 192 3650 194
OldEncoding: 3650
Width: 350
Flags: W
HStem: -10 51<234 248> 141 50<259 280> 916 57<471 485> 957 57<324 344>
DStem: 297 755 365 758 155 88 244 187
Fore
155 88 m 2xd0
 297 755 l 2
 303 784 304 806 302 821 c 0
 299 834 286 847 267 861 c 0
 246 877 207 898 149 925 c 1
 165 941 191 960 226 982 c 0
 262 1003 302 1014 342 1014 c 0xd0
 365 1014 392 1008 420 995 c 0
 448 980 470 973 483 973 c 0
 499 973 519 980 542 995 c 1
 560 947 l 1
 528 925 499 916 471 916 c 0xe0
 454 916 431 924 400 937 c 0
 370 953 345 957 329 957 c 0
 313 957 299 954 286 948 c 0
 273 944 265 938 260 935 c 1
 302 911 328 895 341 886 c 0
 354 877 362 861 368 842 c 0
 376 822 373 795 365 758 c 2
 244 187 l 1
 254 190 265 191 280 191 c 0
 310 191 334 181 347 162 c 0
 360 142 362 117 357 90 c 0
 351 62 338 39 316 20 c 0
 293 0 267 -10 236 -10 c 0
 209 -10 187 -1 171 16 c 0
 157 33 149 58 155 88 c 2xd0
268 141 m 0
 254 141 239 136 228 126 c 0
 216 116 209 104 206 91 c 0
 203 77 206 65 212 55 c 0
 219 46 231 41 246 41 c 0
 262 41 277 46 287 55 c 0
 297 65 304 77 307 91 c 0
 310 104 307 116 300 126 c 0
 294 136 283 141 268 141 c 0
EndSplineSet
EndChar
StartChar: uni0E43
Encoding: 193 3651 195
OldEncoding: 3651
Width: 350
Flags: W
HStem: -10 51<234 252> 141 50<266 280> 771 40<191 206> 890 39<213 228> 970 48<271 292>
DStem: 326 890 393 887 155 88 244 187
Fore
155 88 m 2
 326 890 l 2
 336 944 322 970 281 970 c 0
 260 970 245 966 233 956 c 0
 223 944 216 935 213 929 c 1
 242 929 262 921 277 906 c 0
 289 892 291 873 287 850 c 0
 281 826 270 808 252 793 c 0
 233 779 215 771 193 771 c 0
 175 771 162 777 149 786 c 0
 135 795 130 809 128 828 c 0
 128 844 129 861 133 880 c 0
 142 919 161 953 186 979 c 0
 213 1005 249 1018 290 1018 c 0
 329 1018 358 1006 377 985 c 0
 397 961 402 929 393 887 c 2
 244 187 l 1
 254 190 265 191 280 191 c 0
 310 191 334 181 347 162 c 0
 360 142 362 117 357 90 c 0
 351 62 338 39 316 20 c 0
 293 0 267 -10 236 -10 c 0
 209 -10 187 -1 171 16 c 0
 157 33 149 58 155 88 c 2
218 890 m 0
 204 890 193 886 187 879 c 1
 177 870 171 861 170 850 c 0
 167 840 168 831 175 822 c 1
 177 815 187 811 200 811 c 0
 213 811 223 815 233 822 c 0
 241 831 245 840 248 850 c 0
 249 860 249 870 245 879 c 0
 239 886 231 890 218 890 c 0
268 141 m 0
 254 141 239 136 228 126 c 0
 216 116 209 104 206 91 c 0
 203 77 206 65 212 55 c 0
 219 46 231 41 246 41 c 0
 262 41 277 46 287 55 c 0
 297 65 304 77 307 91 c 0
 310 104 307 116 300 126 c 0
 294 136 283 141 268 141 c 0
EndSplineSet
EndChar
StartChar: uni0E44
Encoding: 194 3652 196
OldEncoding: 3652
Width: 408
Flags: W
HStem: -10 51<292 305> 141 50<320 339> 953 61<392 415>
DStem: 184 938 233 957 194 737 244 768 334 960 380 944 244 768 276 734 394 938 464 944 213 88 303 187
Fore
213 88 m 2
 394 938 l 2
 396 947 396 953 392 953 c 0
 387 953 383 948 380 944 c 2
 276 734 l 2
 262 706 246 693 226 693 c 0
 207 693 197 708 194 737 c 2
 184 938 l 2
 181 961 174 974 161 980 c 1
 203 1018 l 1
 223 1009 233 990 233 957 c 2
 244 768 l 1
 334 960 l 1
 351 996 377 1014 415 1014 c 0
 434 1014 450 1008 458 996 c 0
 465 985 470 967 464 944 c 2
 303 187 l 1
 313 190 323 191 339 191 c 0
 370 191 393 181 407 162 c 0
 419 142 420 119 415 91 c 0
 409 64 397 39 374 20 c 0
 352 0 325 -10 293 -10 c 0
 265 -10 244 -1 229 16 c 0
 216 33 207 58 213 88 c 2
325 141 m 0
 310 141 297 136 286 126 c 0
 274 115 265 103 262 91 c 0
 260 78 264 67 273 58 c 0
 277 46 289 41 303 41 c 0
 320 41 335 46 344 55 c 0
 355 65 361 77 364 91 c 0
 367 104 365 116 358 126 c 0
 352 136 341 141 325 141 c 0
EndSplineSet
EndChar
StartChar: uni0E45
Encoding: 195 3653 197
OldEncoding: 3653
Width: 484
Flags: W
HStem: 516 51<307 340>
DStem: 418 406 486 403 268 -290 338 -290
Fore
116 444 m 1
 145 483 175 515 210 536 c 0
 242 557 281 567 331 567 c 0
 387 567 431 552 460 525 c 0
 487 496 497 455 486 403 c 2
 338 -290 l 1
 268 -290 l 1
 418 406 l 2
 425 441 419 470 403 489 c 0
 383 508 357 516 320 516 c 0
 289 516 258 508 231 490 c 0
 202 471 178 447 161 419 c 1
 154 425 146 428 139 432 c 0
 132 436 122 439 116 444 c 1
EndSplineSet
EndChar
StartChar: uni0E46
Encoding: 196 3654 198
OldEncoding: 3654
Width: 651
Flags: W
HStem: 236 47<350 362> 373 43<377 391>
DStem: 583 393 652 403 493 -25 561 -30
Fore
561 567 m 1
 589 563 612 551 629 536 c 0
 644 521 654 502 657 480 c 0
 661 458 658 432 652 403 c 2
 561 -30 l 2
 552 -68 538 -102 523 -126 c 0
 506 -151 481 -173 454 -187 c 0
 425 -203 387 -216 345 -226 c 1
 341 -164 l 1
 393 -152 428 -136 450 -117 c 0
 468 -100 484 -68 493 -25 c 2
 583 393 l 2
 589 425 590 450 587 467 c 0
 584 483 571 499 550 509 c 1
 476 468 l 1
 476 468 l 1
 476 470 467 474 451 483 c 0
 432 493 419 503 407 509 c 1
 380 500 360 484 345 464 c 0
 329 442 318 418 312 387 c 1
 318 392 326 396 339 405 c 0
 354 413 368 416 389 416 c 0
 416 416 438 407 450 390 c 0
 461 373 465 352 460 328 c 0
 454 303 441 281 423 264 c 0
 403 246 378 236 351 236 c 0
 323 236 302 244 284 260 c 0
 268 274 257 293 254 318 c 0
 248 342 249 368 257 400 c 0
 265 441 286 477 316 508 c 0
 347 539 381 558 420 567 c 1
 432 560 447 552 463 542 c 0
 478 532 487 528 487 526 c 1
 561 567 l 1
380 373 m 0
 367 373 355 367 345 358 c 0
 335 351 328 339 325 328 c 0
 322 316 325 306 331 299 c 0
 336 289 345 283 360 283 c 0
 374 283 387 289 399 297 c 0
 407 304 412 316 415 328 c 0
 418 341 418 352 412 361 c 0
 405 368 394 373 380 373 c 0
EndSplineSet
EndChar
StartChar: uni0E47
Encoding: 197 3655 199
OldEncoding: 3655
Width: 0
Flags: W
HStem: 652 40<-25 -14> 735 54<-168 -157> 770 36<-4 11> 844 49<-52 -16>
AnchorPoint: "AboveMark" -139.707 652.5 mark 0
AnchorPoint: "AboveBase" 83.5928 652.5 mark 0
Fore
-23 652 m 0xb0
 -41 652 -55 655 -65 664 c 0
 -80 671 -91 682 -103 695 c 0
 -116 709 -128 719 -138 726 c 0
 -148 732 -157 735 -168 735 c 0xd0
 -193 734 -212 722 -226 702 c 0
 -241 680 -249 664 -254 648 c 1
 -273 658 -287 679 -296 706 c 0
 -307 734 -309 761 -303 790 c 4
 -300 803 -294 816 -287 831 c 0
 -258 877 -210 899 -138 899 c 0
 -120 899 -106 899 -94 898 c 0
 -70 895 -45 893 -23 893 c 0
 9 893 35 898 51 909 c 0
 68 919 81 938 87 969 c 1
 141 969 l 1
 130 924 112 892 83 873 c 0
 52 854 9 844 -46 844 c 0
 -70 844 -96 845 -123 848 c 1
 -161 848 -190 845 -210 837 c 0
 -231 829 -245 815 -249 793 c 0
 -252 779 -252 760 -246 740 c 1
 -242 747 -231 757 -215 770 c 0xb0
 -200 782 -181 789 -157 789 c 0xd0
 -136 789 -120 783 -107 774 c 0
 -93 766 -83 757 -78 751 c 1
 -68 768 -58 782 -44 792 c 0
 -28 802 -10 806 9 806 c 0
 33 806 51 799 62 784 c 0
 72 770 74 753 70 731 c 0
 65 709 55 690 39 676 c 0
 22 660 1 652 -23 652 c 0xb0
-16 692 m 0
 -4 692 7 695 14 703 c 0
 23 710 29 721 30 731 c 0
 33 742 32 751 26 758 c 0
 22 767 13 770 1 770 c 0xb0
 -10 770 -22 767 -29 758 c 0
 -38 751 -42 742 -45 731 c 0
 -46 721 -45 713 -41 705 c 0
 -36 696 -28 692 -16 692 c 0
EndSplineSet
EndChar
StartChar: uni0E48
Encoding: 198 3656 200
OldEncoding: 3656
Width: 0
Flags: W
DStem: 106 1206 168 1206 65 1014 128 1014
AnchorPoint: "AboveMark" 84.916 965.7 mark 0
Fore
65 1014 m 1
 106 1206 l 1
 168 1206 l 1
 128 1014 l 1
 65 1014 l 1
EndSplineSet
Substitution: 0 65534 'loww' uni0E48.low
Substitution: 0 65534 'amni' uni0E4D
EndChar
StartChar: uni0E49
Encoding: 199 3657 201
OldEncoding: 3657
Width: 0
Flags: W
HStem: 966 46<16 45> 1038 42<-22 -6> 1160 42<10 22>
AnchorPoint: "AboveMark" 64.6152 965.7 mark 0
Fore
94 1116 m 0
 87 1088 77 1064 65 1047 c 0
 52 1030 41 1018 33 1012 c 1
 78 1012 119 1024 152 1048 c 0
 175 1067 193 1086 203 1111 c 0
 215 1135 223 1163 231 1196 c 1
 291 1196 l 1
 270 1093 220 1025 144 992 c 0
 106 973 64 966 16 966 c 0
 -4 966 -22 967 -36 969 c 0
 -51 972 -61 973 -67 974 c 1
 -59 979 -48 985 -35 995 c 0
 -20 1006 -9 1021 0 1043 c 1
 -1 1043 -3 1043 -6 1041 c 0
 -12 1038 -17 1038 -22 1038 c 0
 -28 1038 -32 1041 -42 1043 c 0
 -77 1054 -90 1080 -81 1121 c 0
 -78 1135 -71 1150 -61 1161 c 0
 -52 1174 -39 1185 -25 1193 c 0
 -12 1199 3 1202 20 1202 c 0
 49 1202 70 1195 81 1176 c 0
 94 1160 99 1140 94 1116 c 0
12 1160 m 0
 -1 1160 -10 1157 -20 1148 c 0
 -28 1140 -33 1132 -36 1121 c 0
 -38 1109 -36 1101 -32 1093 c 0
 -26 1085 -19 1080 -6 1080 c 0
 6 1080 17 1085 28 1093 c 0
 36 1099 44 1109 45 1121 c 0
 48 1132 45 1140 39 1148 c 0
 35 1157 25 1160 12 1160 c 0
EndSplineSet
Substitution: 0 65534 'loww' uni0E49.low
Substitution: 0 65534 'amni' uni0E4D
EndChar
StartChar: uni0E4A
Encoding: 200 3658 202
OldEncoding: 3658
Width: 0
Flags: W
HStem: 980 29<-97 -84> 1082 29<-76 -66> 1151 45<-61 -43 51 68>
AnchorPoint: "AboveMark" -15.1348 965.7 mark 0
Fore
-96 980 m 0
 -115 982 -128 986 -141 998 c 0
 -152 1009 -160 1024 -161 1043 c 0
 -165 1060 -164 1079 -160 1096 c 0
 -152 1125 -136 1150 -119 1169 c 0
 -100 1186 -77 1196 -51 1196 c 0
 -39 1196 -29 1195 -20 1192 c 0
 -13 1186 -6 1183 -1 1177 c 0
 1 1173 6 1170 6 1169 c 1
 10 1173 19 1177 29 1186 c 0
 41 1193 54 1196 68 1196 c 0
 94 1196 113 1186 120 1169 c 0
 129 1150 129 1127 123 1096 c 0
 117 1073 107 1050 88 1025 c 1
 96 1030 107 1034 120 1043 c 0
 135 1050 148 1061 155 1073 c 0
 173 1095 186 1116 190 1140 c 0
 193 1154 194 1169 193 1183 c 1
 245 1199 l 1
 245 1189 245 1176 242 1159 c 0
 232 1114 213 1076 184 1045 c 0
 148 1005 87 985 7 985 c 1
 19 996 30 1011 45 1025 c 0
 59 1043 71 1061 77 1086 c 0
 81 1106 83 1122 78 1134 c 0
 77 1146 67 1151 51 1151 c 0
 39 1151 29 1148 19 1140 c 0
 10 1132 1 1125 -1 1121 c 1
 -1 1125 -7 1132 -14 1140 c 0
 -23 1148 -35 1151 -52 1151 c 0
 -65 1151 -77 1147 -87 1138 c 0
 -97 1130 -103 1116 -107 1101 c 1
 -104 1102 -100 1105 -93 1108 c 0
 -87 1109 -78 1111 -68 1111 c 0
 -46 1111 -33 1105 -25 1093 c 0
 -17 1080 -13 1063 -17 1043 c 0
 -20 1028 -32 1012 -48 999 c 0
 -62 986 -78 980 -96 980 c 0
-74 1082 m 0
 -86 1082 -97 1079 -103 1070 c 0
 -112 1061 -116 1054 -119 1045 c 0
 -120 1035 -119 1028 -113 1021 c 0
 -112 1012 -102 1009 -90 1009 c 0
 -78 1009 -68 1012 -59 1021 c 0
 -55 1025 -48 1034 -46 1045 c 0
 -44 1056 -46 1063 -49 1072 c 0
 -54 1079 -62 1082 -74 1082 c 0
EndSplineSet
Substitution: 0 65534 'loww' uni0E4A.low
Substitution: 0 65534 'amni' uni0E4D
EndChar
StartChar: uni0E4B
Encoding: 201 3659 203
OldEncoding: 3659
Width: 0
Flags: W
HStem: 1064 57<-15 75 149 239>
DStem: 75 1064 138 1064 58 985 120 985 104 1202 167 1202 87 1121 149 1121
AnchorPoint: "AboveMark" 84.916 965.7 mark 0
Fore
75 1064 m 1
 -26 1064 l 1
 -14 1121 l 1
 87 1121 l 1
 104 1202 l 1
 167 1202 l 1
 149 1121 l 1
 251 1121 l 1
 239 1064 l 5
 138 1064 l 1
 120 985 l 1
 58 985 l 1
 75 1064 l 1
EndSplineSet
Substitution: 0 65534 'loww' uni0E4B.low
Substitution: 0 65534 'amni' uni0E4D
EndChar
StartChar: uni0E4C
Encoding: 202 3660 204
OldEncoding: 3660
Width: 0
Flags: W
HStem: 916 44<52 66>
AnchorPoint: "AboveMark" 52.6875 916.4 mark 0
Fore
19 1034 m 0
 20 1038 29 1047 39 1056 c 0
 51 1063 65 1067 86 1069 c 1
 107 1067 123 1060 135 1045 c 0
 145 1031 149 1014 145 993 c 0
 141 973 129 956 113 941 c 0
 97 925 77 916 52 916 c 0
 19 915 -4 925 -19 944 c 0
 -33 961 -39 985 -32 1016 c 0
 -26 1041 -16 1061 0 1082 c 0
 14 1099 32 1114 55 1124 c 0
 78 1132 107 1138 145 1140 c 0
 183 1143 210 1147 229 1154 c 0
 246 1159 258 1174 264 1199 c 1
 313 1199 l 1
 307 1174 297 1157 280 1143 c 0
 265 1127 249 1118 232 1112 c 0
 210 1105 181 1099 145 1098 c 0
 110 1096 83 1092 64 1085 c 0
 44 1076 28 1060 19 1034 c 0
77 1030 m 0
 54 1030 39 1018 35 995 c 0
 33 986 33 979 39 972 c 0
 42 963 51 960 62 960 c 0
 71 960 80 963 90 970 c 1
 97 979 104 986 106 995 c 0
 107 1005 104 1012 100 1019 c 0
 94 1025 88 1030 77 1030 c 0
EndSplineSet
Substitution: 0 65534 'loww' uni0E4C.low
EndChar
StartChar: uni0E4D
Encoding: 203 3661 205
OldEncoding: 3661
Width: 0
Flags: W
HStem: 626 45<-47 -29> 782 46<-15 1>
AnchorPoint: "AboveMark" -44.3711 623.5 mark 0
AnchorPoint: "AboveMark" 22.2021 936.7 basemark 0
AnchorPoint: "AboveBase" 83.5928 652.5 mark 0
Fore
-44 626 m 0
 -75 626 -97 635 -112 657 c 0
 -125 677 -129 700 -123 728 c 0
 -117 754 -103 777 -81 796 c 0
 -58 818 -33 828 -1 828 c 0
 29 828 52 818 67 798 c 0
 80 779 84 755 78 728 c 0
 72 700 58 676 36 655 c 0
 13 635 -13 626 -44 626 c 0
-10 782 m 0
 -28 782 -44 777 -55 766 c 0
 -67 754 -74 742 -77 728 c 0
 -80 713 -78 700 -71 689 c 0
 -65 677 -52 671 -35 671 c 0
 -17 671 -3 677 10 689 c 0
 23 700 30 713 33 728 c 0
 35 735 35 744 32 753 c 0
 28 760 25 768 16 773 c 0
 10 779 1 782 -10 782 c 0
EndSplineSet
Substitution: 0 65534 'G006' uni0E4B
Substitution: 0 65534 'G005' uni0E4A
Substitution: 0 65534 'G004' uni0E49
Substitution: 0 65534 'G003' uni0E48
EndChar
StartChar: uni0E4E
Encoding: 204 3662 206
OldEncoding: 3662
Width: 0
VWidth: 2048
Flags: W
HStem: 679 39<-164 -130> 860 64<-95 -70> 972 56<98 118>
AnchorPoint: "AboveBase" 83.5928 652.5 mark 0
Fore
186 928 m 2
 184 929 l 2
 180 938 173 947 162 957 c 0
 154 967 138 972 116 972 c 2
 106 972 l 2
 91 972 78 966 64 954 c 0
 48 944 35 929 25 911 c 1
 17 890 l 1
 14 882 14 871 17 866 c 2
 22 841 l 1
 23 832 l 1
 23 822 l 1
 22 819 20 816 16 812 c 1
 4 809 l 1
 -3 809 -7 812 -7 819 c 1
 -19 840 -28 853 -38 854 c 0
 -46 858 -61 860 -83 860 c 0
 -96 860 -113 856 -130 845 c 0
 -148 834 -158 819 -167 805 c 1
 -173 783 l 1
 -177 766 -175 751 -170 740 c 0
 -164 726 -154 719 -138 718 c 2
 -130 718 l 2
 -117 718 -107 719 -93 726 c 0
 -80 732 -68 740 -61 747 c 1
 -75 713 l 1
 -100 690 -130 679 -164 679 c 1
 -193 682 l 1
 -216 689 -231 703 -239 722 c 0
 -248 744 -249 766 -244 790 c 0
 -239 812 -231 832 -220 848 c 0
 -202 873 -180 892 -157 905 c 0
 -132 918 -109 924 -86 924 c 0
 -61 924 -41 918 -22 905 c 1
 -19 925 l 1
 -17 935 -13 947 -10 956 c 0
 -6 967 -1 976 9 986 c 0
 17 998 30 1008 51 1018 c 0
 68 1024 84 1028 100 1028 c 0
 122 1028 144 1024 162 1014 c 0
 180 1005 194 990 202 972 c 1
 207 953 l 2
 210 944 210 935 209 929 c 0
 207 922 204 921 199 921 c 0
 194 921 188 922 186 928 c 2
EndSplineSet
EndChar
StartChar: uni0E4F
Encoding: 205 3663 207
OldEncoding: 3663
Width: 590
VWidth: 2048
Flags: W
HStem: 0 62<276 309> 138 62<305 328> 431 61<368 385> 567 62<381 424>
Fore
370 431 m 1
 307 431 246 378 233 315 c 0
 220 252 258 200 320 200 c 0
 383 200 444 252 457 315 c 1
 470 378 432 432 370 431 c 1
278 0 m 0
 181 0 112 33 70 96 c 0
 26 160 14 232 32 315 c 0
 51 402 94 476 162 538 c 0
 229 600 312 629 412 629 c 0
 477 629 534 615 576 584 c 1
 618 554 642 515 657 468 c 0
 670 420 671 370 660 315 c 0
 648 260 625 209 592 162 c 0
 558 115 516 75 461 45 c 1
 406 14 344 0 278 0 c 0
399 567 m 0
 320 567 252 542 197 493 c 0
 144 444 109 383 94 315 c 0
 86 274 86 232 94 193 c 0
 106 154 128 123 162 100 c 1
 194 74 238 62 291 62 c 0
 345 62 394 74 439 100 c 0
 480 122 515 152 545 191 c 1
 571 232 590 274 599 315 c 0
 608 355 606 396 597 438 c 1
 583 478 563 509 531 532 c 0
 496 555 452 567 399 567 c 0
307 138 m 0
 271 138 241 146 216 164 c 0
 193 181 180 204 173 231 c 0
 165 257 164 287 170 315 c 0
 175 342 190 373 209 400 c 0
 225 426 248 447 280 465 c 0
 315 481 347 492 383 492 c 0
 419 492 448 481 474 465 c 0
 499 450 512 428 519 400 c 0
 526 374 526 344 521 315 c 0
 510 268 487 228 450 191 c 0
 410 155 361 138 307 138 c 0
EndSplineSet
EndChar
StartChar: uni0E50
Encoding: 206 3664 208
OldEncoding: 3664
Width: 580
Flags: W
HStem: -7 65<282 305> 339 64<360 380>
Fore
289 -7 m 0
 215 -7 160 14 128 55 c 0
 96 97 84 144 96 199 c 0
 103 232 120 267 145 299 c 0
 170 329 202 355 242 376 c 0
 283 393 326 403 376 403 c 0
 425 403 465 393 497 376 c 0
 529 355 551 329 564 299 c 0
 574 267 576 232 568 199 c 0
 561 164 544 129 519 99 c 0
 494 67 463 42 422 23 c 0
 384 4 339 -7 289 -7 c 0
362 339 m 0
 312 339 268 326 235 299 c 0
 200 270 178 236 170 199 c 0
 162 161 170 128 193 100 c 0
 215 72 252 58 303 58 c 0
 354 58 397 72 431 100 c 0
 465 128 487 161 494 199 c 0
 503 236 496 270 473 299 c 0
 451 326 413 339 362 339 c 0
EndSplineSet
EndChar
StartChar: uni0E51
Encoding: 207 3665 209
OldEncoding: 3665
Width: 580
Flags: W
HStem: 25 61<239 262> 102 46<310 322> 236 44<339 351> 355 61<356 380>
Fore
170 204 m 0
 164 174 167 146 183 122 c 0
 199 97 222 86 251 86 c 0
 270 86 289 90 312 102 c 1
 297 102 278 106 255 116 c 0
 233 128 225 149 229 180 c 0
 236 210 251 235 276 252 c 0
 297 270 322 280 349 280 c 0
 384 280 410 270 423 251 c 0
 438 231 439 204 434 174 c 0
 426 146 415 119 396 97 c 0
 378 75 357 58 329 45 c 0
 300 30 273 25 245 25 c 0
 194 25 155 41 130 72 c 0
 106 103 96 148 106 204 c 0
 113 244 133 280 162 312 c 0
 188 344 220 370 260 389 c 0
 299 406 338 416 378 416 c 0
 455 415 510 392 545 351 c 0
 581 307 593 251 577 180 c 0
 568 133 548 91 522 59 c 0
 494 25 457 -9 410 -41 c 1
 377 -7 l 1
 452 48 499 110 513 180 c 0
 525 231 516 274 493 306 c 0
 467 339 425 355 365 355 c 0
 318 355 277 341 241 313 c 0
 204 286 181 249 170 204 c 0
341 236 m 0
 326 236 315 231 304 223 c 0
 294 215 290 203 287 191 c 0
 284 180 286 171 291 162 c 0
 297 152 307 148 322 148 c 0
 336 148 347 152 358 162 c 0
 367 171 373 180 376 191 c 0
 378 203 376 215 371 223 c 0
 364 231 355 236 341 236 c 0
EndSplineSet
EndChar
StartChar: uni0E52
Encoding: 208 3666 210
OldEncoding: 3666
Width: 710
Flags: W
HStem: 0 62<258 518> 116 48<335 353> 260 47<365 377> 345 58<411 430>
DStem: 181 451 257 484 123 174 190 171 632 274 705 293 602 129 670 129
Fore
248 232 m 0
 255 267 268 297 286 323 c 0
 304 349 328 368 351 381 c 0
 377 396 403 403 428 403 c 0
 455 403 477 396 492 386 c 0
 505 374 513 364 516 355 c 1
 519 364 531 376 548 387 c 0
 564 400 589 406 619 406 c 0
 655 406 680 394 693 370 c 0
 706 345 710 319 705 293 c 2
 670 129 l 2
 661 86 644 52 616 30 c 0
 592 10 552 0 499 0 c 2
 270 0 l 2
 202 0 157 13 135 41 c 0
 113 68 110 113 123 174 c 2
 181 451 l 2
 187 476 187 496 186 513 c 0
 186 529 175 541 161 547 c 1
 228 594 l 1
 258 574 268 536 257 484 c 2
 190 171 l 2
 183 136 186 109 199 90 c 0
 213 72 239 62 280 62 c 2
 512 62 l 2
 541 62 561 67 574 78 c 0
 587 88 596 104 602 129 c 2
 632 274 l 2
 642 320 631 345 596 345 c 0
 574 345 554 338 536 319 c 0
 518 302 506 286 499 274 c 1
 499 278 494 287 490 299 c 0
 483 307 474 318 461 329 c 0
 450 341 436 345 419 345 c 0
 402 345 384 341 368 331 c 0
 354 319 341 307 332 293 c 0
 336 297 341 300 347 303 c 0
 355 306 365 307 377 307 c 0
 396 307 413 303 426 294 c 0
 439 287 447 276 451 261 c 0
 455 246 455 231 451 213 c 0
 445 186 434 162 412 144 c 0
 392 126 367 116 336 116 c 0
 303 116 280 128 262 149 c 0
 246 171 241 199 248 232 c 0
367 260 m 0
 352 260 339 254 329 246 c 0
 319 238 312 226 309 212 c 0
 306 200 309 188 315 178 c 0
 322 168 332 164 347 164 c 0
 361 164 374 168 383 178 c 0
 393 187 400 199 403 212 c 0
 406 225 406 236 400 246 c 0
 393 254 381 260 367 260 c 0
EndSplineSet
EndChar
StartChar: uni0E53
Encoding: 209 3667 211
OldEncoding: 3667
Width: 682
Flags: W
HStem: -7 61<178 200> 151 51<217 235> 355 61<300 320 542 557>
DStem: 380 246 452 246 328 0 400 0
Fore
304 355 m 0
 267 355 238 339 218 307 c 0
 197 276 183 235 173 186 c 1
 175 187 183 190 193 194 c 0
 204 200 219 202 235 202 c 0
 267 202 289 191 302 173 c 0
 313 152 318 129 312 102 c 0
 306 74 290 48 267 26 c 0
 244 4 213 -7 178 -7 c 0
 138 -9 113 12 102 49 c 0
 91 87 93 142 109 219 c 0
 116 254 129 287 148 316 c 0
 170 345 193 370 222 389 c 0
 251 406 280 416 315 416 c 0
 355 416 386 406 402 386 c 0
 418 364 428 345 428 331 c 1
 431 339 444 355 470 380 c 0
 492 405 522 416 557 416 c 0
 610 416 644 394 660 354 c 0
 676 312 676 255 661 188 c 0
 642 106 615 45 581 0 c 1
 506 0 l 1
 522 14 539 41 555 78 c 0
 571 116 586 155 594 199 c 0
 605 246 605 283 599 312 c 0
 592 341 574 355 544 355 c 0
 499 355 468 319 452 246 c 2
 400 0 l 1
 328 0 l 1
 380 246 l 2
 386 276 383 302 371 323 c 0
 358 344 336 355 304 355 c 0
220 151 m 0
 206 151 193 146 183 136 c 0
 174 128 165 116 162 103 c 0
 160 90 162 78 168 68 c 0
 177 59 187 54 200 54 c 0
 215 54 229 59 239 68 c 0
 248 77 255 88 258 103 c 0
 261 115 258 126 254 136 c 0
 246 146 236 151 220 151 c 0
EndSplineSet
EndChar
StartChar: uni0E54
Encoding: 210 3668 212
OldEncoding: 3668
Width: 682
Flags: W
HStem: 0 65<274 312> 72 85<378 392> 246 51<392 409> 335 58<527 549> 342 61<397 421>
Fore
392 72 m 0xe8
 386 72 362 84 328 106 c 0
 289 129 274 161 283 202 c 0
 287 226 303 249 326 268 c 0
 351 287 378 297 409 297 c 0
 441 297 463 287 474 268 c 0
 490 249 492 226 487 202 c 0
 481 177 471 160 458 148 c 0
 444 136 432 129 422 126 c 1
 444 109 465 97 489 93 c 0
 509 90 534 88 560 84 c 0
 584 80 609 68 637 51 c 1
 596 -7 l 1
 580 12 542 22 483 22 c 0
 461 22 431 17 389 10 c 0
 349 3 312 0 274 0 c 0
 236 0 203 9 175 23 c 0
 146 38 125 61 110 91 c 0
 99 123 97 161 107 209 c 0
 115 246 133 278 161 307 c 0
 188 338 220 361 261 377 c 0
 303 394 349 403 397 403 c 0xe8
 406 403 423 402 448 400 c 0
 487 394 515 393 529 393 c 0
 571 393 606 400 634 415 c 0
 661 429 686 454 705 489 c 0
 722 522 741 571 760 635 c 1
 829 626 l 1
 822 594 808 551 782 496 c 0
 754 442 719 400 677 373 c 0
 638 348 593 335 545 335 c 0xf0
 529 335 510 336 484 339 c 0
 455 341 431 342 407 342 c 0
 349 344 299 329 257 307 c 0
 213 286 187 249 175 199 c 0
 157 110 202 65 312 65 c 0
 339 65 365 67 392 72 c 0xe8
397 246 m 0
 383 246 370 241 361 232 c 0
 351 225 345 213 344 202 c 0
 341 190 341 180 348 171 c 0
 354 162 364 157 378 157 c 0
 394 157 405 162 415 171 c 0
 425 178 431 190 434 202 c 0
 435 215 435 226 428 235 c 0
 420 242 413 246 397 246 c 0
EndSplineSet
EndChar
StartChar: uni0E55
Encoding: 211 3669 213
OldEncoding: 3669
Width: 682
Flags: W
HStem: 0 65<274 312> 72 85<378 392> 246 51<392 409> 332 62<515 542> 341 66<407 437> 496 56<451 467>
Fore
544 457 m 0xec
 539 439 535 426 531 416 c 0
 525 406 519 400 515 394 c 1
 558 394 593 402 622 413 c 0
 650 425 677 450 699 483 c 0
 721 519 742 570 760 635 c 1
 829 626 l 1
 822 594 808 551 782 496 c 0
 754 442 719 400 677 373 c 0
 638 345 592 332 542 332 c 0xf4
 538 332 518 335 487 338 c 0
 455 339 428 341 407 341 c 0
 371 341 336 336 304 328 c 0
 271 318 242 303 220 281 c 0
 197 261 183 232 175 199 c 0
 157 110 202 65 312 65 c 0
 339 65 365 67 392 72 c 0
 386 72 362 84 328 106 c 0
 289 129 274 161 283 202 c 0
 287 226 303 249 326 268 c 0
 351 287 378 297 409 297 c 0
 441 297 463 287 474 268 c 0
 490 249 492 226 487 202 c 0
 481 177 471 160 458 148 c 0
 444 136 432 129 422 126 c 1
 444 109 465 97 489 93 c 0
 509 90 534 88 560 84 c 0
 584 80 609 68 637 51 c 1
 596 -7 l 1
 580 12 542 22 483 22 c 0
 461 22 431 17 389 10 c 0
 349 3 312 0 274 0 c 0
 236 0 203 9 175 23 c 0
 146 38 125 61 110 91 c 0
 99 123 97 161 107 209 c 0
 116 249 133 281 161 310 c 0
 188 338 218 358 252 374 c 0
 286 389 316 396 349 400 c 1
 348 405 347 412 344 423 c 0
 344 434 344 445 347 457 c 0
 352 484 367 508 389 526 c 0
 413 544 438 552 467 552 c 0
 496 551 518 542 532 525 c 0
 547 506 550 484 544 457 c 0xec
454 496 m 0
 438 496 428 492 418 483 c 0
 407 476 402 464 399 452 c 0
 397 441 397 431 405 420 c 0
 412 413 419 407 435 407 c 0xec
 442 407 451 409 461 415 c 0
 465 419 471 425 478 431 c 0
 483 438 486 444 487 452 c 0
 490 465 490 477 483 484 c 0
 477 493 468 496 454 496 c 0
397 246 m 0
 383 246 370 241 361 232 c 0
 351 225 345 213 344 202 c 0
 341 190 341 180 348 171 c 0
 354 162 364 157 378 157 c 0
 394 157 405 162 415 171 c 0
 425 178 431 190 434 202 c 0
 435 215 435 226 428 235 c 0
 420 242 413 246 397 246 c 0
EndSplineSet
EndChar
StartChar: uni0E56
Encoding: 212 3670 214
OldEncoding: 3670
Width: 522
Flags: W
HStem: -7 69<251 275> 178 54<224 238> 355 70<322 377>
Fore
273 62 m 1
 303 62 332 68 358 84 c 0
 384 97 406 115 422 138 c 0
 439 161 448 187 454 215 c 0
 460 242 460 267 451 289 c 0
 444 310 428 326 407 338 c 0
 384 349 355 355 322 355 c 1
 291 351 264 342 236 331 c 0
 210 318 190 307 177 300 c 1
 180 323 183 348 183 374 c 0
 183 399 180 426 178 455 c 0
 177 483 173 512 167 538 c 0
 160 563 154 583 149 597 c 1
 209 626 l 1
 216 610 226 577 233 522 c 0
 239 470 244 428 245 396 c 1
 299 415 342 425 377 425 c 0
 418 425 451 415 476 396 c 0
 500 378 519 352 526 320 c 0
 536 290 535 254 526 215 c 0
 516 162 494 119 465 87 c 0
 436 52 400 29 364 14 c 0
 326 0 289 -7 251 -7 c 0
 226 -7 202 0 180 12 c 0
 157 23 139 41 128 62 c 0
 115 84 112 109 117 136 c 0
 123 164 138 187 161 204 c 0
 186 223 210 232 238 232 c 0
 268 232 294 223 307 204 c 0
 322 184 325 161 319 133 c 0
 313 112 307 97 297 86 c 0
 286 74 278 67 273 62 c 1
226 178 m 0
 213 178 203 174 191 165 c 0
 183 155 174 146 173 135 c 0
 170 123 171 112 177 103 c 0
 184 93 194 88 207 88 c 0
 222 88 233 93 244 103 c 0
 252 112 258 123 261 135 c 0
 262 146 262 155 257 165 c 0
 251 174 241 178 226 178 c 0
EndSplineSet
EndChar
StartChar: uni0E57
Encoding: 213 3671 215
OldEncoding: 3671
Width: 716
Flags: W
HStem: -7 52<200 220> 135 49<237 251> 331 59<279 297 474 492>
Fore
493 68 m 1
 529 75 557 90 580 113 c 0
 603 135 619 162 631 193 c 0
 642 225 652 261 661 303 c 0
 664 315 668 332 673 354 c 0
 676 376 680 394 684 413 c 0
 693 458 706 496 718 528 c 0
 729 558 750 584 771 605 c 1
 818 570 l 1
 783 542 760 489 742 407 c 0
 738 390 735 376 734 361 c 0
 731 345 726 328 721 303 c 0
 710 249 696 203 679 165 c 0
 660 126 637 93 603 65 c 0
 580 48 551 30 521 17 c 0
 489 4 463 -3 442 -7 c 1
 409 41 l 1
 431 62 452 93 476 136 c 0
 499 177 512 213 519 248 c 0
 531 303 516 331 478 331 c 0
 458 331 441 320 425 300 c 0
 409 278 397 257 393 236 c 1
 338 236 l 1
 342 257 339 278 332 300 c 0
 323 320 307 331 284 331 c 0
 257 331 233 318 213 293 c 0
 193 267 180 236 173 202 c 0
 167 177 167 157 168 144 c 1
 173 151 183 160 197 168 c 0
 210 178 228 184 251 184 c 0
 280 184 302 175 313 157 c 0
 323 139 328 116 322 91 c 0
 316 64 303 41 281 23 c 0
 260 3 233 -7 200 -7 c 0
 160 -7 129 16 115 61 c 0
 97 104 96 154 107 209 c 0
 117 257 141 300 177 336 c 0
 215 373 254 390 297 390 c 0
 329 390 351 383 364 368 c 0
 376 354 383 342 386 335 c 1
 390 342 402 354 419 368 c 0
 436 383 461 390 492 390 c 0
 536 390 567 376 577 344 c 0
 589 313 592 276 581 229 c 0
 573 191 558 160 539 130 c 0
 521 102 505 80 493 68 c 1
239 135 m 0
 223 135 213 129 203 122 c 0
 191 112 187 102 184 90 c 0
 181 78 183 67 190 59 c 0
 196 49 204 45 220 45 c 0
 235 45 246 49 257 58 c 0
 267 65 271 77 274 90 c 0
 277 102 277 113 270 122 c 0
 264 129 254 135 239 135 c 0
EndSplineSet
EndChar
StartChar: uni0E58
Encoding: 214 3672 216
OldEncoding: 3672
Width: 682
Flags: W
HStem: -10 55<462 485> 81 48<499 514> 126 67<260 278> 219 51<524 543> 315 61<528 581> 335 58<355 389>
Fore
365 129 m 0xd0
 393 96 412 72 426 61 c 0
 439 49 455 45 473 45 c 0
 493 45 512 51 529 62 c 0
 547 74 558 90 566 113 c 1
 563 109 554 102 542 93 c 0
 532 86 518 81 499 81 c 0xd0
 474 81 452 90 438 106 c 0
 422 123 418 146 425 174 c 0
 431 202 444 225 465 242 c 0
 487 261 513 270 539 270 c 0
 563 270 583 264 597 251 c 0
 613 239 625 222 629 199 c 0
 634 175 634 151 628 126 c 0
 619 84 600 51 571 26 c 0
 541 1 505 -10 464 -10 c 0
 432 -10 406 -1 383 13 c 0
 360 28 334 58 304 102 c 0
 294 117 286 126 276 126 c 0xb0
 261 126 251 112 245 81 c 0
 238 49 241 22 252 0 c 1
 171 0 l 1
 145 30 128 62 113 93 c 0
 99 123 97 162 107 212 c 1
 129 273 162 316 210 348 c 0
 257 378 312 393 376 393 c 0xd4
 400 393 419 392 432 390 c 0
 452 387 470 383 484 381 c 0
 499 380 510 378 523 377 c 0
 538 376 551 376 564 376 c 0
 593 376 613 380 629 389 c 0
 647 399 660 415 667 438 c 0
 673 458 679 477 682 492 c 0
 693 545 695 583 693 605 c 1
 761 605 l 1
 764 593 754 539 734 441 c 0
 724 394 703 362 673 342 c 0
 645 325 606 315 560 315 c 0x98
 523 315 486 319 445 328 c 0
 415 332 394 335 378 335 c 0
 335 335 297 325 264 310 c 0
 229 293 202 270 184 236 c 0
 177 225 173 213 171 202 c 0
 165 180 167 157 171 133 c 0
 174 109 181 91 191 81 c 1xd4
 206 148 228 186 260 193 c 1xb0
 287 193 307 187 325 175 c 0
 339 164 352 148 365 129 c 0xd0
531 219 m 0
 516 219 506 215 496 204 c 0
 486 197 480 187 478 175 c 0
 476 164 476 152 483 142 c 0
 490 135 497 129 512 129 c 0
 528 129 538 135 548 142 c 0
 558 152 564 162 567 174 c 0
 568 186 568 197 561 204 c 0
 554 215 547 219 531 219 c 0
EndSplineSet
EndChar
StartChar: uni0E59
Encoding: 215 3673 217
OldEncoding: 3673
Width: 620
Flags: W
HStem: -10 65<251 276> 144 55<292 308> 300 64<578 585> 326 64<304 323> 335 64<497 508>
DStem: 409 255 484 255 493 -7 564 22
Fore
251 -10 m 0xd0
 213 -10 177 4 142 30 c 0
 110 58 91 91 91 136 c 0
 93 161 93 181 96 200 c 0
 104 241 123 278 151 310 c 0
 178 341 215 364 258 378 c 0
 283 387 304 390 323 390 c 0xd0
 357 390 381 383 399 368 c 0
 418 354 429 342 436 335 c 1
 447 377 467 399 497 399 c 0xc8
 516 399 534 392 548 380 c 0
 560 368 570 364 580 364 c 0
 597 364 612 386 619 426 c 0
 629 468 634 509 631 547 c 0
 629 584 628 605 624 605 c 2
 693 605 l 1
 695 594 697 579 697 554 c 0
 697 529 697 500 690 465 c 0
 680 412 666 370 651 342 c 0
 635 315 613 300 583 300 c 0xe0
 570 300 555 306 538 318 c 0
 521 329 509 335 502 335 c 0xc8
 494 332 486 323 483 307 c 0
 478 287 480 268 484 255 c 2
 564 22 l 1
 493 -7 l 1
 409 255 l 2
 403 277 390 294 371 307 c 0
 354 319 332 326 307 326 c 0
 273 326 244 315 216 290 c 0
 187 264 167 232 158 191 c 0
 154 171 155 149 161 129 c 0
 165 109 175 93 190 86 c 0
 187 86 187 97 191 119 c 1
 202 141 215 161 236 175 c 0
 254 190 278 199 306 199 c 0
 334 199 355 190 370 175 c 0
 386 161 392 139 387 113 c 0
 380 74 362 45 336 23 c 0
 313 1 286 -10 251 -10 c 0xd0
294 144 m 0
 280 144 267 139 257 130 c 0
 248 123 241 112 239 100 c 0
 236 88 239 78 245 68 c 0
 252 61 261 55 276 55 c 0
 290 55 302 61 312 68 c 0
 320 77 326 88 329 100 c 0
 332 113 331 125 326 133 c 0
 319 141 309 144 294 144 c 0
EndSplineSet
EndChar
StartChar: uni0E5A
Encoding: 216 3674 218
OldEncoding: 3674
Width: 668
VWidth: 2048
Flags: W
HStem: -20 58<286 306> 294 61<286 307> 432 51<252 267> 589 49<281 296>
DStem: 458 394 566 539 405 144 481 142 650 522 728 528 560 104 645 135
Fore
281 589 m 0
 257 590 235 571 220 536 c 1
 213 506 228 489 260 483 c 1
 277 483 291 489 303 499 c 1
 312 509 316 521 325 536 c 1
 332 570 316 589 281 589 c 0
568 600 m 1
 610 622 l 2
 621 629 635 632 648 634 c 1
 686 634 712 621 724 596 c 0
 731 590 732 577 732 558 c 1
 728 528 l 1
 645 135 l 2
 629 62 584 13 513 -12 c 1
 476 -22 l 1
 454 36 l 1
 477 41 l 2
 489 45 497 48 505 52 c 2
 536 75 l 2
 548 86 557 96 560 104 c 1
 650 522 l 2
 652 536 652 545 648 550 c 0
 644 558 632 564 615 564 c 0
 596 564 579 555 566 539 c 1
 481 142 l 2
 473 100 452 62 419 30 c 0
 387 -1 348 -20 306 -20 c 1
 286 38 l 1
 310 38 336 51 367 74 c 0
 384 90 399 113 405 144 c 2
 458 394 l 1
 432 358 407 335 383 319 c 0
 355 303 325 294 286 294 c 0
 223 294 180 316 155 361 c 0
 133 400 129 452 144 516 c 1
 154 550 173 579 202 602 c 0
 232 626 262 638 296 638 c 0
 312 638 325 635 332 631 c 1
 371 621 387 592 376 539 c 0
 370 509 354 483 331 464 c 0
 309 444 281 432 252 432 c 0
 233 432 219 438 206 444 c 1
 206 425 l 1
 210 399 l 1
 216 387 219 377 229 373 c 1
 264 358 l 1
 294 355 l 1
 318 355 341 364 361 378 c 1
 394 407 l 1
 434 455 l 2
 447 474 457 493 467 518 c 1
 493 606 l 1
 500 626 513 635 535 635 c 0
 544 635 552 634 558 629 c 1
 564 615 l 1
 568 600 l 1
EndSplineSet
EndChar
StartChar: uni0E5B
Encoding: 217 3675 219
OldEncoding: 3675
Width: 1180
VWidth: 2048
Flags: W
HStem: 51 58<259 283> 193 56<297 315> 355 51<291 303> 474 20G<724 751> 528 56<336 357>
VStem: 586 49<291.062 372.932>
Fore
1230 304 m 1
 1219 261 l 1
 985 255 l 1
 976 257 966 262 958 268 c 1
 944 286 l 1
 938 299 l 1
 931 313 l 1
 837 138 l 1
 824 313 l 1
 716 97 l 1
 706 319 l 1
 619 106 l 1
 592 106 l 1
 586 373 l 1
 563 319 541 277 522 246 c 0
 490 190 463 152 442 130 c 0
 389 77 326 51 261 51 c 0
 191 51 144 78 116 138 c 0
 90 190 84 251 99 320 c 0
 113 387 142 445 184 496 c 0
 232 555 290 584 351 584 c 0
 406 584 445 566 467 526 c 0
 487 490 493 444 481 389 c 0
 471 339 451 297 420 260 c 0
 384 215 344 193 297 193 c 0
 265 193 242 209 225 238 c 1
 212 268 210 297 215 320 c 0
 219 341 229 361 246 378 c 0
 262 399 284 406 303 406 c 0
 323 406 336 399 347 378 c 0
 357 361 360 341 355 320 c 0
 349 290 332 267 307 249 c 1
 329 249 352 262 377 289 c 1
 403 319 418 354 425 390 c 0
 445 481 416 528 338 528 c 0
 296 528 257 503 218 452 c 0
 186 409 165 365 155 319 c 0
 144 267 148 219 165 178 c 0
 187 130 223 109 274 109 c 0
 338 109 396 144 445 219 c 0
 461 246 499 316 555 429 c 1
 609 541 l 1
 635 541 l 1
 641 291 l 1
 724 494 l 1
 751 494 l 1
 760 293 l 1
 858 493 l 1
 874 310 l 1
 944 445 l 1
 973 361 l 2
 985 326 998 307 1015 304 c 1
 1082 303 l 1
 1230 304 l 1
291 355 m 1
 284 351 278 345 276 342 c 1
 265 319 l 1
 261 300 264 289 277 287 c 1
 283 289 289 291 290 294 c 1
 303 320 l 1
 304 329 304 338 302 344 c 0
 302 352 297 355 291 355 c 1
EndSplineSet
EndChar
StartChar: endash
Encoding: 219 8211 120
OldEncoding: 8211
Width: 871
VWidth: 2048
Flags: W
HStem: 280 46<40 909>
Fore
30 280 m 1
 41 326 l 1
 919 326 l 1
 909 280 l 1
 30 280 l 1
EndSplineSet
EndChar
StartChar: emdash
Encoding: 220 8212 121
OldEncoding: 8212
Width: 1744
VWidth: 2048
Flags: W
HStem: 280 46<-13 1782>
Fore
-22 280 m 1
 -12 326 l 1
 1792 326 l 1
 1782 280 l 1
 -22 280 l 1
EndSplineSet
EndChar
StartChar: quoteleft
Encoding: 221 8216 115
OldEncoding: 8216
Width: 197
VWidth: 2048
Flags: W
Fore
132 670 m 0
 142 721 165 761 202 789 c 0
 236 816 273 832 309 840 c 1
 326 840 332 835 332 829 c 0
 331 828 329 824 325 821 c 1
 310 816 289 805 261 789 c 0
 232 773 216 754 207 731 c 1
 223 734 l 1
 245 740 l 1
 294 734 313 708 304 663 c 0
 300 641 289 621 271 606 c 0
 257 590 235 581 212 581 c 0
 149 581 122 610 132 670 c 0
EndSplineSet
EndChar
StartChar: quoteright
Encoding: 222 8217 116
OldEncoding: 8217
Width: 197
VWidth: 2048
Flags: W
Fore
342 735 m 4
 331 683 309 645 273 618 c 4
 238 592 200 576 162 568 c 5
 146 568 138 571 139 579 c 4
 139 580 141 583 148 587 c 5
 162 592 183 603 212 619 c 4
 238 632 257 652 267 677 c 5
 249 673 l 5
 229 668 l 5
 181 676 162 700 171 747 c 4
 177 768 187 786 206 802 c 4
 220 818 241 824 265 824 c 4
 326 824 352 795 342 735 c 4
EndSplineSet
EndChar
StartChar: quotedblleft
Encoding: 223 8220 117
OldEncoding: 8220
Width: 369
VWidth: 2048
Flags: W
Fore
335 671 m 0
 347 722 368 764 405 792 c 0
 439 819 476 835 513 842 c 1
 529 842 539 840 538 832 c 1
 531 824 l 1
 529 822 l 2
 516 819 494 808 465 790 c 0
 439 777 420 757 410 732 c 1
 426 737 l 1
 448 741 l 1
 497 735 516 710 508 664 c 0
 503 642 494 625 474 609 c 0
 461 593 439 584 416 584 c 0
 352 583 328 613 335 671 c 0
132 670 m 4
 142 721 165 761 202 789 c 4
 236 816 273 832 309 840 c 5
 326 840 332 835 332 829 c 4
 331 828 329 824 325 821 c 5
 310 816 289 805 261 789 c 4
 232 773 216 754 207 731 c 5
 223 734 l 5
 245 740 l 5
 294 734 313 708 304 663 c 4
 300 641 289 621 271 606 c 4
 257 590 235 581 212 581 c 4
 149 581 122 610 132 670 c 4
EndSplineSet
EndChar
StartChar: quotedblright
Encoding: 224 8221 118
OldEncoding: 8221
Width: 369
VWidth: 2048
Flags: W
Fore
342 735 m 4
 331 684 309 645 273 618 c 4
 238 592 200 576 162 568 c 5
 145 568 138 571 139 579 c 4
 139 580 141 583 146 587 c 5
 161 592 181 603 213 619 c 4
 239 632 257 652 267 677 c 5
 252 673 l 5
 229 668 l 5
 181 676 162 700 171 747 c 4
 177 768 187 786 206 802 c 4
 220 818 241 824 264 824 c 4
 326 824 352 795 342 735 c 4
545 735 m 4
 534 683 513 645 476 618 c 4
 441 592 403 576 367 568 c 5
 349 568 344 571 345 579 c 4
 345 580 347 583 351 587 c 5
 365 592 387 603 418 619 c 4
 442 632 460 652 470 677 c 5
 455 673 l 5
 432 668 l 5
 384 676 365 700 374 747 c 4
 380 768 390 786 409 802 c 4
 423 818 444 824 467 824 c 4
 531 824 555 795 545 735 c 4
EndSplineSet
EndChar
StartChar: bullet
Encoding: 225 8226 119
OldEncoding: 8226
Width: 294
VWidth: 2048
Flags: W
Fore
174 167 m 0
 125 167 90 184 68 215 c 0
 48 246 42 281 52 325 c 0
 58 352 68 378 86 402 c 0
 104 426 128 445 152 461 c 0
 178 476 209 481 242 481 c 0
 277 481 304 476 325 461 c 0
 344 445 357 426 365 403 c 1
 371 378 373 352 367 325 c 0
 357 281 335 244 300 213 c 0
 268 184 225 167 174 167 c 0
EndSplineSet
EndChar
StartChar: ellipsis
Encoding: 226 8230 103
OldEncoding: 8230
Width: 858
VWidth: 2048
Flags: W
Fore
758 45 m 1
 748 3 719 -17 673 -23 c 1
 629 -23 609 0 615 45 c 1
 625 93 652 117 702 117 c 0
 721 117 738 112 748 97 c 1
 757 84 760 67 758 45 c 1
476 45 m 1
 465 3 438 -20 389 -23 c 1
 347 -23 326 0 331 45 c 1
 341 93 370 117 418 117 c 0
 438 117 454 112 464 97 c 1
 474 81 478 65 476 45 c 1
191 45 m 0
 181 0 155 -23 106 -23 c 0
 58 -23 38 0 48 45 c 0
 58 93 87 117 135 117 c 0
 184 117 202 93 191 45 c 0
EndSplineSet
EndChar
StartChar: dottedcircle
Encoding: 227 9676 190
OldEncoding: 9676
Width: 640
Flags: W
HStem: 4 38<344 351> 42 36<204 212> 51 39<480 489> 130 37<126 133> 142 36<580 589> 271 38<644 651> 405 36<637 645> 492 37<561 570> 499 36<312 319> 534 36<454 463>
AnchorPoint: "AboveBase" 724.492 652.5 basechar 0
AnchorPoint: "BelowBase" 540.864 -68.1504 basechar 0
Fore
190 442 m 6
307 534 m 6
200 75 m 6
123 165 m 6
477 86 m 6
577 177 m 6
632 439 m 6
558 525 m 6
639 306 m 6
119 312 m 6
451 567 m 6
200 445 m 4,11,12
 210 445 216 439 215 428 c 4,13,14
 212 418 203 409 193 409 c 4,15,16
 183 409 177 418 180 428 c 4,17,18
 181 439 190 445 200 445 c 4,11,12
319 535 m 4,19,20
 329 535 336 528 335 518 c 4,21,22
 332 508 322 499 312 499 c 4,23,24
 302 499 294 508 297 518 c 4,25,26
 299 528 309 535 319 535 c 4,19,20
212 78 m 4,27,28
 222 78 229 70 228 59 c 4,29,30
 225 49 215 42 204 42 c 4,31,32
 194 42 187 49 190 59 c 4,33,34
 191 70 202 78 212 78 c 4,27,28
133 167 m 4,35,36
 144 167 149 160 148 149 c 4,37,38
 145 139 136 130 126 130 c 4,39,40
 116 130 109 139 112 149 c 4,41,42
 113 160 123 167 133 167 c 4,35,36
489 90 m 4,43,44
 499 90 505 80 502 70 c 4,45,46
 500 59 490 51 480 51 c 4,47,48
 468 51 464 59 465 70 c 4,49,50
 468 80 477 90 489 90 c 4,43,44
589 178 m 4,51,52
 599 178 605 173 603 161 c 4,53,54
 597 144 592 142 581 142 c 4,55,56
 570 142 564 151 567 161 c 4,57,58
 568 173 577 178 589 178 c 4,51,52
645 441 m 4,59,60
 655 441 660 432 658 422 c 4,61,62
 655 410 647 405 637 405 c 4,63,64
 625 405 619 410 622 422 c 4,65,66
 624 432 634 441 645 441 c 4,59,60
570 529 m 4,67,68
 581 529 586 521 584 509 c 4,69,70
 581 500 573 492 561 492 c 4,71,72
 552 492 545 500 548 509 c 4,73,74
 550 521 561 529 570 529 c 4,67,68
651 309 m 4,75,76
 661 309 668 300 667 290 c 4,77,78
 664 278 654 271 644 271 c 4,79,80
 634 271 626 278 629 290 c 4,81,82
 631 300 641 309 651 309 c 4,75,76
129 313 m 4,83,84
 139 313 145 306 142 294 c 4,85,86
 141 286 132 277 122 277 c 4,87,88
 112 277 104 286 106 294 c 4,89,90
 109 306 119 313 129 313 c 4,83,84
351 42 m 4,91,92
 362 42 367 33 364 23 c 4,93,94
 362 12 355 4 344 4 c 4,95,96
 334 4 326 12 328 23 c 4,97,98
 331 33 341 42 351 42 c 4,91,92
463 570 m 4,99,100
 474 570 477 561 476 552 c 4,101,102
 473 542 465 534 454 534 c 4,103,104
 444 534 436 542 439 552 c 4,105,106
 441 561 452 570 463 570 c 4,99,100
EndSplineSet
EndChar
StartChar: uni0E10.descless
Encoding: 228 63232 98
OldEncoding: 63232
Width: 527
Flags: W
HStem: 0 21G<362 444> 141 49<233 251> 291 51<260 281> 463 59<548 566> 512 55<359 378>
DStem: 434 270 502 274 405 136 444 0
Fore
277 342 m 0xe8
 299 342 318 336 335 325 c 0
 349 313 362 297 367 277 c 2
 405 136 l 1
 434 270 l 2
 442 312 441 339 429 354 c 0
 419 368 397 381 364 393 c 0
 326 405 290 413 249 419 c 0
 210 428 181 432 161 434 c 1
 190 471 225 503 262 529 c 0
 297 554 336 567 376 567 c 0xe8
 397 567 418 566 431 563 c 0
 447 557 463 552 483 544 c 0
 503 536 518 531 528 528 c 0
 539 525 552 522 564 522 c 0
 583 522 603 528 624 536 c 1
 624 478 l 1
 593 467 568 463 548 463 c 0xf0
 532 463 519 464 508 467 c 0
 499 470 483 477 460 484 c 0
 439 493 422 500 409 505 c 0
 396 509 381 512 365 512 c 0
 349 512 332 506 312 499 c 0
 293 489 281 480 280 476 c 1
 287 474 297 471 310 467 c 0
 325 463 344 457 365 451 c 0
 389 445 407 441 418 438 c 0
 467 425 499 406 506 383 c 0
 516 358 512 323 502 274 c 2
 444 0 l 1
 362 0 l 1
 364 35 360 68 352 106 c 0
 344 144 336 173 331 190 c 1
 323 175 309 164 290 154 c 0
 273 146 255 141 235 141 c 0
 204 141 181 151 167 171 c 0
 154 191 149 215 155 241 c 0
 161 268 175 293 197 313 c 0
 220 332 246 342 277 342 c 0xe8
245 190 m 0
 262 190 276 194 286 204 c 0
 297 216 303 228 306 241 c 0
 309 255 307 267 302 277 c 0
 296 287 284 291 267 291 c 0
 252 291 238 287 228 277 c 0
 216 267 207 255 204 241 c 0
 202 228 206 216 212 206 c 0
 218 194 231 190 245 190 c 0
EndSplineSet
EndChar
